{"glyphs":{"0":{"ha":837,"x_min":-25,"x_max":648,"o":"m 94 760 l 71 783 q 155 883 109 848 q 272 918 201 918 q 426 853 347 915 q 562 703 505 792 q 645 521 620 613 q 648 486 648 504 q 618 343 648 427 q 544 186 589 260 q 439 57 498 111 q 327 0 380 3 q 201 48 269 0 q 76 173 133 97 q -12 330 20 248 q -16 346 -15 341 q -25 419 -25 383 q -14 494 -25 458 q 11 556 -3 531 q 48 609 24 582 q 85 649 71 636 q 121 682 99 663 q 105 577 105 611 q 117 492 105 545 q 119 483 119 485 q 184 325 138 400 q 293 202 229 250 q 420 154 356 154 l 429 154 q 506 198 477 155 q 534 298 534 240 q 531 336 534 315 l 531 338 q 476 483 516 403 q 386 634 437 563 q 276 753 336 705 q 169 801 217 801 q 94 760 125 801 z "},"1":{"ha":459,"x_min":-124,"x_max":326,"o":"m 100 918 q 119 912 111 918 q 134 901 128 907 q 144 882 139 895 q 152 860 149 869 q 158 834 154 852 q 165 810 163 817 l 326 134 l 175 19 l 64 500 q 42 575 54 537 q 13 654 30 613 q -25 722 -5 696 q -66 748 -46 748 q -97 728 -81 748 l -124 743 q -18 849 -98 781 q 100 918 62 917 z "},"2":{"ha":632,"x_min":-121,"x_max":541,"o":"m -121 784 q -36 876 -106 825 q 98 929 33 927 q 182 912 142 928 q 251 871 222 896 q 303 815 280 847 q 341 750 327 783 q 363 686 356 718 q 364 683 363 685 q 364 681 364 682 q 372 617 372 649 q 364 522 372 562 q 334 439 356 482 q 273 329 311 393 q 208 224 235 265 l 180 183 l 541 191 l 444 16 q 202 41 303 41 q 52 27 121 41 l 6 65 q 53 130 20 92 q 116 206 85 169 q 178 288 147 243 q 227 385 208 332 q 246 493 246 438 q 243 542 246 521 q 239 559 240 553 q 185 689 223 626 q 106 771 148 751 q 18 799 65 799 q -87 764 -44 799 l -121 784 z "},"3":{"ha":602,"x_min":-114,"x_max":464,"o":"m -101 772 l -114 787 q -90 809 -106 791 q -54 844 -73 826 q -12 881 -35 863 q 39 911 12 899 q 94 923 67 923 q 224 880 163 923 q 301 772 286 836 q 305 738 305 753 q 288 675 305 703 q 234 615 271 648 q 185 566 198 582 q 365 479 294 538 q 458 330 437 420 q 464 276 464 302 q 443 184 464 227 q 386 108 422 142 q 314 49 349 74 q 233 -4 279 24 q 167 -48 187 -33 l 157 -37 q 313 187 313 78 q 310 217 313 203 q 306 234 309 223 q 273 321 294 283 q 224 382 251 359 q 160 419 197 405 q 87 440 123 434 q 7 449 52 447 q 36 468 16 457 q 76 491 57 479 q 114 521 95 503 q 145 566 134 538 q 157 629 157 594 q 157 636 157 631 q 157 644 157 640 q 157 651 157 648 q 156 655 157 652 q 155 659 155 658 q 90 759 141 716 q -20 802 38 802 q -101 772 -64 802 z "},"4":{"ha":777,"x_min":-37,"x_max":644,"o":"m 226 943 l 241 929 q 200 842 231 906 q 153 740 170 778 q 120 646 136 701 q 104 549 104 591 q 109 500 104 526 q 124 464 114 479 q 151 439 134 449 q 184 425 169 430 q 228 417 199 419 q 274 414 256 414 q 328 414 292 414 l 276 641 l 399 745 l 474 422 l 644 446 l 573 300 l 494 286 l 534 111 l 410 7 l 349 273 l 117 273 q 66 275 87 273 q 22 284 44 277 q -14 306 0 292 q -33 343 -27 321 q -37 380 -37 361 q -4 530 -37 441 q 78 705 28 618 q 163 848 127 792 q 226 943 198 903 z "},"5":{"ha":592,"x_min":-82,"x_max":389,"o":"m 58 920 q 243 897 153 897 q 382 910 313 897 l 389 882 q 360 818 374 843 q 325 771 346 793 q 274 738 303 749 q 205 728 245 728 q 31 762 136 728 l 33 665 q 127 628 74 658 q 233 555 181 598 q 326 455 285 513 q 380 340 368 397 q 387 282 387 311 q 378 219 387 250 q 356 162 369 187 q 319 109 342 136 q 277 62 296 81 q 227 19 257 43 q 176 -19 196 -5 q 125 -54 157 -33 l 102 -29 q 132 -1 107 -24 q 174 42 157 23 q 213 87 191 60 q 245 142 234 115 q 257 196 257 170 q 254 219 257 209 q 231 289 245 256 q 202 345 217 321 q 164 391 187 369 q 122 428 140 414 q 74 459 104 442 q 24 485 43 476 q -30 511 5 494 q -82 536 -64 527 l 58 920 z "},"6":{"ha":705,"x_min":-22,"x_max":583,"o":"m 243 921 l 255 909 q 217 856 244 892 q 174 792 191 819 q 138 728 157 766 q 108 647 118 690 q 98 559 98 605 q 111 458 98 511 q 151 354 121 412 q 220 242 180 296 q 311 151 260 188 q 408 115 361 115 q 455 134 437 115 q 473 182 473 153 q 470 204 473 189 q 373 383 448 297 q 231 489 298 469 q 249 512 245 509 q 265 533 252 516 q 287 554 279 549 q 309 569 294 559 q 338 581 323 578 q 371 584 353 584 q 462 540 414 584 q 540 447 510 496 q 578 365 570 397 q 583 321 583 344 q 552 204 583 264 q 479 102 522 145 q 391 32 437 60 q 312 5 345 5 q 119 97 220 5 q -11 313 18 189 q -22 408 -22 359 q -11 503 -22 454 q 15 593 -1 552 q 54 676 31 633 q 99 749 78 718 q 146 812 120 779 q 189 863 172 845 q 223 900 205 880 q 243 921 242 920 z "},"7":{"ha":584,"x_min":-140,"x_max":395,"o":"m -10 923 q 186 871 58 871 q 371 888 236 871 l 395 869 q 379 824 393 865 q 361 773 365 784 q 344 722 357 762 q 325 663 330 681 q 309 605 320 645 q 292 542 297 566 q 280 480 288 518 q 269 413 272 442 q 262 350 265 385 q 260 283 260 315 q 277 121 260 197 l 131 22 l 267 700 l 170 700 q -140 767 -68 700 l -10 923 z "},"8":{"ha":710,"x_min":-70,"x_max":553,"o":"m 195 440 q 146 313 146 370 q 151 275 146 294 q 211 157 167 208 q 312 106 254 106 q 388 139 353 106 q 422 212 422 171 q 420 231 422 222 q 370 328 409 281 q 284 404 331 375 q 195 440 238 432 m 147 795 q 210 883 159 846 q 307 920 260 920 q 380 890 349 920 q 420 816 410 859 q 422 792 422 806 q 409 728 422 763 q 376 663 395 692 q 336 607 356 633 q 303 567 317 581 l 290 552 q 330 537 300 548 q 376 519 359 526 q 420 500 393 513 q 465 475 448 488 q 502 445 483 462 q 533 408 522 429 q 551 363 545 387 q 553 345 553 354 q 513 239 553 300 q 420 126 473 178 q 311 39 367 75 q 224 3 255 3 q 92 43 151 3 q 18 145 33 83 q 12 198 12 170 q 24 262 12 232 q 54 317 35 293 q 93 362 73 342 q 136 408 113 383 q 170 455 158 433 q 141 467 164 458 q 101 483 117 476 q 60 503 85 490 q 17 528 35 515 q -19 557 -1 541 q -50 594 -38 574 q -68 636 -62 614 q -70 656 -70 646 q -50 728 -70 689 q -1 797 -29 766 q 53 850 26 827 q 94 878 79 872 l 104 861 q 57 765 57 818 q 60 737 57 753 q 140 625 75 675 q 273 567 205 575 q 292 646 292 602 q 287 692 292 669 q 248 772 276 740 q 184 804 220 804 q 147 795 166 804 z "},"9":{"ha":741,"x_min":-75,"x_max":534,"o":"m 298 467 q 289 454 296 465 q 278 438 281 443 q 265 422 274 433 q 249 404 256 410 q 232 389 242 398 q 212 374 222 379 q 190 362 202 368 q 165 354 178 357 q 138 351 152 351 q 44 390 90 351 q -32 479 -3 429 q -71 577 -60 530 q -75 615 -75 595 q -28 759 -75 684 q 82 881 19 833 q 193 928 145 928 q 332 877 260 928 q 456 750 404 826 q 525 597 507 674 q 534 511 534 557 q 511 369 534 442 q 455 240 488 296 q 383 133 422 184 q 314 53 343 82 q 265 8 285 23 l 243 36 q 297 102 274 72 q 349 181 319 133 q 395 280 378 229 q 411 381 411 332 q 404 441 411 413 q 338 614 384 528 q 228 761 292 701 q 100 821 163 821 q 54 798 69 821 q 39 741 39 776 q 44 700 39 719 q 85 599 54 656 q 162 495 115 542 q 252 449 209 449 q 298 467 276 449 z "},"\u0000":{"ha":0,"x_min":0,"x_max":0,"o":""}," ":{"ha":376,"x_min":0,"x_max":0,"o":""},"!":{"ha":321,"x_min":-140,"x_max":246,"o":"m -140 821 l 12 947 l 125 362 l 35 294 l -140 821 m 138 184 q 246 70 170 129 l 157 0 q 146 -2 153 -2 q 80 35 111 -2 q 53 80 56 65 q 52 88 52 85 q 69 123 52 105 l 138 184 z "},"\"":{"ha":489,"x_min":-152,"x_max":192,"o":"m 184 969 l 192 675 l 122 666 l 70 954 l 184 969 m -38 969 l -30 675 l -100 666 l -152 954 l -38 969 z "},"#":{"ha":770,"x_min":-71,"x_max":561,"o":"m 553 700 l 555 603 l 399 603 l 403 371 l 558 371 l 561 273 l 406 273 l 410 0 l 313 0 l 308 273 l 190 273 l 195 0 l 98 0 l 93 273 l -63 273 l -64 371 l 93 371 l 88 603 l -68 603 l -71 700 l 86 700 l 80 973 l 178 973 l 184 700 l 300 700 l 296 973 l 393 973 l 397 700 l 553 700 m 302 603 l 185 603 l 190 371 l 305 371 l 302 603 z "},"$":{"ha":784,"x_min":-105,"x_max":629,"o":"m 302 412 l 387 77 q 462 116 435 84 q 488 201 488 149 q 481 258 488 229 q 417 365 467 321 q 302 412 366 409 m 136 920 q 125 921 132 920 q 115 921 118 921 q 106 920 109 921 q 50 885 74 917 q 26 807 26 853 q 31 768 26 787 l 37 748 q 67 690 45 716 q 118 648 89 664 q 170 623 146 632 q 216 609 193 614 l 136 920 m -98 633 q -105 692 -105 663 q -90 769 -105 732 q -55 833 -75 806 q 0 887 -34 860 q 61 931 35 915 q 124 968 87 947 l 102 1067 l 146 1103 l 172 983 q 252 991 215 991 q 382 963 328 991 q 458 897 435 934 q 374 849 427 864 q 330 810 361 827 q 305 836 323 817 q 278 865 287 856 q 253 888 269 874 q 221 909 237 901 q 190 920 206 916 l 271 582 q 529 490 398 544 q 570 458 555 471 q 602 422 585 446 q 624 372 618 399 l 626 363 q 629 332 629 350 q 560 161 629 251 q 409 18 492 71 l 437 -107 l 387 -145 l 360 -5 q 281 -17 323 -17 q 159 1 221 -17 q 51 52 98 19 q -6 122 4 84 q -3 148 -10 141 l 132 243 q 172 183 151 209 q 211 142 193 157 q 254 115 229 127 q 295 98 279 103 q 338 85 311 93 l 254 441 q 140 475 241 446 q -23 537 39 505 q -75 580 -60 562 q -98 633 -89 598 z "},"%":{"ha":1279,"x_min":-136,"x_max":1127,"o":"m 680 536 l 667 549 q 697 569 677 555 q 726 587 718 582 q 751 600 734 591 q 780 612 768 609 q 810 618 792 615 q 848 621 828 621 q 1017 550 939 621 q 1116 384 1095 479 q 1127 290 1127 338 q 1061 92 1127 171 q 879 14 994 14 q 709 85 787 14 q 608 252 631 156 q 608 256 608 254 q 607 258 608 258 q 602 302 602 283 q 609 349 602 326 q 626 387 617 373 q 651 425 634 401 q 674 460 667 449 q 686 374 675 418 q 797 159 714 251 q 967 66 879 66 q 1038 100 1013 66 q 1062 184 1062 133 q 1056 235 1062 209 q 1055 241 1055 237 q 1053 248 1054 245 q 1048 271 1049 264 q 936 475 1018 399 q 759 551 854 551 q 680 536 719 551 m -58 875 l -70 888 q -40 907 -60 895 q -12 925 -20 920 q 13 939 -3 930 q 42 951 30 947 q 72 957 54 954 q 110 960 90 960 q 279 890 201 960 q 379 723 357 819 q 390 629 390 677 q 323 431 390 510 q 142 353 257 353 q -29 424 50 353 q -129 591 -107 495 q -130 597 -130 595 q -136 642 -136 618 q -128 689 -136 665 q -112 726 -120 712 q -86 764 -104 739 q -63 799 -69 789 q -52 713 -62 755 q 59 498 -24 590 q 230 406 142 406 q 300 439 276 406 q 325 523 325 472 q 319 574 325 548 q 317 580 318 576 q 315 587 316 585 q 310 610 314 597 q 198 814 280 739 q 22 890 117 890 q -58 875 -18 890 m 675 930 l 736 945 l 322 11 l 254 0 l 675 930 z "},"&":{"ha":1084,"x_min":-103,"x_max":891,"o":"m 340 453 q 159 430 215 453 q 103 347 103 408 q 109 304 103 330 q 178 203 121 248 q 299 137 234 158 q 418 115 363 115 l 467 115 q 551 140 523 122 q 580 195 580 157 q 576 224 580 211 l 524 453 l 340 453 m 134 838 q 96 833 115 838 q 56 817 76 828 q 24 785 37 806 q 12 736 12 764 q 16 703 12 720 q 22 681 18 693 q 37 652 26 669 q 61 619 47 634 q 98 589 75 604 q 149 568 121 575 q 227 553 193 556 q 340 550 260 550 l 509 550 l 497 602 l 621 686 l 650 557 l 891 557 l 800 453 l 667 449 l 680 394 q 687 334 687 360 q 662 241 687 287 q 578 128 637 195 q 470 28 514 56 q 363 0 426 0 q 292 7 334 0 q 200 32 250 15 q 106 73 151 49 q 28 133 62 96 q -16 214 -6 170 q -20 242 -20 229 q 85 406 -20 315 l 125 441 l 62 470 q 29 487 39 481 q -7 509 19 492 q -48 540 -33 526 q -79 578 -63 554 q -100 627 -94 602 q -103 652 -103 638 q 47 843 -103 743 l 122 880 q 253 907 195 907 q 286 905 264 907 q 350 897 321 905 q 395 881 379 890 q 423 862 412 872 q 438 846 435 851 q 443 838 442 840 l 331 756 q 242 819 288 800 q 134 838 196 838 z "},"'":{"ha":267,"x_min":-152,"x_max":-30,"o":"m -38 969 l -30 675 l -100 666 l -152 954 l -38 969 z "},"(":{"ha":413,"x_min":-88,"x_max":328,"o":"m 51 1038 q 14 760 14 900 q 40 526 14 644 q 73 412 53 469 q 113 312 94 355 q 160 218 132 269 q 206 140 189 168 q 254 70 223 113 q 294 16 286 27 q 328 -27 302 5 l 232 -129 q -58 431 13 127 q -88 697 -88 562 q -52 982 -88 845 l 51 1038 z "},")":{"ha":343,"x_min":-230,"x_max":186,"o":"m 48 -114 q 85 163 85 24 q 58 398 85 282 q 9 554 41 476 q -50 686 -22 633 q -119 801 -77 739 q -179 886 -161 863 q -230 951 -197 909 l -133 1053 q 156 493 87 795 q 186 225 186 361 q 151 -58 186 77 l 48 -114 z "},"*":{"ha":445,"x_min":-93,"x_max":279,"o":"m 74 389 q -22 536 2 461 l 84 557 q 81 513 81 532 q 89 439 81 477 q 103 393 94 414 q 202 497 136 467 l 279 398 q 257 399 271 399 q 125 366 180 399 q 279 283 215 342 l 221 201 q 106 346 180 286 q 108 341 107 345 q 109 336 109 338 q 117 267 117 299 q 104 191 117 227 l -9 239 q 75 361 55 288 q -24 342 23 342 q -80 348 -50 342 l -93 460 q 74 389 -9 403 z "},"+":{"ha":592,"x_min":-118,"x_max":436,"o":"m 436 354 l 208 354 l 261 126 l 181 126 l 128 354 l -100 354 l -118 433 l 110 433 l 58 661 l 138 661 l 190 433 l 418 433 l 436 354 z "},",":{"ha":254,"x_min":-47,"x_max":151,"o":"m 34 -80 l 14 -58 q 52 3 52 -34 q 52 18 52 3 q -47 127 41 67 q 39 197 -6 174 q 112 147 83 174 q 149 81 140 121 q 151 71 151 75 q 119 7 151 41 l 34 -80 z "},"-":{"ha":613,"x_min":-62,"x_max":492,"o":"m -43 354 l -62 433 l 474 433 l 492 354 l -43 354 z "},".":{"ha":238,"x_min":-47,"x_max":146,"o":"m 38 186 q 146 73 69 132 l 57 3 q 46 0 52 0 q -20 38 12 0 q -47 83 -43 68 q -47 90 -47 83 q -29 126 -47 106 l 38 186 z "},"/":{"ha":865,"x_min":-41,"x_max":547,"o":"m 433 985 l 547 985 l 71 -16 l -41 -16 l 433 985 z "},":":{"ha":296,"x_min":-94,"x_max":204,"o":"m 96 186 q 204 73 127 132 l 115 3 q 104 0 110 0 q 39 38 70 0 q 12 83 15 68 q 10 91 10 88 q 28 126 10 108 l 96 186 m -9 643 q 99 529 21 589 l 10 459 q 0 456 3 456 q -34 466 -16 456 q -66 494 -52 476 q -94 539 -90 523 l -94 547 q -77 583 -94 566 l -9 643 z "},";":{"ha":322,"x_min":-99,"x_max":220,"o":"m -14 644 q 95 530 18 589 l 5 460 q -5 457 0 457 q -71 495 -40 457 q -98 540 -95 525 q -99 547 -99 543 q -82 583 -99 566 l -14 644 m 104 -84 l 83 -62 q 121 -3 121 -41 q 119 14 121 5 q 22 123 109 64 q 109 193 65 170 q 182 143 154 169 q 219 77 210 117 q 220 66 220 71 q 189 3 220 33 l 104 -84 z "},"<":{"ha":732,"x_min":-120,"x_max":637,"o":"m 637 15 l -99 307 l -120 396 l 482 688 l 504 593 l 3 351 l 616 110 l 637 15 z "},"=":{"ha":779,"x_min":-91,"x_max":670,"o":"m 602 450 l -68 450 l -91 550 l 578 550 l 602 450 m 670 153 l 0 153 l -22 252 l 647 252 l 670 153 z "},">":{"ha":769,"x_min":-133,"x_max":625,"o":"m 625 307 l 22 15 l 0 110 l 501 351 l -111 593 l -133 688 l 604 396 l 625 307 z "},"?":{"ha":618,"x_min":-230,"x_max":385,"o":"m -230 825 q -188 884 -208 860 q -140 931 -168 907 q -77 967 -113 955 q 3 979 -41 979 q 163 947 85 979 q 300 851 241 915 q 378 705 359 788 q 385 651 385 677 q 366 571 385 608 q 317 507 347 535 q 255 450 287 478 q 192 381 223 421 q 144 294 161 340 l 113 319 q 138 372 121 347 q 172 415 155 397 q 205 453 189 434 q 232 495 222 472 q 243 544 243 518 q 239 579 243 560 q 123 793 209 709 q -57 878 38 878 q -203 808 -142 878 l -230 825 m 155 186 q 263 73 186 132 l 174 3 q 163 0 169 0 q 98 38 129 0 q 71 83 74 68 q 69 91 69 88 q 87 126 69 108 l 155 186 z "},"@":{"ha":1082,"x_min":-106,"x_max":907,"o":"m -94 498 q -106 608 -106 554 q 11 888 -106 779 q 311 997 127 997 q 500 972 409 997 q 668 900 591 947 q 801 777 745 852 q 878 607 857 701 q 893 489 893 545 q 832 313 893 380 q 624 212 740 212 q 550 272 564 212 l 540 315 l 517 283 q 466 233 498 254 q 398 212 435 212 q 247 274 319 212 q 155 428 176 337 q 144 517 144 475 q 202 691 144 623 q 353 760 259 760 q 516 675 450 760 l 545 640 l 550 741 l 625 741 l 623 349 q 649 307 629 319 q 691 294 669 294 q 785 343 746 294 q 825 476 825 393 q 814 564 825 517 q 642 827 774 732 q 327 922 510 922 q 74 837 161 922 q -14 610 -14 751 q 0 496 -14 557 q 190 190 44 306 q 539 75 336 75 q 833 190 745 75 l 907 190 q 772 50 862 100 q 548 0 683 0 q 139 142 321 0 q -94 498 -43 283 m 250 446 q 308 344 264 385 q 409 302 351 302 q 508 353 473 302 q 542 473 542 403 q 535 532 542 500 q 479 630 522 591 q 385 669 437 669 q 281 622 319 669 q 243 504 243 575 q 250 446 243 473 z "},"A":{"ha":979,"x_min":-43,"x_max":882,"o":"m 300 328 q 453 339 395 328 l 180 773 l 115 336 q 262 328 179 328 l 300 328 m 237 963 l 267 947 q 449 613 327 812 q 690 260 571 414 q 852 106 810 106 q 868 122 864 106 l 882 102 q 740 0 811 0 q 715 11 730 0 q 681 42 701 21 q 642 83 661 63 q 600 133 624 103 q 563 180 576 163 q 530 223 550 197 q 509 251 510 249 l 107 251 q 102 161 102 197 q 109 90 102 121 l -43 8 q 109 882 63 380 l 237 963 z "},"B":{"ha":833,"x_min":-208,"x_max":684,"o":"m 55 850 l 213 167 q 336 125 283 137 q 455 114 388 114 q 525 148 488 114 q 561 222 561 182 q 559 238 561 230 q 218 498 514 432 q 262 511 235 500 q 318 540 289 522 q 369 586 348 557 q 390 644 390 614 q 387 665 390 650 q 388 673 388 667 q 377 711 388 689 q 340 757 366 732 q 277 803 314 782 q 182 837 240 823 q 55 850 123 850 m 680 344 q 684 315 684 328 q 647 207 684 264 q 558 104 610 149 q 450 30 507 60 q 353 0 393 0 q 85 49 231 0 q -85 834 45 464 q -118 832 -101 834 q -146 828 -136 830 q -178 822 -156 827 q -208 816 -201 817 l -128 940 q -100 947 -123 942 q -41 958 -78 952 q 23 963 -5 963 q 513 743 463 963 q 517 711 517 726 q 505 657 517 684 q 479 616 492 631 q 441 577 466 601 q 410 545 417 553 q 490 528 458 537 q 556 505 523 519 q 612 469 590 490 q 652 417 634 448 q 680 344 671 386 z "},"C":{"ha":765,"x_min":-95,"x_max":659,"o":"m 646 203 l 659 175 q 625 116 646 145 q 575 60 605 87 q 505 17 546 33 q 418 0 464 0 q 248 39 332 0 q 98 142 163 78 q -16 288 33 205 q -84 458 -64 371 q -95 555 -95 506 q -43 758 -95 664 q 99 907 8 851 q 298 963 190 963 l 330 963 q 382 958 358 963 q 420 945 406 952 q 445 929 435 937 q 460 915 456 920 q 465 907 464 909 l 465 905 q 446 874 465 893 q 393 829 427 856 q 351 796 358 802 q 292 833 313 821 q 231 857 271 845 q 146 868 191 868 q 50 817 84 868 q 16 698 16 766 q 22 647 16 669 q 119 384 56 500 q 271 201 183 269 q 454 134 358 134 q 646 203 551 134 z "},"D":{"ha":918,"x_min":-227,"x_max":741,"o":"m 67 841 l 217 190 q 336 140 277 153 q 476 127 396 127 q 595 179 553 127 q 637 307 637 230 q 629 374 637 341 q 67 841 521 841 m -227 846 l -121 958 q -26 960 -84 958 q 70 963 33 963 q 240 946 157 963 q 405 893 324 930 q 550 805 485 857 q 664 674 615 752 q 735 503 713 597 q 741 445 741 475 q 715 318 741 384 q 648 196 690 252 q 556 96 606 141 q 455 25 507 51 q 361 0 403 0 q 278 7 317 0 q 192 28 239 15 q 107 49 144 42 l -77 846 l -227 846 z "},"E":{"ha":821,"x_min":-173,"x_max":719,"o":"m -69 963 q 131 952 29 952 q 303 958 193 952 q 471 963 414 963 q 460 944 469 960 q 448 922 452 928 q 435 902 444 916 q 420 881 426 888 q 403 864 414 874 q 384 849 393 854 q 362 841 374 844 q 337 837 350 837 q 252 831 299 831 q 93 842 199 831 l 157 568 l 478 568 q 465 538 473 556 q 453 511 457 519 q 441 490 450 503 q 426 472 433 477 q 403 459 418 467 q 370 449 388 452 q 325 442 352 446 q 262 438 297 439 q 181 437 227 437 l 256 113 q 504 123 354 123 l 719 123 l 628 0 q 471 4 575 0 q 315 8 367 8 q 153 0 222 8 l 52 441 l -79 441 q 28 568 2 513 l -39 854 l -173 854 l -69 963 z "},"F":{"ha":796,"x_min":-180,"x_max":481,"o":"m -72 963 q 80 958 -3 958 q 291 964 155 958 q 481 971 427 970 q 461 937 476 958 q 424 891 447 916 q 368 850 401 867 q 302 831 335 832 l 106 825 q 121 729 113 768 q 143 641 130 690 q 163 560 156 592 q 275 559 238 559 l 481 575 q 461 534 475 557 q 428 487 448 511 q 383 446 409 463 q 331 430 357 430 l 191 430 l 277 91 l 159 -11 l 56 445 l -75 446 l 27 557 l -39 842 l -180 842 l -72 963 z "},"G":{"ha":903,"x_min":-93,"x_max":745,"o":"m 518 90 l 532 90 q 645 201 645 91 q 642 242 645 224 q 579 389 622 328 q 504 450 536 450 q 425 395 456 449 l 399 411 q 505 527 456 481 q 533 546 512 539 q 581 553 554 553 l 584 553 q 700 485 655 553 q 745 323 745 417 q 733 231 745 275 q 693 143 721 186 q 624 70 665 101 q 520 19 583 38 q 382 0 458 0 l 379 0 q 250 38 323 0 q 111 136 178 76 q -10 279 44 197 q -83 444 -64 362 q -93 542 -93 490 q -83 641 -93 592 q -52 738 -73 690 q 4 826 -31 785 q 85 897 39 866 q 196 945 131 928 q 336 963 260 963 q 445 950 394 963 q 501 910 495 937 l 502 909 q 502 907 502 907 q 454 845 502 885 q 385 804 406 804 q 302 873 341 850 q 211 897 262 897 q 176 894 192 897 q 64 840 100 883 q 28 715 28 797 q 37 621 28 675 q 146 359 70 481 q 322 163 222 237 q 518 90 422 90 z "},"H":{"ha":979,"x_min":-141,"x_max":857,"o":"m 243 113 q 174 64 208 94 q 121 18 141 35 q 90 0 102 0 q 80 6 85 0 q 71 25 75 12 q 62 49 66 39 q 54 78 59 59 q 46 105 48 98 l -68 553 l -141 875 l -16 970 l 89 525 q 271 521 179 521 q 526 532 412 521 l 453 875 l 567 982 l 677 532 l 793 533 l 702 426 l 707 408 q 713 380 711 390 l 729 308 q 801 132 770 132 q 838 160 812 132 l 857 138 q 764 55 827 106 q 685 0 701 3 l 684 0 q 671 8 677 0 q 662 28 665 17 l 560 412 q 331 420 444 420 q 114 412 222 420 q 165 198 141 275 q 215 121 190 121 q 228 134 223 121 l 243 113 z "},"I":{"ha":347,"x_min":-210,"x_max":240,"o":"m 111 0 q 79 155 104 28 q 18 425 53 283 q -67 739 -16 568 q -101 806 -87 790 q -136 821 -115 821 q -189 802 -162 821 l -210 821 l -28 948 q 0 965 -12 965 q 26 950 12 965 q 45 911 40 936 l 240 102 l 111 0 z "},"J":{"ha":354,"x_min":-208,"x_max":287,"o":"m 45 911 l 185 295 q 287 -94 232 91 l 100 -297 q 89 -248 100 -297 q 121 -102 121 -196 q 113 2 121 -58 q 97 101 105 62 q 71 221 89 140 q 47 327 53 302 q -65 737 16 466 q -97 801 -81 782 q -134 819 -113 819 q -187 800 -160 819 l -208 819 l -26 946 q -14 956 -22 951 q 1 963 -5 960 l 7 965 q 28 950 17 965 q 45 911 40 935 z "},"K":{"ha":840,"x_min":-205,"x_max":744,"o":"m 204 880 l 309 960 q 458 864 441 932 q 458 862 458 864 q 421 806 458 847 q 330 700 384 764 q 247 578 277 635 q 370 436 274 547 q 532 254 465 324 q 672 118 598 184 q 722 96 701 96 q 744 100 732 96 q 708 60 728 78 q 664 23 688 42 q 627 -8 640 5 q 608 -16 619 -16 q 547 28 586 -16 l 147 505 l 302 705 q 319 751 319 728 q 309 790 319 771 q 276 828 298 809 q 244 854 254 846 q 210 876 233 862 q 204 880 206 879 m -205 821 q -118 897 -163 863 q -46 944 -73 930 q -13 958 -20 958 q 17 930 1 958 q 38 880 32 901 l 226 96 l 103 7 q -68 724 41 368 q -103 788 -80 759 q -153 818 -127 818 q -186 804 -170 818 l -205 821 z "},"L":{"ha":752,"x_min":-222,"x_max":651,"o":"m -52 741 q -96 799 -67 779 q -149 819 -124 819 q -201 800 -174 819 l -222 819 l -41 946 q -12 963 -25 963 q 22 946 2 963 q 47 906 42 930 l 232 122 q 252 117 243 121 q 273 113 260 113 q 436 118 319 113 q 599 122 553 122 q 651 120 625 122 l 572 0 l 142 3 l -52 741 z "},"M":{"ha":1370,"x_min":-144,"x_max":1270,"o":"m 794 846 l 977 972 l 946 777 q 1081 431 998 593 q 1270 114 1163 270 l 1262 96 l 1144 0 q 1065 129 1105 54 q 1000 260 1025 203 q 935 411 975 316 q 875 549 894 507 q 854 487 867 528 q 831 415 841 446 q 806 344 821 385 q 777 273 790 303 q 744 212 763 243 q 705 160 724 180 q 662 127 686 140 q 611 114 637 114 q 543 136 584 114 q 464 186 503 157 q 368 268 426 215 q 272 358 311 320 q 171 458 234 395 q 145 484 154 475 q 184 114 156 237 l 35 0 q 13 581 13 212 l 13 633 l -126 822 q -144 858 -144 841 q -122 893 -144 878 l -20 954 q 75 804 17 887 q 209 632 134 720 q 360 470 284 543 q 513 349 435 397 q 649 301 591 302 q 726 330 693 302 q 779 405 760 358 q 808 510 799 452 q 818 633 818 567 q 794 846 818 742 z "},"N":{"ha":1021,"x_min":-238,"x_max":886,"o":"m 148 620 q 262 106 178 355 q 135 0 199 75 l -8 750 q -56 784 -18 756 q -126 835 -93 812 q -170 857 -159 857 q -220 840 -201 857 l -238 853 q -157 921 -213 880 q -75 963 -100 963 q 104 860 -33 963 q 395 621 241 757 q 713 328 549 485 q 689 438 706 359 q 664 552 673 517 q 640 648 656 588 q 607 755 625 707 q 566 849 589 802 l 707 965 l 886 91 l 782 0 q 488 330 644 181 q 148 620 332 479 z "},"O":{"ha":909,"x_min":-79,"x_max":732,"o":"m 47 794 l 21 819 q 110 924 62 888 q 233 960 157 960 q 338 950 286 960 q 451 909 390 939 q 561 831 511 879 q 655 703 611 784 q 724 517 699 622 q 732 447 732 482 q 694 283 732 366 q 599 138 656 199 q 475 37 543 76 q 352 -3 408 -3 q 231 17 288 -3 q 129 71 173 37 q 47 150 85 104 q -17 244 9 196 q -65 347 -43 292 l -69 363 q -79 449 -79 410 q -67 537 -79 496 q -32 610 -55 578 q 9 662 -9 642 q 54 704 28 682 q 43 600 43 663 q 45 554 43 577 q 47 519 46 531 l 49 507 q 135 323 71 412 q 276 184 199 235 q 418 132 353 132 l 427 132 q 531 177 488 132 q 583 293 573 222 l 583 328 q 568 450 583 384 q 485 630 549 534 q 337 794 421 726 q 185 861 253 861 q 161 859 171 861 q 101 838 138 859 q 47 794 63 817 z "},"P":{"ha":761,"x_min":-208,"x_max":525,"o":"m 95 0 q 28 427 75 202 q -84 840 -20 652 q -208 823 -159 840 l -128 941 q -59 957 -98 951 q 5 962 -21 962 q 79 963 31 963 q 273 936 182 963 q 433 850 364 909 q 521 707 502 791 q 525 673 525 689 q 491 572 525 623 q 409 486 457 521 q 309 428 360 450 q 222 406 258 406 q 214 416 219 406 q 208 426 210 426 q 279 446 240 426 q 348 504 318 465 q 378 587 378 543 q 375 616 378 599 q 279 773 354 707 q 116 840 204 840 q 86 837 104 840 q 56 834 68 834 l 224 106 l 95 0 z "},"Q":{"ha":1051,"x_min":-87,"x_max":974,"o":"m 901 -191 q 709 -117 838 -191 q 490 47 579 -43 q 345 -3 412 -3 q 223 17 281 -3 q 122 71 165 37 q 40 150 78 104 q -24 244 2 196 q -73 347 -51 292 l -77 363 q -87 449 -87 410 q -75 537 -87 496 q -40 610 -62 578 q 2 662 -17 642 q 46 704 20 682 q 36 600 36 663 q 37 554 36 577 q 40 519 39 531 l 41 507 q 128 323 64 412 q 269 184 192 235 q 410 132 346 132 l 420 132 q 386 180 401 157 q 361 216 370 203 q 345 241 353 230 q 334 258 338 252 q 327 267 331 263 q 320 272 323 271 q 313 273 317 273 q 296 267 304 273 q 277 252 287 261 q 264 240 268 243 l 245 245 l 307 377 q 350 401 323 401 q 387 386 370 401 q 418 347 404 370 q 465 277 433 323 q 536 187 497 231 q 576 293 568 234 l 576 328 q 561 450 576 384 q 477 630 541 534 q 330 794 414 726 q 178 861 245 861 q 153 859 163 861 q 93 838 131 859 q 39 794 56 817 l 14 819 q 102 924 54 888 q 225 960 150 960 q 331 950 279 960 q 443 909 382 939 q 554 831 504 879 q 648 703 604 784 q 716 517 692 622 q 724 450 724 487 q 685 288 724 370 q 585 137 647 205 q 788 -15 690 41 q 922 -71 885 -71 q 934 -69 928 -71 q 942 -65 939 -67 q 948 -57 945 -62 q 952 -49 951 -52 q 955 -39 953 -46 q 957 -31 956 -32 l 970 -41 q 974 -96 974 -77 q 901 -191 974 -191 z "},"R":{"ha":866,"x_min":-221,"x_max":770,"o":"m -131 944 q 23 963 -68 963 l 100 963 q 302 942 215 963 q 450 872 389 920 q 532 751 511 825 q 536 713 536 733 q 524 652 536 682 q 488 599 511 623 q 444 558 465 575 q 395 521 424 541 q 355 492 366 500 q 533 280 456 368 q 692 117 610 192 q 741 90 722 90 q 764 99 753 90 l 770 88 l 646 -5 q 616 -19 633 -19 q 561 14 590 -19 q 467 120 494 88 q 387 215 439 151 q 297 332 334 278 q 228 441 260 385 l 330 499 q 351 527 333 504 q 375 559 369 550 q 391 585 380 568 q 406 616 402 603 q 410 641 410 629 q 410 645 410 642 q 410 650 410 648 q 410 654 410 652 q 306 808 386 760 q 66 856 225 856 q 103 680 79 796 q 140 506 126 563 q 191 306 155 438 q 241 107 227 173 l 115 0 q 69 230 97 78 q 20 472 41 382 q -14 608 9 520 q -52 761 -37 696 l -75 837 q -114 838 -88 837 q -151 838 -139 838 q -221 833 -194 838 l -131 944 z "},"S":{"ha":778,"x_min":-112,"x_max":621,"o":"m 317 799 q 132 899 224 899 q 48 868 81 895 q 14 793 14 841 q 18 758 14 777 q 22 747 19 757 q 50 690 28 718 q 96 646 71 663 q 146 615 121 629 q 186 596 170 602 l 203 590 l 421 526 q 439 522 428 525 q 482 506 451 518 q 537 477 513 493 q 586 434 562 462 q 618 373 610 406 q 621 346 621 361 q 591 238 621 298 q 512 125 561 178 q 390 36 463 72 q 240 0 317 0 q 107 25 167 0 q 15 84 48 50 q 9 91 14 85 q 0 102 3 97 q -3 114 -3 108 q 7 134 -3 124 q 21 151 14 142 q 38 167 28 159 q 54 181 48 176 q 73 195 60 186 q 90 208 86 205 q 110 221 94 210 q 128 233 126 232 q 238 126 181 165 q 366 88 296 88 l 370 88 q 456 124 416 91 q 496 207 496 158 q 494 231 496 220 q 463 303 485 269 q 416 356 441 336 q 369 391 392 376 q 330 411 345 405 l 315 416 l 68 490 q 52 494 62 491 q 14 508 41 496 q -35 534 -13 519 q -79 574 -58 549 q -108 631 -101 600 q -112 669 -112 650 q -88 761 -112 715 q -25 841 -64 806 q 61 905 14 877 q 159 948 109 933 q 254 963 210 963 q 412 911 342 963 q 427 899 423 903 q 435 889 431 895 q 437 880 439 884 q 427 872 434 876 l 317 799 z "},"T":{"ha":882,"x_min":-242,"x_max":569,"o":"m 237 825 q 289 572 256 708 q 346 346 321 436 q 410 122 371 256 l 268 0 l 81 831 l -242 850 l -119 971 q 109 963 -24 964 l 569 963 q 536 912 553 935 q 504 876 519 890 q 467 852 488 862 q 430 837 446 842 q 387 830 414 832 q 342 827 359 827 q 291 826 325 826 q 237 825 258 825 z "},"U":{"ha":1033,"x_min":-163,"x_max":730,"o":"m -47 949 q -13 846 -36 916 q 128 461 76 579 q 363 147 238 214 q 469 120 414 120 q 561 138 524 120 q 618 190 598 156 q 647 266 638 224 q 655 362 655 307 q 637 574 655 429 l 579 826 l 720 963 q 718 866 718 914 q 724 639 718 785 q 730 431 730 493 q 727 327 730 373 q 714 234 724 280 q 690 153 705 187 q 649 87 674 118 q 590 38 624 57 q 508 7 555 18 q 401 -4 461 -4 q 307 9 352 -4 q 227 42 262 22 q 157 98 191 63 q 97 166 123 132 q 46 249 72 200 q 3 338 20 298 q -36 436 -15 378 q -70 533 -56 493 q -101 631 -83 572 q -132 722 -120 689 q -159 806 -150 768 q -163 836 -163 824 q -159 853 -163 845 q -152 864 -155 861 q -136 878 -149 867 q -118 893 -123 889 l -47 949 z "},"V":{"ha":1042,"x_min":-244,"x_max":726,"o":"m -244 860 l -90 979 q -80 982 -84 982 q -53 969 -67 982 q -17 929 -38 956 l 473 218 q 492 316 481 254 q 516 491 503 378 q 528 699 528 604 q 518 856 528 788 l 726 977 q 657 735 712 923 q 575 429 602 547 q 540 203 549 311 q 536 151 536 172 q 556 73 536 112 l 418 -19 q 407 24 418 -3 q 377 79 396 52 q 217 330 323 157 q 23 627 111 502 q -158 846 -65 751 q -197 864 -176 864 q -237 852 -216 864 l -244 860 z "},"W":{"ha":1706,"x_min":-240,"x_max":1396,"o":"m 445 222 q 475 374 454 276 q 510 550 497 471 q 524 698 524 629 q 503 852 524 781 l 646 954 l 1128 248 q 1208 849 1190 455 l 1396 949 q 1341 766 1379 890 q 1282 567 1303 641 q 1237 386 1261 494 q 1204 185 1214 278 q 1198 147 1198 166 q 1212 90 1198 117 l 1090 0 q 987 181 1041 94 q 862 371 934 269 q 753 524 790 473 q 627 694 716 574 l 506 212 q 500 150 500 177 q 510 69 500 116 l 396 -10 q 271 205 324 116 q 138 417 217 294 q -21 644 60 540 q -182 830 -102 749 q -211 838 -197 838 q -233 832 -222 838 l -240 844 l -91 963 q 18 835 -36 903 q 134 680 72 768 q 232 539 195 593 q 344 373 269 486 q 445 222 419 260 z "},"X":{"ha":908,"x_min":-168,"x_max":805,"o":"m 231 461 q 148 555 208 486 q 42 677 88 625 q -52 774 -3 730 q -121 818 -100 818 q -153 803 -138 818 l -168 810 q -117 869 -142 843 q -74 910 -92 896 q -42 932 -56 924 q -20 944 -28 941 l -14 947 q -3 943 -8 947 q 7 932 1 939 q 14 924 12 926 l 286 585 q 340 764 340 707 q 329 845 340 780 l 558 963 l 342 540 q 422 445 363 515 q 510 340 480 375 q 592 251 541 304 q 693 155 644 197 q 738 137 718 137 q 786 153 752 137 l 805 129 q 765 98 791 119 q 709 55 739 77 q 642 12 680 34 q 640 12 641 12 q 638 12 639 12 q 635 12 637 12 q 633 12 634 12 q 588 46 604 12 q 476 159 517 116 q 377 272 435 202 q 277 411 320 342 q 262 379 275 407 q 237 326 248 352 q 216 258 226 300 q 205 177 205 216 q 220 81 205 127 l -27 -39 q 28 53 -11 -11 q 87 154 66 117 q 138 246 108 191 q 190 354 168 302 q 231 461 212 407 z "},"Y":{"ha":1021,"x_min":-243,"x_max":704,"o":"m 416 416 q 455 510 426 444 q 500 627 485 576 q 515 728 515 677 q 492 846 515 787 l 704 978 l 488 427 q 469 333 469 388 q 475 265 469 303 q 489 199 481 227 q 509 122 496 172 q 529 49 523 73 l 403 -65 l 379 37 q 308 272 349 165 q 194 473 267 379 q 127 558 164 515 q 61 631 90 602 q -15 704 33 660 q -84 766 -63 748 q -160 831 -105 785 q -198 849 -184 849 q -211 846 -203 849 q -225 842 -220 842 l -243 856 l -108 963 q -91 969 -99 969 q -76 965 -83 969 q -58 950 -68 960 q -47 939 -47 939 q 416 416 235 677 z "},"Z":{"ha":796,"x_min":-157,"x_max":646,"o":"m -43 1021 q 151 949 -26 949 q 335 960 214 949 q 481 972 456 971 l 203 404 q 182 289 182 334 q 189 244 182 264 q 205 213 195 225 q 232 191 215 201 q 264 177 250 182 q 301 165 278 172 q 401 158 347 158 q 464 160 430 158 q 522 165 498 163 q 587 172 545 168 q 646 179 629 177 l 545 0 q 359 -9 446 -9 q 180 0 268 -9 q 90 23 155 0 q 12 68 24 45 q -7 132 -7 100 q -2 165 -7 148 q 9 195 3 183 q 27 230 15 207 q 47 267 40 254 l 323 787 l -41 776 q -127 790 -98 779 q -157 829 -157 802 q -142 872 -157 847 l -43 1021 z "},"[":{"ha":426,"x_min":-161,"x_max":368,"o":"m -161 980 l 109 980 l 120 931 l -24 931 l 213 -94 l 357 -94 l 368 -143 l 98 -143 l -161 980 z "},"\\":{"ha":865,"x_min":-273,"x_max":779,"o":"m -159 985 l 779 -16 l 667 -16 l -273 985 l -159 985 z "},"]":{"ha":340,"x_min":-248,"x_max":283,"o":"m 23 980 l 283 -143 l 12 -143 l 0 -94 l 145 -94 l -92 931 l -236 931 l -248 980 l 23 980 z "},"^":{"ha":534,"x_min":-142,"x_max":336,"o":"m 336 580 l 241 580 l 27 886 l -46 578 l -142 578 l -41 963 l 60 963 l 336 580 z "},"_":{"ha":884,"x_min":111,"x_max":901,"o":"m 901 -275 l 122 -275 l 111 -227 l 890 -227 l 901 -275 z "},"`":{"ha":311,"x_min":-219,"x_max":39,"o":"m 39 789 l 5 770 l -219 887 l -149 941 l 39 789 z "},"a":{"ha":740,"x_min":-41,"x_max":643,"o":"m 18 514 l 133 629 q 161 640 145 640 q 243 593 197 640 q 436 375 345 487 q 643 103 526 263 l 539 14 q 477 103 503 68 q 418 177 451 139 q 355 238 385 215 q 289 281 326 261 q 210 309 252 300 q 118 317 168 317 q 68 298 93 317 q 43 250 43 278 q 44 237 43 245 q 113 154 58 181 q 241 127 169 127 q 380 157 332 127 q 356 113 372 137 q 314 62 339 88 q 252 18 289 35 q 176 0 216 0 q 110 7 142 0 q 46 27 77 14 q -7 65 16 41 q -36 119 -29 89 q -41 158 -41 138 q -19 239 -41 200 q 38 304 3 277 q 112 350 72 330 q 190 380 153 370 q 254 389 227 389 q 206 450 235 422 q 122 517 177 477 q 89 526 106 526 q 33 505 65 526 l 18 514 z "},"b":{"ha":747,"x_min":-210,"x_max":587,"o":"m -210 820 l -44 945 q -15 963 -28 963 q 20 913 9 963 l 142 385 q 179 261 159 311 q 228 174 198 212 q 299 119 257 136 q 399 102 341 102 q 467 142 439 102 q 494 235 494 182 q 491 269 494 255 q 440 396 475 334 q 351 501 406 458 q 240 544 297 544 q 174 529 206 544 q 244 609 205 578 q 342 639 283 639 q 449 604 398 639 q 533 516 500 569 q 580 403 566 463 q 587 341 587 374 q 558 213 587 277 q 488 103 530 149 q 393 29 445 58 q 296 0 342 0 q 216 20 255 0 q 149 74 178 41 q 95 150 120 106 q 55 235 71 193 q 29 321 39 278 l -67 738 q -136 820 -87 820 q -190 801 -161 820 l -210 820 z "},"c":{"ha":533,"x_min":-64,"x_max":423,"o":"m 423 125 q 378 70 402 94 q 312 22 354 45 q 225 0 270 0 q 114 47 177 0 q 3 161 52 94 q -59 285 -45 229 q -64 335 -64 311 q -28 476 -64 406 q 65 591 8 546 q 178 636 122 635 q 282 608 228 636 q 342 551 336 581 q 343 543 343 548 q 308 484 343 515 q 247 439 273 452 q 233 457 244 443 q 218 477 222 472 q 204 495 214 482 q 187 513 193 508 q 171 529 181 519 q 153 544 161 539 q 134 553 144 548 q 113 561 123 559 q 91 563 102 563 q 35 530 60 563 q 9 454 9 497 q 13 426 9 441 q 89 275 30 353 q 215 149 147 197 q 331 100 283 100 q 368 103 355 100 q 398 114 382 106 q 423 125 414 121 z "},"d":{"ha":781,"x_min":-73,"x_max":676,"o":"m 363 345 l 227 930 l 347 983 l 523 224 q 555 161 532 180 q 602 142 578 142 q 655 161 628 142 l 676 142 l 509 16 q 480 0 494 0 l 471 0 q 433 31 439 0 l 402 163 q 286 41 339 81 q 167 0 233 0 q 93 36 132 0 q 23 126 54 73 q -32 236 -8 180 q -65 338 -55 292 q -73 406 -73 372 q -18 569 -73 503 q 120 636 38 636 q 190 620 155 636 q 250 579 224 603 q 292 532 275 555 q 312 492 309 508 q 315 465 315 481 q 303 389 315 429 q 279 344 292 350 q 244 439 256 415 q 33 563 179 562 q 0 513 0 563 q 14 419 0 478 q 75 269 31 343 q 172 148 118 195 q 273 100 227 100 q 317 134 295 100 q 353 217 340 168 q 366 308 366 265 q 363 345 366 331 z "},"e":{"ha":545,"x_min":-57,"x_max":441,"o":"m 81 549 q 34 520 52 549 q 15 448 15 492 q 20 406 15 427 q 58 315 29 364 q 127 222 87 266 q 220 150 168 179 q 321 121 272 121 q 441 167 402 136 q 426 142 440 165 q 404 106 412 119 q 376 70 395 93 q 339 34 357 47 q 295 11 321 21 q 242 0 269 0 q 132 34 195 0 q 17 127 70 68 q -50 251 -36 187 q -57 313 -57 283 q -48 399 -57 355 q -19 486 -39 443 q 29 562 1 528 q 97 615 57 595 q 184 636 138 636 q 286 611 239 636 q 342 541 332 587 q 345 515 345 530 q 321 434 345 476 q 259 358 296 392 q 191 302 221 324 q 136 266 161 280 q 178 330 163 292 q 193 409 193 368 q 163 509 193 468 q 81 549 134 549 z "},"f":{"ha":663,"x_min":-100,"x_max":403,"o":"m 48 452 l 35 509 q 16 670 16 596 q 77 886 16 810 q 224 963 138 963 q 282 952 248 963 q 338 929 316 941 l 360 918 l 271 822 q 263 829 269 825 q 243 846 258 834 q 213 866 228 857 q 180 882 199 875 q 144 890 161 890 q 95 802 95 889 q 113 673 95 751 q 168 456 119 643 q 247 451 205 451 q 325 453 273 451 q 403 456 377 456 q 376 406 387 436 q 363 349 366 376 q 330 354 354 350 q 288 359 306 357 q 250 361 269 361 q 200 358 229 361 l 332 -178 l 226 -281 l 76 368 l -100 363 l -95 463 l 48 452 z "},"g":{"ha":671,"x_min":-80,"x_max":586,"o":"m 176 644 q 208 640 180 644 q 278 632 236 636 q 357 629 319 629 q 466 640 422 629 l 441 555 q 408 567 416 567 q 406 566 406 567 q 416 553 406 564 q 437 519 425 541 q 455 475 450 498 q 467 380 467 422 q 397 243 467 287 q 165 199 326 199 l 173 163 q 313 151 247 163 q 425 120 380 139 q 506 79 471 102 q 558 36 541 56 q 579 0 576 16 q 586 -57 586 -28 q 513 -223 586 -156 q 331 -291 441 -291 q 227 -270 279 -291 q 136 -218 174 -249 q 72 -154 98 -188 q 39 -95 45 -121 q 35 -62 35 -77 q 38 -36 35 -49 q 45 -13 41 -22 q 57 9 49 -3 q 70 27 65 20 q 85 43 75 33 q 100 56 96 53 q 115 68 104 59 q 126 77 125 77 q 142 81 136 81 q 144 80 143 81 q 144 77 144 79 q 142 75 144 76 q 125 9 125 35 q 129 -18 125 -1 q 221 -157 149 -104 q 387 -210 294 -210 q 489 -185 441 -210 q 536 -127 536 -160 l 536 -118 l 529 -92 q 464 -3 519 -47 q 338 69 408 40 q 200 115 268 98 q 92 133 132 133 l 115 216 q -2 276 58 216 q -75 391 -62 336 q -80 437 -80 412 q -77 468 -80 452 q -70 494 -74 483 q -59 519 -66 506 q -46 539 -52 532 q -32 558 -41 547 q -18 573 -22 569 q -4 586 -14 576 q 7 596 7 595 q 87 630 34 616 q 176 644 141 644 m 28 560 q 11 496 11 520 q 15 468 11 486 q 113 312 35 378 q 281 245 191 245 q 356 278 327 245 q 385 350 385 311 q 383 368 385 359 l 377 394 q 277 541 356 486 q 102 596 199 596 q 28 560 62 596 z "},"h":{"ha":795,"x_min":-217,"x_max":701,"o":"m 119 0 l -74 739 q -143 821 -94 821 q -197 802 -170 821 l -217 821 l -52 947 q -22 963 -36 963 q 14 913 2 963 l 172 295 q 245 404 204 336 q 315 519 287 472 q 378 604 343 567 q 444 640 413 640 q 487 617 464 640 q 532 549 509 593 q 577 454 555 504 q 622 335 599 404 q 663 213 646 267 q 701 90 681 158 l 593 0 q 567 81 583 31 q 539 165 551 131 q 511 244 528 200 q 479 317 495 288 q 445 373 464 347 q 402 413 425 400 q 355 427 380 427 q 300 385 332 427 q 235 276 268 342 q 173 139 202 210 q 119 0 143 68 z "},"i":{"ha":378,"x_min":-106,"x_max":243,"o":"m -12 944 q 96 830 19 890 l 7 760 q -4 758 1 758 q -70 795 -39 758 q -98 848 -98 829 q -81 884 -98 866 l -12 944 m 37 421 q -32 503 18 503 q -85 484 -58 503 l -106 503 l 60 629 q 90 646 76 646 q 125 596 113 646 l 243 81 l 132 0 l 37 421 z "},"j":{"ha":357,"x_min":-121,"x_max":311,"o":"m -35 944 q 73 830 -4 890 l -16 760 q -27 758 -22 758 q -93 795 -62 758 q -121 848 -121 829 q -104 884 -121 866 l -35 944 m 42 415 q -27 497 22 497 q -81 478 -52 497 l -101 497 l 65 623 q 94 640 81 640 q 130 590 118 640 l 311 -193 l 199 -281 l 42 415 z "},"k":{"ha":728,"x_min":-208,"x_max":630,"o":"m 196 551 l 275 644 q 416 574 399 644 q 417 564 417 567 q 415 547 417 556 q 406 527 412 537 q 395 507 400 516 q 379 486 389 498 q 362 466 369 474 q 342 445 355 458 q 323 426 329 431 q 303 406 317 420 q 285 388 289 392 q 366 303 324 342 q 463 215 408 263 q 542 145 518 167 q 620 106 593 106 q 630 109 626 106 l 534 15 q 512 4 523 4 q 500 6 507 4 q 487 14 494 9 q 475 22 480 18 q 462 34 471 26 q 450 45 454 41 l 180 326 q 198 343 182 328 q 219 363 214 359 q 236 382 223 368 q 255 405 250 397 q 268 426 260 413 q 278 450 275 439 q 281 473 281 461 q 279 490 281 481 q 249 533 273 516 q 196 551 225 551 m -65 743 q -134 825 -83 825 q -186 806 -159 825 l -208 825 l -41 950 q -12 967 -20 967 q 23 918 12 967 l 214 88 l 110 0 l -65 743 z "},"l":{"ha":328,"x_min":-205,"x_max":217,"o":"m -62 739 q -131 821 -81 821 q -185 802 -158 821 l -205 821 l -39 946 q -9 963 -23 963 q 26 913 14 963 l 217 87 l 105 0 l -62 739 z "},"m":{"ha":1308,"x_min":-121,"x_max":1213,"o":"m 35 415 q -47 496 4 496 q -100 477 -73 496 l -121 496 l 46 621 q 75 638 62 638 q 96 627 86 638 q 119 587 106 616 l 223 279 q 351 500 320 451 q 495 640 441 640 q 536 622 516 640 q 571 575 556 603 q 602 504 585 548 q 629 423 618 460 q 655 334 640 386 q 681 252 671 283 q 726 343 701 289 q 769 433 752 397 q 810 511 787 470 q 855 578 834 553 q 904 620 876 603 q 964 636 932 636 q 999 618 981 636 q 1037 565 1017 601 q 1073 491 1056 528 q 1110 394 1089 454 q 1145 294 1131 335 q 1180 185 1159 252 q 1213 87 1202 119 l 1103 0 q 1084 60 1097 19 q 983 330 1021 254 q 865 448 925 448 q 827 434 846 448 q 790 393 808 421 q 759 337 772 365 q 728 263 745 309 q 702 185 712 216 q 675 101 692 154 q 651 24 659 49 q 622 98 639 53 q 591 178 604 144 q 560 254 578 212 q 526 325 543 295 q 490 380 509 354 q 448 419 470 406 q 402 433 426 433 q 355 418 378 433 q 312 376 332 404 q 274 317 292 348 q 238 241 256 286 q 206 161 220 197 q 175 77 193 125 q 145 0 157 28 l 113 141 q 35 415 76 303 z "},"n":{"ha":829,"x_min":-121,"x_max":724,"o":"m 651 24 q 611 128 635 61 q 568 240 586 195 q 526 334 549 286 q 478 407 503 382 q 429 431 454 431 q 244 231 342 431 q 145 0 213 168 l 113 141 q 35 415 76 303 q -47 496 4 496 q -100 477 -73 496 l -121 496 l 46 621 q 75 638 62 638 q 96 627 86 638 q 119 587 106 616 l 223 279 q 351 500 320 451 q 495 640 441 640 q 524 630 509 640 q 554 599 539 619 q 582 554 568 578 q 610 496 595 530 q 636 433 624 463 q 661 363 648 403 q 684 296 675 323 q 705 230 693 268 q 724 174 718 193 l 651 24 z "},"o":{"ha":621,"x_min":-52,"x_max":473,"o":"m 6 482 q 36 559 7 522 q 100 616 64 596 q 165 636 136 636 q 285 593 220 636 q 401 481 350 550 q 467 343 452 412 q 473 294 473 317 q 436 157 473 224 q 334 44 399 89 q 195 0 269 0 q 113 21 155 0 q 39 76 71 43 q -16 148 7 109 q -47 222 -39 187 q -52 259 -52 241 q 43 435 -52 351 l 43 422 l 43 392 q 47 353 43 372 q 100 226 62 287 q 192 124 138 165 q 301 83 246 83 q 363 108 340 83 q 387 173 387 134 q 383 203 387 191 q 171 517 343 377 q 122 536 146 536 q 52 521 89 536 q 6 482 16 506 z "},"p":{"ha":745,"x_min":-118,"x_max":596,"o":"m 25 411 q -44 493 7 493 q -97 474 -70 493 l -118 493 l 48 618 q 77 636 66 636 q 113 586 102 636 l 144 454 q 188 509 170 488 q 231 558 205 531 q 276 600 256 585 q 321 626 296 615 q 370 636 346 636 q 458 587 410 636 q 543 470 507 537 q 592 344 578 402 q 596 309 596 327 q 567 211 596 260 q 493 125 537 161 q 399 63 449 88 q 306 33 349 38 q 410 104 382 80 q 475 219 475 160 q 473 244 475 233 q 425 362 460 296 q 346 478 390 429 q 269 527 301 527 q 234 502 255 527 q 198 437 214 477 q 182 360 182 397 q 182 346 182 351 l 319 -244 l 197 -291 l 25 411 z "},"q":{"ha":683,"x_min":-63,"x_max":718,"o":"m 410 592 l 583 -155 q 600 -188 587 -175 q 632 -207 612 -201 q 666 -214 651 -212 q 703 -216 682 -216 l 718 -216 q 478 -303 602 -276 l 301 464 q 271 484 288 471 q 242 503 254 496 q 212 517 231 509 q 165 528 193 524 q 100 531 138 531 q 55 506 72 531 q 37 439 37 481 q 85 281 37 370 q 231 106 133 193 q 260 99 245 99 l 312 118 l 233 18 q 199 0 219 0 l 146 18 q 75 66 104 44 q 17 117 46 88 q -31 179 -12 145 q -59 252 -50 213 q -63 289 -63 270 q -40 400 -63 339 q 20 514 -16 462 q 103 601 56 566 q 194 636 151 636 q 263 629 231 636 q 338 610 296 623 q 410 592 380 598 z "},"r":{"ha":606,"x_min":-117,"x_max":422,"o":"m 148 441 l 254 580 q 274 604 263 588 q 294 628 284 619 q 322 636 304 636 q 422 521 363 636 l 324 425 q 279 482 299 462 q 241 503 260 503 q 201 462 223 503 q 168 378 179 422 l 237 83 l 121 0 l 26 415 q -43 497 6 497 q -97 478 -68 497 l -117 497 l 49 623 q 78 640 64 640 q 113 590 102 640 l 148 441 z "},"s":{"ha":524,"x_min":-61,"x_max":393,"o":"m 198 476 q 59 553 136 553 q 38 537 47 553 q 28 505 28 522 q 29 495 28 498 q 60 436 37 460 q 112 398 82 412 q 177 375 142 385 q 247 356 212 365 q 311 337 281 348 q 362 307 340 326 q 390 259 384 287 q 393 233 393 248 q 352 124 393 180 q 253 34 311 68 q 148 0 196 0 q 53 19 96 0 q 0 79 9 39 l 0 90 q 8 122 0 105 q 33 154 17 138 q 60 181 48 170 q 90 205 73 192 q 111 221 108 219 l 125 207 l 102 188 q 103 162 96 173 q 159 98 123 125 q 239 71 194 71 q 283 84 265 71 q 300 121 300 98 l 301 127 q 300 134 301 134 q 269 198 292 170 q 216 242 246 225 q 150 271 185 258 q 81 294 115 284 q 17 315 46 304 q -33 342 -12 326 q -58 381 -53 359 q -61 408 -61 393 q -20 515 -61 460 q 72 603 21 570 q 157 636 123 636 q 239 616 195 636 q 290 570 284 595 q 290 568 290 569 l 290 566 q 275 541 290 555 q 235 508 260 527 q 198 476 210 489 z "},"t":{"ha":500,"x_min":-156,"x_max":385,"o":"m 311 104 q 338 110 326 104 q 356 122 350 116 q 370 140 361 128 l 385 110 q 326 36 366 73 q 251 0 286 0 q 230 2 243 1 q 210 4 216 3 q 192 8 203 5 q 176 16 182 12 q 162 30 170 21 q 148 53 153 39 q 135 85 142 66 q 123 131 129 105 l 9 625 l -156 625 q -115 741 -117 682 l -18 741 l -48 873 l 60 965 l 112 743 l 289 743 q 281 725 288 740 q 273 704 275 709 q 264 685 271 699 q 251 664 257 672 q 237 645 245 656 q 218 627 228 635 l 147 627 l 253 169 q 311 104 265 115 z "},"u":{"ha":768,"x_min":-122,"x_max":675,"o":"m 31 417 q -4 480 14 465 q -48 495 -23 495 q -101 476 -74 495 l -122 495 l 29 621 q 58 636 43 636 q 94 589 83 636 q 116 515 102 561 q 141 434 130 469 q 165 356 151 399 q 194 281 180 313 q 224 223 208 250 q 258 181 240 195 q 296 167 277 167 q 357 198 329 167 q 402 277 385 229 q 430 377 420 324 q 439 477 439 430 q 433 539 439 514 l 532 644 l 591 384 q 675 76 635 191 l 556 -26 l 462 380 q 452 327 458 354 q 435 260 446 299 q 411 187 425 221 q 378 117 398 153 q 335 57 358 82 q 280 16 311 32 q 212 0 248 0 q 155 64 183 0 q 91 244 127 128 q 31 417 55 361 z "},"v":{"ha":765,"x_min":-142,"x_max":571,"o":"m -142 541 l 0 625 q 7 630 3 627 q 15 634 12 633 q 23 636 18 636 q 109 562 51 636 q 251 357 166 487 q 373 179 336 228 l 449 374 q 456 418 456 395 q 432 493 456 462 q 370 525 408 525 l 367 525 q 358 524 362 525 q 350 520 354 523 q 343 515 346 517 q 336 507 340 513 q 330 500 332 502 q 323 491 328 498 q 318 483 319 484 l 297 502 q 329 540 305 511 q 363 580 352 568 q 391 609 374 591 q 421 633 408 627 q 447 640 435 640 q 524 620 486 640 q 570 567 563 600 q 571 560 571 565 l 571 557 q 537 460 571 541 q 447 243 503 379 q 353 0 391 107 l 317 0 q 230 153 266 93 q 142 289 194 214 q 35 425 91 365 q -84 532 -22 484 q -102 537 -90 537 q -130 528 -117 537 l -142 541 z "},"w":{"ha":1269,"x_min":-143,"x_max":1076,"o":"m 337 2 l 315 2 q 177 248 208 197 q -60 522 41 474 q -85 532 -73 528 q -103 537 -92 537 q -131 528 -118 537 l -143 541 l 0 625 q 7 630 3 627 q 14 634 11 633 q 22 636 17 636 q 102 569 50 636 q 232 381 154 501 q 348 210 310 260 l 423 405 q 456 487 434 429 q 492 571 477 545 q 523 596 507 596 q 574 569 543 596 q 645 491 605 542 q 721 392 686 440 q 804 277 755 345 q 878 175 852 209 l 954 370 q 960 414 960 391 q 937 489 960 458 q 876 521 913 521 l 872 521 q 862 519 867 521 q 853 514 857 517 q 844 507 850 512 q 837 498 839 501 q 829 488 835 496 q 823 479 824 481 l 802 498 q 833 536 809 506 q 868 576 858 566 q 896 605 878 587 q 926 629 913 623 q 951 636 939 636 q 1029 616 990 636 q 1075 563 1067 595 q 1076 560 1076 562 q 1076 556 1076 557 l 1076 554 q 1042 457 1076 538 q 952 240 1008 376 q 858 -4 896 104 l 821 -4 q 700 191 766 98 q 575 345 635 284 q 481 405 515 405 q 453 367 467 405 q 405 216 439 330 q 337 2 372 102 z "},"x":{"ha":737,"x_min":-113,"x_max":643,"o":"m 643 92 q 584 40 604 57 q 543 10 565 24 q 508 -4 521 -4 q 459 19 479 -4 l 241 275 q 213 242 233 264 q 181 201 193 220 q 170 165 170 183 q 222 92 170 129 l 269 71 l 185 0 q 172 1 183 0 q 159 3 161 3 q 146 5 156 3 q 133 7 136 7 q 120 10 129 8 q 106 14 111 12 q 94 18 102 16 q 81 23 86 20 q 68 30 75 26 q 56 38 62 34 q 30 73 30 53 q 43 100 30 87 l 225 296 l 41 505 q -26 535 16 535 q -100 514 -61 535 l -113 525 l 54 629 q 73 636 63 636 q 115 605 88 636 l 293 385 q 319 411 302 395 q 345 435 336 427 q 362 454 353 443 q 376 476 372 466 q 380 495 380 486 q 312 578 380 531 l 380 650 l 462 617 q 501 579 501 596 q 485 553 501 567 l 310 363 l 493 153 q 551 106 519 126 q 604 87 582 87 q 615 88 612 87 l 633 110 l 643 92 z "},"y":{"ha":736,"x_min":-123,"x_max":698,"o":"m 28 414 q -6 477 12 462 q -50 492 -24 492 q -103 473 -76 492 l -123 492 l 27 618 q 56 634 43 634 q 92 585 80 634 q 114 512 100 557 q 139 431 128 466 q 163 352 149 395 q 192 278 178 309 q 222 219 205 247 q 256 178 238 192 q 294 163 275 163 q 351 216 324 163 q 391 340 377 269 q 405 474 405 411 q 399 536 405 513 l 498 640 l 597 203 q 696 -187 670 -116 q 698 -203 698 -197 q 693 -226 698 -216 q 679 -245 688 -237 q 659 -259 669 -253 q 631 -271 648 -266 q 602 -280 615 -276 q 568 -287 588 -283 q 534 -292 548 -290 q 501 -297 521 -294 q 470 -301 481 -300 l 462 -253 q 528 -228 499 -245 q 557 -186 557 -210 l 557 -178 l 428 377 q 422 317 426 347 q 412 248 419 287 q 394 175 404 209 q 366 108 383 142 q 328 50 349 74 q 276 12 307 26 q 210 -3 246 -3 q 153 61 181 -3 q 90 241 125 125 q 28 414 54 357 z "},"z":{"ha":530,"x_min":-102,"x_max":416,"o":"m 5 704 q 40 646 15 663 q 106 629 64 629 q 323 651 217 629 q 283 579 311 629 q 241 502 256 530 q 205 431 227 473 q 169 349 184 389 q 140 271 153 310 q 135 222 135 241 q 154 167 135 187 q 218 134 173 147 q 281 129 248 129 q 349 133 304 129 q 416 136 393 136 l 325 0 l 230 0 q 156 2 186 0 q 93 10 125 4 q 41 28 60 16 q 18 61 22 41 q 15 83 15 72 q 27 124 15 100 q 43 161 40 149 l 189 511 l -49 511 q -84 516 -71 511 q -100 537 -97 521 q -102 553 -102 545 q 5 704 -102 613 z "},"{":{"ha":486,"x_min":-98,"x_max":429,"o":"m 238 46 q 356 -81 267 -81 l 413 -81 l 429 -147 l 313 -147 q 267 -138 293 -147 q 213 -110 241 -128 q 161 -56 185 -91 q 127 22 138 -22 l 80 231 q 17 333 65 294 q -80 378 -31 372 l -98 455 q -30 489 -59 461 q 0 566 0 517 q -6 603 0 578 l -54 811 q -60 859 -60 838 q -41 929 -60 900 q 4 969 -21 958 q 53 980 28 980 l 168 980 l 184 914 l 127 914 q 60 841 60 914 q 67 787 60 817 l 113 587 q 119 538 119 560 q 102 482 119 503 q 27 434 71 447 l -22 419 l 34 401 q 137 346 96 382 q 192 245 177 311 l 238 46 z "},"|":{"ha":242,"x_min":-163,"x_max":151,"o":"m 151 0 l 65 0 l -163 990 l -77 990 l 151 0 z "},"}":{"ha":428,"x_min":-244,"x_max":265,"o":"m 90 603 q 152 499 105 538 q 250 450 199 459 l 265 385 q 199 348 227 376 q 172 271 172 319 q 176 231 172 250 l 224 22 q 229 -23 229 0 q 218 -77 229 -54 q 191 -114 208 -101 q 157 -134 174 -127 q 123 -140 139 -140 l 13 -140 l 0 -87 l 51 -87 q 123 -9 123 -87 q 115 46 123 16 l 69 245 q 63 292 63 273 q 80 347 63 327 q 152 392 109 380 l 221 412 l 143 437 q 44 491 83 457 q -9 587 5 525 l -56 787 q -182 921 -87 921 l -233 921 l -244 973 l -136 973 q -92 964 -117 973 q -40 938 -67 956 q 9 886 -14 920 q 42 811 33 853 l 90 603 z "},"~":{"ha":636,"x_min":-106,"x_max":479,"o":"m 337 347 q 391 363 368 347 q 437 423 414 380 l 479 357 q 456 306 470 326 q 423 276 441 286 q 390 264 405 267 q 355 261 374 261 q 271 276 317 261 q 188 308 224 290 q 110 341 152 326 q 37 355 67 355 q -18 339 6 355 q -62 279 -41 322 l -106 345 q -82 396 -96 376 q -50 426 -67 416 q -16 438 -32 435 q 19 441 -1 441 q 103 427 57 441 q 186 394 150 412 q 264 362 222 376 q 337 347 307 347 z "},"":{"ha":0,"x_min":-515,"x_max":-372,"o":"m -410 887 q -464 908 -436 887 q -506 961 -492 929 q -515 998 -515 982 q -505 1024 -515 1015 q -477 1034 -495 1034 q -423 1013 -450 1034 q -381 961 -395 992 q -372 924 -372 941 q -382 897 -372 907 q -410 887 -392 887 z "},"":{"ha":0,"x_min":-658,"x_max":-229,"o":"m -554 888 q -608 909 -581 888 q -649 961 -635 930 q -658 997 -658 981 q -648 1023 -658 1014 q -621 1033 -638 1033 q -567 1012 -594 1033 q -526 961 -541 991 q -517 925 -517 941 q -527 898 -517 908 q -554 888 -537 888 m -267 888 q -320 910 -294 888 q -361 961 -347 931 q -370 997 -370 981 q -360 1023 -370 1014 q -333 1033 -350 1033 q -279 1012 -306 1033 q -238 961 -252 991 q -229 926 -229 943 q -239 898 -229 908 q -267 888 -249 888 z "},"":{"ha":0,"x_min":-566,"x_max":-321,"o":"m -387 837 q -480 873 -435 837 q -550 960 -526 909 q -566 1022 -566 995 q -549 1067 -566 1050 q -500 1084 -532 1084 q -408 1049 -454 1084 q -336 960 -361 1014 q -321 901 -321 927 q -338 854 -321 871 q -387 837 -355 837 m -480 1040 q -520 1002 -520 1040 q -509 960 -520 984 q -467 905 -494 928 q -407 882 -439 882 q -367 918 -367 882 q -378 960 -367 937 q -421 1017 -393 994 q -480 1040 -448 1040 z "},"":{"ha":0,"x_min":0,"x_max":0,"o":""},"":{"ha":0,"x_min":-32,"x_max":192,"o":"m -24 -347 q -32 -282 -32 -312 q -26 -241 -32 -258 q -10 -215 -20 -224 q 6 -204 1 -207 q 21 -199 12 -201 l 0 -111 l 50 -111 l 71 -199 q 182 -341 154 -217 l 192 -397 l 143 -397 q 141 -381 143 -396 q 135 -351 138 -366 q 58 -253 113 -253 q 19 -300 19 -253 q 25 -347 19 -321 q 39 -397 28 -363 l -9 -397 l -24 -347 z "},"":{"ha":0,"x_min":-334,"x_max":-75,"o":"m -271 829 q -309 845 -292 829 q -332 884 -326 861 q -334 900 -334 892 q -323 929 -334 918 q -297 940 -313 940 q -259 924 -276 940 q -237 884 -242 908 q -235 869 -235 876 q -245 840 -235 850 q -271 829 -255 829 m -229 994 q -267 1010 -250 994 q -290 1050 -284 1026 q -292 1066 -292 1059 q -281 1095 -292 1084 q -255 1105 -271 1105 q -217 1089 -234 1105 q -195 1050 -200 1074 q -193 1034 -193 1042 q -203 1005 -193 1016 q -229 994 -213 994 m -111 829 q -149 845 -132 829 q -172 884 -166 861 q -174 900 -174 892 q -163 929 -174 918 q -137 940 -153 940 q -99 924 -116 940 q -77 884 -82 908 q -75 869 -75 876 q -85 840 -75 850 q -111 829 -95 829 z "},"":{"ha":0,"x_min":-321,"x_max":-126,"o":"m -157 1000 l -233 941 l -126 882 l -206 819 l -264 819 l -183 882 l -292 941 l -214 1000 l -321 1059 l -241 1123 l -184 1123 l -264 1059 l -157 1000 z "},"":{"ha":0,"x_min":-294,"x_max":-155,"o":"m -191 829 q -229 845 -212 829 q -252 884 -246 861 q -254 900 -254 892 q -243 929 -254 918 q -217 940 -233 940 q -179 924 -196 940 q -157 884 -162 908 q -155 869 -155 876 q -165 840 -155 850 q -191 829 -175 829 m -231 1001 q -269 1017 -252 1001 q -292 1057 -286 1033 q -294 1072 -294 1065 q -283 1101 -294 1090 q -257 1112 -273 1112 q -219 1096 -236 1112 q -197 1057 -202 1080 q -195 1040 -195 1047 q -205 1011 -195 1022 q -231 1001 -215 1001 z "},"":{"ha":0,"x_min":-336,"x_max":-94,"o":"m -130 829 q -168 845 -151 829 q -190 884 -184 861 q -192 900 -192 892 q -182 929 -192 918 q -155 940 -172 940 q -118 924 -135 940 q -96 884 -101 908 q -94 868 -94 875 q -103 840 -94 850 q -130 829 -113 829 m -170 1001 q -208 1017 -191 1001 q -230 1057 -224 1033 q -232 1072 -232 1065 q -222 1101 -232 1090 q -195 1112 -212 1112 q -158 1096 -175 1112 q -136 1057 -141 1080 q -134 1040 -134 1047 q -143 1011 -134 1022 q -170 1001 -153 1001 m -226 839 l -275 839 l -336 1109 l -288 1109 l -226 839 z "},"":{"ha":0,"x_min":10,"x_max":186,"o":"m 81 -239 q 113 -304 91 -282 q 172 -339 134 -327 l 186 -398 q 30 -237 60 -370 q 10 -120 18 -187 l 61 -120 q 81 -239 77 -222 z "},"":{"ha":0,"x_min":-282,"x_max":-141,"o":"m -237 1018 l -141 918 l -187 823 l -282 920 l -237 1018 z "},"":{"ha":0,"x_min":-372,"x_max":-62,"o":"m -113 945 q -152 988 -119 974 l -166 1048 q -105 1011 -135 1039 q -66 946 -75 984 q -62 917 -62 933 q -80 866 -62 885 q -124 847 -98 847 q -170 861 -147 847 q -203 888 -192 875 q -231 924 -215 901 l -246 944 q -296 981 -275 981 q -315 973 -308 981 q -322 950 -322 964 q -321 937 -322 941 q -279 893 -314 906 l -266 834 q -333 874 -304 846 q -369 936 -361 903 q -372 965 -372 953 q -355 1016 -372 997 q -309 1034 -337 1034 q -255 1015 -279 1034 q -202 958 -231 996 l -186 937 q -139 901 -157 901 q -120 910 -127 901 q -113 932 -113 918 l -113 945 z "},"":{"ha":0,"x_min":-576,"x_max":-401,"o":"m -472 955 q -504 1020 -482 998 q -563 1055 -526 1042 l -576 1114 q -420 953 -451 1085 q -401 836 -408 896 l -452 836 q -472 955 -468 938 z "},"":{"ha":0,"x_min":296,"x_max":505,"o":"m 505 -349 l 483 -398 l 296 -257 l 417 -116 l 463 -165 l 373 -255 l 505 -349 z "},"":{"ha":0,"x_min":-54,"x_max":146,"o":"m 90 -239 q 54 -120 90 -239 l 106 -120 q 140 -237 125 -174 q 146 -289 146 -264 q 59 -398 146 -376 l 45 -339 q 82 -315 70 -330 q 94 -275 94 -300 q 90 -239 94 -258 m 4 -279 q -31 -263 -16 -279 q -52 -227 -47 -248 q -54 -212 -54 -220 q -45 -185 -54 -195 q -20 -174 -36 -174 q 16 -190 -1 -174 q 37 -227 32 -205 q 38 -241 38 -231 q 29 -268 38 -258 q 4 -279 20 -279 z "},"":{"ha":0,"x_min":-253,"x_max":-151,"o":"m -195 956 q -161 836 -195 956 l -212 836 q -246 954 -233 896 q -253 1005 -253 985 q -164 1114 -253 1092 l -151 1055 q -188 1031 -176 1046 q -200 991 -200 1016 q -195 956 -200 975 z "},"":{"ha":0,"x_min":-26,"x_max":75,"o":"m 31 954 q 66 835 31 954 l 15 835 q -20 952 -6 895 q -26 1004 -26 984 q 62 1113 -26 1090 l 75 1054 q 39 1029 51 1044 q 26 989 26 1015 q 31 954 26 974 z "},"":{"ha":0,"x_min":-317,"x_max":-83,"o":"m -260 954 q -224 835 -260 954 l -276 835 q -310 952 -295 888 q -317 1004 -317 979 q -229 1113 -317 1090 l -215 1054 q -252 1029 -240 1044 q -264 989 -264 1015 q -260 954 -264 978 m -127 955 l -92 835 l -144 835 q -151 858 -144 838 q -165 905 -157 878 q -178 952 -173 932 q -184 1004 -184 984 q -96 1114 -184 1090 l -83 1054 q -132 989 -132 1036 q -127 955 -132 977 z "},"":{"ha":0,"x_min":-503,"x_max":32,"o":"m 28 1019 q 32 984 32 1001 q 9 916 32 943 q -54 889 -14 889 q -123 913 -90 889 l -188 813 l -299 913 q -357 889 -319 889 q -446 927 -406 889 q -498 1019 -486 966 q -503 1055 -503 1038 q -480 1123 -503 1096 q -418 1150 -458 1150 q -329 1112 -369 1150 q -276 1019 -288 1074 q -272 986 -272 1001 q -279 946 -272 964 l -203 878 l -157 946 q -195 1019 -185 978 q -199 1056 -199 1039 q -176 1124 -199 1097 q -114 1150 -154 1150 q -24 1111 -64 1150 q 28 1019 16 1072 m -368 935 q -329 952 -342 935 q -315 995 -315 968 q -318 1019 -315 1008 q -351 1079 -326 1054 q -407 1103 -376 1103 q -446 1086 -432 1103 q -459 1044 -459 1069 q -456 1019 -459 1030 q -424 960 -448 985 q -368 935 -399 935 m -103 1103 q -142 1087 -128 1103 q -155 1044 -155 1070 q -153 1019 -155 1030 q -120 960 -144 985 q -64 935 -95 935 q -25 952 -39 935 q -12 995 -12 969 q -14 1019 -12 1008 q -47 1079 -22 1054 q -103 1103 -72 1103 z "},"":{"ha":0,"x_min":-79,"x_max":152,"o":"m 17 1103 q -22 1087 -8 1103 q -35 1044 -35 1070 q -33 1019 -35 1030 q 0 960 -24 985 q 56 935 25 935 q 95 952 81 935 q 109 995 109 969 q 106 1019 109 1008 q 73 1079 98 1054 q 17 1103 48 1103 m -13 921 q -75 1019 -61 962 q -79 1056 -79 1039 q -56 1124 -79 1097 q 6 1150 -34 1150 q 96 1111 56 1150 q 148 1019 136 1072 q 152 984 152 1001 q 129 916 152 943 q 66 889 106 889 q 26 898 54 889 l 4 799 l -41 825 l -13 921 z "},"":{"ha":0,"x_min":-299,"x_max":-106,"o":"m -115 1052 q -106 989 -106 1019 q -173 909 -106 909 q -205 913 -186 909 l -188 839 l -237 839 l -299 1109 l -250 1109 l -216 965 q -195 963 -210 963 q -158 1006 -158 963 q -164 1051 -158 1025 q -180 1107 -168 1070 l -131 1107 q -115 1052 -122 1084 z "},"":{"ha":0,"x_min":-73,"x_max":151,"o":"m 142 -168 q 151 -233 151 -203 q 145 -274 151 -257 q 129 -299 139 -291 q 112 -311 118 -308 q 98 -315 106 -313 l 118 -404 l 68 -404 l 48 -315 q -22 -271 4 -306 q -63 -174 -49 -235 l -73 -118 l -24 -118 q -16 -164 -23 -134 q 60 -262 6 -262 q 100 -215 100 -262 q 94 -168 100 -194 q 79 -118 89 -146 l 128 -118 l 142 -168 z "},"":{"ha":0,"x_min":-3,"x_max":175,"o":"m 175 -388 l 11 -388 l -3 -330 l 112 -330 l 64 -124 l 114 -124 l 175 -388 z "},"":{"ha":0,"x_min":-38,"x_max":172,"o":"m 172 -349 l 149 -398 l -38 -257 l 83 -116 l 129 -165 l 39 -255 l 172 -349 z "},"":{"ha":0,"x_min":-15,"x_max":86,"o":"m 29 -237 q -5 -118 29 -237 l 45 -118 q 79 -236 70 -194 q 86 -288 86 -263 q 0 -396 86 -375 l -15 -338 q 22 -312 9 -327 q 34 -273 34 -298 q 29 -237 34 -256 z "},"":{"ha":0,"x_min":-82,"x_max":151,"o":"m -39 -239 q -73 -120 -39 -239 l -22 -120 q 12 -238 -1 -182 q 18 -291 18 -265 q -68 -398 18 -376 l -82 -340 q -46 -315 -58 -330 q -35 -275 -35 -300 q -39 -239 -35 -259 m 95 -240 l 60 -121 l 111 -121 q 144 -239 134 -191 q 151 -291 151 -266 q 64 -398 151 -376 l 51 -340 q 87 -315 75 -330 q 100 -275 100 -300 q 95 -240 100 -259 z "},"":{"ha":0,"x_min":-24,"x_max":142,"o":"m 78 -168 q 51 -175 60 -172 q 34 -185 42 -178 q 25 -204 25 -193 q 26 -214 25 -208 q 50 -223 27 -216 q 98 -242 73 -230 q 131 -271 124 -255 q 138 -293 136 -283 q 142 -325 142 -311 q 116 -376 142 -359 q 30 -402 90 -393 l 17 -347 q 42 -341 27 -345 q 64 -337 57 -338 q 79 -332 71 -335 q 90 -323 87 -328 q 93 -309 93 -317 l 93 -296 q 69 -287 92 -294 q 20 -268 46 -281 q -14 -239 -7 -256 q -20 -218 -17 -231 q -24 -184 -24 -199 q 0 -134 -24 -150 q 81 -110 25 -119 l 93 -165 q 88 -166 91 -166 q 83 -168 85 -167 l 78 -168 z "},"":{"ha":0,"x_min":-351,"x_max":-176,"o":"m -247 954 q -278 1019 -256 997 q -338 1053 -300 1041 l -351 1112 q -195 951 -226 1084 q -176 834 -184 902 l -227 834 q -247 954 -243 937 z "},"":{"ha":0,"x_min":-623,"x_max":-340,"o":"m -488 935 q -449 952 -463 935 q -435 995 -435 968 q -438 1019 -435 1008 q -471 1079 -446 1054 q -527 1103 -496 1103 q -566 1086 -552 1103 q -579 1044 -579 1069 q -576 1019 -579 1030 q -544 960 -568 985 q -488 935 -519 935 m -538 1150 q -449 1112 -489 1150 q -396 1019 -408 1074 q -392 987 -392 1003 q -413 921 -392 949 l -340 825 l -373 799 l -441 898 q -477 889 -464 889 q -566 927 -526 889 q -618 1019 -606 966 q -623 1055 -623 1038 q -600 1123 -623 1096 q -538 1150 -578 1150 z "},"":{"ha":0,"x_min":-73,"x_max":151,"o":"m 142 -169 q 151 -233 151 -206 q 145 -275 151 -258 q 129 -300 140 -292 q 113 -311 118 -309 q 98 -316 107 -313 l 119 -404 l 69 -404 l 49 -316 q -63 -174 -34 -299 l -73 -119 l -24 -119 q -16 -165 -22 -140 q 60 -262 6 -262 q 100 -216 100 -262 q 94 -169 100 -197 q 79 -119 89 -146 l 128 -119 q 135 -142 130 -127 q 142 -169 140 -158 z "},"":{"ha":0,"x_min":-282,"x_max":-73,"o":"m -73 878 l -96 829 l -282 970 l -161 1112 l -116 1063 l -205 972 l -73 878 z "},"":{"ha":0,"x_min":-283,"x_max":-100,"o":"m -100 816 l -270 816 l -283 873 l -162 873 l -210 1080 l -161 1080 l -100 816 z "},"":{"ha":0,"x_min":300,"x_max":475,"o":"m 371 -241 q 403 -307 381 -284 q 462 -341 425 -329 l 475 -400 q 319 -239 351 -372 q 300 -122 303 -165 l 351 -122 q 371 -241 367 -224 z "},"":{"ha":0,"x_min":-696,"x_max":-387,"o":"m -437 944 q -477 987 -444 972 l -490 1047 q -429 1010 -460 1038 q -391 945 -399 982 q -387 916 -387 932 q -405 865 -387 884 q -449 846 -422 846 q -494 860 -472 846 q -528 887 -517 873 q -556 922 -540 900 l -572 943 q -621 980 -598 980 q -640 971 -633 980 q -647 949 -647 963 q -645 935 -647 943 q -604 892 -637 904 l -591 833 q -657 873 -629 845 q -693 935 -686 901 q -696 963 -696 951 q -679 1014 -696 995 q -634 1033 -662 1033 q -579 1014 -604 1033 q -527 957 -555 995 l -511 936 q -463 900 -482 900 q -444 908 -451 900 q -437 931 -437 917 l -437 944 z "},"":{"ha":0,"x_min":-352,"x_max":-119,"o":"m -205 886 q -293 924 -252 886 q -348 1018 -335 963 q -352 1052 -352 1035 q -329 1122 -352 1094 q -266 1150 -305 1150 q -177 1112 -220 1150 q -123 1018 -135 1074 q -119 986 -119 1000 q -142 915 -119 943 q -205 886 -166 886 m -257 1114 q -299 1096 -283 1114 q -315 1046 -315 1077 q -312 1019 -315 1031 q -274 949 -302 977 q -213 922 -245 922 q -172 940 -187 922 q -157 990 -157 959 q -160 1017 -157 998 q -198 1087 -170 1060 q -257 1114 -226 1114 z "},"":{"ha":0,"x_min":-98,"x_max":41,"o":"m 4 -398 q -34 -382 -17 -398 q -56 -342 -51 -366 q -58 -326 -58 -334 q -48 -297 -58 -308 q -22 -287 -38 -287 q 16 -303 -1 -287 q 39 -342 33 -319 q 41 -358 41 -351 q 31 -387 41 -376 q 4 -398 20 -398 m -36 -226 q -74 -210 -57 -226 q -96 -170 -91 -194 q -98 -155 -98 -162 q -88 -125 -98 -136 q -62 -115 -78 -115 q -23 -131 -41 -115 q 0 -170 -5 -146 q 2 -185 2 -178 q -8 -215 2 -203 q -36 -226 -19 -226 z "},"":{"ha":0,"x_min":-168,"x_max":288,"o":"m 252 -398 q 214 -382 231 -398 q 191 -342 197 -366 q 189 -326 189 -334 q 199 -297 189 -308 q 226 -287 210 -287 q 263 -303 246 -287 q 286 -342 280 -319 q 288 -359 288 -351 q 278 -387 288 -376 q 252 -398 268 -398 m 212 -226 q 174 -210 191 -226 q 151 -170 157 -194 q 149 -155 149 -162 q 159 -125 149 -136 q 186 -115 170 -115 q 223 -131 206 -115 q 245 -170 240 -146 q 248 -186 248 -179 q 238 -215 248 -204 q 212 -226 228 -226 m 28 -115 q 66 -131 49 -115 q 88 -170 83 -146 q 90 -186 90 -179 q 80 -215 90 -204 q 54 -226 71 -226 q 16 -210 33 -226 q -6 -170 -1 -194 q -8 -155 -8 -162 q 2 -125 -8 -136 q 28 -115 12 -115 m -12 -287 q 26 -303 9 -287 q 48 -342 43 -319 q 50 -359 50 -351 q 40 -387 50 -376 q 14 -398 31 -398 q -24 -382 -7 -398 q -46 -342 -41 -366 q -48 -326 -48 -334 q -38 -297 -48 -308 q -12 -287 -28 -287 m -132 -115 q -94 -131 -111 -115 q -72 -170 -77 -146 q -70 -186 -70 -178 q -80 -215 -70 -204 q -106 -226 -90 -226 q -144 -210 -127 -226 q -166 -170 -161 -194 q -168 -154 -168 -161 q -158 -125 -168 -136 q -132 -115 -149 -115 z "},"":{"ha":0,"x_min":-148,"x_max":265,"o":"m 68 -195 l -134 -195 l -148 -132 l 54 -132 l 68 -195 m 229 -398 q 191 -382 208 -398 q 169 -342 174 -366 q 167 -326 167 -334 q 177 -297 167 -308 q 203 -287 186 -287 q 241 -303 224 -287 q 263 -342 258 -319 q 265 -358 265 -351 q 255 -387 265 -376 q 229 -398 245 -398 m 189 -226 q 151 -210 168 -226 q 129 -170 134 -194 q 127 -154 127 -161 q 137 -125 127 -136 q 163 -115 146 -115 q 201 -131 184 -115 q 223 -170 218 -146 q 225 -186 225 -178 q 215 -215 225 -204 q 189 -226 205 -226 z "},"":{"ha":0,"x_min":-152,"x_max":260,"o":"m -52 -195 l -138 -195 l -152 -132 l 49 -132 l 63 -195 l -24 -195 l -18 -218 l -18 -220 q 5 -278 -10 -253 l 43 -339 q 23 -396 37 -378 q -5 -396 9 -400 q -14 -390 -9 -393 q -21 -382 -18 -387 q -26 -376 -24 -378 q -32 -368 -28 -373 q -37 -360 -35 -362 q -42 -351 -38 -357 q -47 -342 -45 -344 l -41 -278 q -40 -270 -40 -276 q -47 -221 -40 -255 l -47 -218 q -52 -195 -50 -203 m 224 -398 q 186 -382 203 -398 q 164 -342 170 -366 q 162 -326 162 -334 q 172 -297 162 -308 q 198 -287 182 -287 q 236 -303 219 -287 q 258 -342 253 -319 q 260 -358 260 -351 q 250 -387 260 -376 q 224 -398 240 -398 m 184 -226 q 146 -210 163 -226 q 124 -170 130 -194 q 122 -154 122 -161 q 132 -125 122 -136 q 158 -115 142 -115 q 196 -131 179 -115 q 218 -170 213 -146 q 220 -186 220 -178 q 210 -215 220 -204 q 184 -226 200 -226 z "},"":{"ha":0,"x_min":-192,"x_max":-93,"o":"m -130 -226 q -168 -210 -151 -226 q -190 -170 -184 -194 q -192 -155 -192 -162 q -182 -125 -192 -136 q -155 -115 -172 -115 q -117 -131 -134 -115 q -95 -170 -100 -146 q -93 -186 -93 -178 q -103 -215 -93 -204 q -130 -226 -113 -226 z "},"":{"ha":0,"x_min":-83,"x_max":162,"o":"m 160 -170 q 162 -186 162 -178 q 152 -215 162 -204 q 125 -226 142 -226 q 87 -210 104 -226 q 65 -170 71 -194 q 63 -155 63 -162 q 73 -125 63 -136 q 100 -115 83 -115 q 138 -131 121 -115 q 160 -170 155 -146 m 14 -170 q 16 -186 16 -178 q 5 -215 16 -204 q -21 -226 -5 -226 q -59 -210 -42 -226 q -81 -170 -76 -194 q -83 -155 -83 -162 q -73 -125 -83 -136 q -47 -115 -63 -115 q -9 -131 -26 -115 q 14 -170 8 -146 z "},"":{"ha":0,"x_min":-90,"x_max":169,"o":"m 106 -115 q 144 -131 127 -115 q 167 -170 161 -146 q 169 -186 169 -178 q 159 -215 169 -204 q 132 -226 149 -226 q 94 -210 111 -226 q 72 -170 77 -194 q 70 -155 70 -162 q 80 -125 70 -136 q 106 -115 90 -115 m 64 -280 q 102 -296 85 -280 q 125 -336 119 -312 q 127 -352 127 -345 q 117 -381 127 -370 q 90 -391 106 -391 q 52 -375 69 -391 q 30 -336 35 -359 q 28 -320 28 -328 q 38 -291 28 -302 q 64 -280 48 -280 m -54 -115 q -16 -131 -33 -115 q 7 -170 1 -146 q 9 -186 9 -178 q -1 -215 9 -204 q -28 -226 -12 -226 q -66 -210 -49 -226 q -88 -170 -83 -194 q -90 -155 -90 -162 q -80 -125 -90 -136 q -54 -115 -70 -115 z "},"":{"ha":0,"x_min":-71,"x_max":146,"o":"m 146 -195 l -57 -195 l -71 -132 l 132 -132 l 146 -195 z "},"":{"ha":0,"x_min":-70,"x_max":146,"o":"m 31 -195 l -56 -195 l -70 -132 l 132 -132 l 146 -195 l 59 -195 l 64 -218 q 65 -220 65 -219 q 87 -278 72 -251 l 125 -339 q 105 -397 121 -377 q 77 -396 91 -400 q 31 -339 54 -380 l 41 -278 q 42 -268 42 -275 q 37 -221 42 -248 q 37 -219 37 -221 q 31 -195 37 -219 z "},"":{"ha":0,"x_min":-410,"x_max":-311,"o":"m -347 829 q -385 845 -368 829 q -408 884 -402 861 q -410 900 -410 892 q -399 929 -410 918 q -373 940 -389 940 q -335 924 -352 940 q -313 884 -318 908 q -311 869 -311 876 q -321 840 -311 850 q -347 829 -331 829 z "},"":{"ha":0,"x_min":-410,"x_max":-311,"o":"m -347 829 q -385 845 -368 829 q -408 884 -402 861 q -410 900 -410 892 q -399 929 -410 918 q -373 940 -389 940 q -335 924 -352 940 q -313 884 -318 908 q -311 869 -311 876 q -321 840 -311 850 q -347 829 -331 829 z "},"":{"ha":0,"x_min":-117,"x_max":235,"o":"m -56 -219 q -93 -203 -76 -219 q -115 -165 -109 -188 q -117 -151 -117 -157 q -107 -122 -117 -133 q -81 -111 -98 -111 q -45 -127 -61 -111 q -23 -165 -28 -142 q -21 -181 -21 -174 q -31 -209 -21 -198 q -56 -219 -41 -219 m 199 -401 q 163 -385 179 -401 q 141 -347 146 -370 q 139 -332 139 -339 q 149 -304 139 -315 q 174 -293 158 -293 q 211 -309 195 -293 q 233 -347 227 -324 q 235 -363 235 -355 q 225 -390 235 -380 q 199 -401 215 -401 m 72 -310 q 36 -294 52 -310 q 14 -256 19 -279 q 12 -241 12 -248 q 21 -213 12 -224 q 47 -202 31 -202 q 83 -218 67 -202 q 105 -256 100 -233 q 107 -272 107 -264 q 97 -299 107 -289 q 72 -310 87 -310 z "},"":{"ha":0,"x_min":-131,"x_max":-32,"o":"m -68 296 q -106 312 -90 296 q -129 352 -123 328 q -131 368 -131 360 q -121 397 -131 386 q -94 408 -111 408 q -56 392 -73 408 q -34 352 -39 376 q -32 336 -32 344 q -42 307 -32 318 q -68 296 -52 296 z "},"":{"ha":0,"x_min":-73,"x_max":37,"o":"m 37 -388 l -12 -388 l -73 -123 l -24 -123 l 37 -388 z "},"":{"ha":428,"x_min":-113,"x_max":237,"o":"m 193 712 q 222 704 210 712 q 237 682 235 696 q 235 654 241 668 q 220 606 231 632 q 195 562 210 579 l -62 562 q -96 574 -83 562 q -113 602 -109 586 q -113 620 -116 616 q -107 650 -111 635 q -99 673 -102 665 q -87 695 -96 681 q -78 712 -79 709 l 193 712 z "},"":{"ha":0,"x_min":-338,"x_max":-60,"o":"m -60 830 l -323 830 l -338 894 l -75 894 l -60 830 z "},"":{"ha":399,"x_min":-52,"x_max":250,"o":"m 250 -111 l 166 -111 l -52 834 l 31 834 l 250 -111 z "},"":{"ha":0,"x_min":9,"x_max":109,"o":"m 72 829 q 34 845 51 829 q 12 884 17 861 q 9 900 9 892 q 20 929 9 918 q 46 940 30 940 q 84 924 67 940 q 106 884 101 908 q 109 869 109 876 q 98 840 109 850 q 72 829 88 829 z "},"":{"ha":0,"x_min":-538,"x_max":-439,"o":"m -476 829 q -514 845 -497 829 q -536 884 -531 861 q -538 900 -538 892 q -528 929 -538 918 q -502 940 -518 940 q -464 924 -481 940 q -441 884 -447 908 q -439 869 -439 876 q -450 840 -439 850 q -476 829 -460 829 z "},"":{"ha":332,"x_min":-71,"x_max":209,"o":"m -19 660 q 48 609 18 629 q 90 583 79 589 q 102 572 100 578 q 102 564 103 566 l 81 509 l 63 453 q 58 450 61 450 q 0 479 43 450 q -68 531 -43 508 q -71 544 -75 537 q -31 658 -46 624 q -19 660 -28 665 m 88 198 q 155 147 125 166 q 196 122 185 127 q 208 111 207 116 q 209 102 210 107 l 188 47 l 170 -9 q 164 -12 168 -12 q 107 17 150 -12 q 38 69 64 46 q 35 82 33 74 q 75 196 58 155 q 88 198 78 203 z "},"":{"ha":0,"x_min":-378,"x_max":-197,"o":"m -197 1242 l -262 1135 l -378 1244 l -315 1354 l -197 1242 z "},"":{"ha":0,"x_min":32,"x_max":212,"o":"m 212 -533 l 148 -640 l 32 -530 l 94 -420 l 212 -533 z "},"":{"ha":441,"x_min":-64,"x_max":388,"o":"m -53 738 q 73 720 18 720 q 190 757 150 720 q 210 626 210 673 q 205 575 210 601 q 190 576 200 576 q 102 534 137 576 q 129 350 103 456 q 155 167 154 243 q 231 133 193 145 q 330 118 269 120 q 388 9 388 63 q 378 -37 388 -12 q 84 52 193 -5 q 34 136 43 94 l 34 152 l 34 182 q 39 278 34 214 q 45 387 45 341 q 34 488 34 452 q 41 560 34 506 q 14 557 30 557 q -50 571 -10 557 q -58 624 -52 586 q -64 682 -64 661 q -53 738 -64 713 z "},"":{"ha":0,"x_min":-72,"x_max":144,"o":"m 28 -189 l -57 -189 l -72 -125 l 129 -125 l 144 -189 l 60 -189 l 66 -217 q 67 -220 66 -218 q 96 -312 82 -289 l 134 -373 q 114 -431 129 -412 q 83 -430 97 -434 q 40 -373 60 -414 l 50 -312 q 50 -310 50 -311 q 50 -307 50 -309 q 44 -263 50 -294 q 35 -221 38 -231 l 35 -218 q 28 -189 30 -198 z "},"":{"ha":756,"x_min":15,"x_max":680,"o":"m 469 311 q 563 231 521 262 q 680 149 606 199 q 680 121 680 140 q 677 61 680 92 q 671 12 675 29 q 667 -6 668 -6 q 418 199 521 104 q 220 403 315 294 l 214 410 q 203 422 208 418 q 189 433 199 427 q 169 441 180 439 q 130 415 146 441 q 113 349 113 389 q 118 303 113 325 q 157 234 127 264 q 218 190 186 203 q 276 176 250 176 q 328 195 303 176 q 335 106 332 146 q 338 50 337 66 l 338 35 q 270 23 304 35 q 217 1 236 12 q 161 -33 197 -10 l 140 -3 q 142 17 140 7 q 145 34 144 28 q 152 52 146 41 q 158 66 157 63 q 166 82 159 68 q 173 96 173 95 q 98 174 132 127 q 55 260 64 220 q 43 361 43 313 q 87 561 43 452 l 15 627 l 83 741 q 215 565 138 651 q 399 374 292 479 q 442 471 442 413 q 437 515 442 488 q 359 612 422 575 q 395 762 375 712 q 569 640 462 694 q 526 520 559 554 l 492 526 q 504 431 504 477 q 469 311 504 350 z "},"":{"ha":675,"x_min":-20,"x_max":621,"o":"m 438 142 l 357 490 q 338 531 353 510 q 299 562 323 553 l 41 562 l 4 629 l -20 648 q 17 773 -18 729 q 149 707 93 707 l 196 707 q 302 713 261 707 q 341 704 323 713 q 373 674 359 694 q 398 631 387 653 q 420 573 410 609 q 438 510 431 538 q 455 439 446 482 q 459 420 456 433 q 465 400 463 407 q 486 309 478 342 q 510 235 494 277 q 543 164 525 194 l 617 178 q 621 92 621 98 q 611 8 621 43 q 467 -16 578 3 q 275 -43 355 -35 q 101 -51 194 -51 q 92 34 92 -9 q 96 104 92 64 q 139 102 116 102 q 438 142 233 102 z "},"":{"ha":456,"x_min":-24,"x_max":422,"o":"m 82 712 q 106 706 90 710 q 134 699 123 702 q 160 691 145 696 q 186 680 176 686 q 208 666 197 674 q 226 646 219 657 q 237 620 233 634 q 238 610 238 613 q 235 586 238 600 q 228 563 231 571 q 218 534 225 554 q 210 513 210 515 q 209 499 209 508 q 213 464 209 480 q 227 423 216 449 q 241 389 238 397 q 260 350 248 376 q 281 310 273 324 q 300 276 288 296 q 321 244 312 256 q 343 222 331 233 q 368 208 356 212 q 391 180 381 199 q 405 148 401 161 q 414 112 408 134 q 422 51 422 73 q 419 5 422 35 q 407 -16 411 -9 q 397 -28 402 -22 q 391 -35 392 -34 q 293 83 340 42 q 206 123 245 123 q 174 117 189 123 q 151 103 160 111 q 132 78 142 96 q 116 48 121 60 q 99 9 110 35 q 81 -33 87 -18 l 54 -7 q 41 86 41 50 q 82 197 41 157 q 217 265 123 237 q 176 346 197 296 q 147 428 155 395 q 126 559 130 503 q 92 565 117 561 q 46 573 66 568 q -3 589 25 578 l -18 652 l -24 679 q -8 728 -20 709 q 26 765 4 747 q 47 741 27 760 q 82 712 67 722 z "},"":{"ha":627,"x_min":-84,"x_max":501,"o":"m 290 570 q 124 561 229 561 q -25 574 7 561 l -61 640 l -84 659 q -45 773 -82 726 q -24 751 -41 770 q 9 723 -7 732 q 51 709 25 714 q 80 706 66 708 q 100 704 95 705 q 117 703 106 703 q 150 703 129 703 q 392 716 296 703 q 456 578 439 656 q 401 541 422 570 q 380 481 380 513 q 382 465 380 473 q 437 321 391 427 q 495 165 484 216 q 501 117 501 136 l 501 112 q 465 -15 501 60 l 445 0 q 399 170 422 100 q 334 327 376 241 q 320 371 332 335 q 306 413 307 406 q 295 460 300 442 q 286 530 286 497 q 290 570 286 553 z "},"":{"ha":745,"x_min":-20,"x_max":649,"o":"m 256 152 q 227 -24 243 17 l 191 -8 q 125 182 141 117 q 112 298 112 241 q 166 506 112 421 q 166 454 166 493 q 168 400 167 416 q 171 359 168 385 q 178 313 173 334 l 182 297 q 208 215 193 246 q 256 152 222 183 m 443 576 q 271 564 365 564 q 156 570 233 564 q 41 576 79 576 l 3 646 l -20 665 q 18 779 -18 731 q 37 761 22 775 q 62 739 53 746 q 89 723 71 732 q 126 711 106 714 q 294 694 205 694 q 494 712 369 694 q 559 581 545 645 q 523 506 523 551 q 528 470 523 491 q 584 322 536 432 q 643 161 631 212 q 649 113 649 137 l 649 106 q 612 -19 649 52 l 593 -5 q 544 150 591 1 q 463 373 496 300 q 453 418 457 399 q 438 522 438 479 q 443 576 438 549 z "},"":{"ha":339,"x_min":-93,"x_max":262,"o":"m 211 42 q 149 283 202 79 q 92 507 96 487 q 83 534 87 524 q 68 552 79 543 q 41 561 58 561 l -30 561 l -69 639 l -93 658 q -54 772 -92 723 q -34 750 -49 767 q -3 724 -18 732 q 37 710 12 715 l 48 708 q 92 689 71 708 q 127 643 113 670 q 157 569 142 616 q 182 486 172 523 q 204 393 191 450 q 220 325 216 340 l 262 138 l 262 100 q 243 -14 262 24 l 211 42 z "},"":{"ha":351,"x_min":-93,"x_max":224,"o":"m -83 791 q -29 751 -56 769 q 15 721 -3 732 q 59 697 33 709 q 96 679 84 684 q 135 662 107 674 q 174 646 163 650 q 191 595 186 622 q 199 525 199 563 q 197 486 199 511 l 90 532 q 78 534 83 534 q 65 521 68 534 q 84 466 71 497 q 101 423 98 435 q 161 302 120 376 q 217 164 203 228 q 224 122 224 136 q 222 104 224 119 q 221 72 221 89 l 197 -14 q 165 52 180 22 q 135 110 150 81 q 112 155 121 138 q 87 200 102 172 q 65 238 71 227 q 39 282 58 250 q 12 328 20 315 q 10 338 12 330 q 7 351 8 346 q 2 409 2 374 q 14 553 2 441 q 5 569 14 564 q -15 579 -3 573 q -34 589 -28 586 q -48 598 -39 592 q -64 610 -56 604 q -81 627 -72 617 q -93 715 -93 677 q -83 791 -93 749 z "},"":{"ha":774,"x_min":-24,"x_max":676,"o":"m 75 551 l 101 574 q 67 576 90 574 q 37 578 45 578 l 0 646 l -24 665 q 15 779 -22 731 l 24 770 q 35 761 34 762 q 45 752 37 760 q 58 744 54 745 q 71 736 62 742 q 87 729 80 731 q 103 724 94 726 q 123 719 113 721 q 325 700 215 700 q 526 716 410 700 q 590 578 572 656 q 553 503 553 549 q 558 467 553 488 q 612 336 567 429 q 669 193 658 243 q 676 144 676 165 l 676 138 q 667 55 676 104 q 641 -26 657 6 l 622 -12 l 600 83 q 517 336 569 218 q 505 375 515 345 q 493 410 494 404 q 487 439 491 420 q 480 467 482 458 q 470 538 470 511 q 473 574 470 553 q 302 562 395 562 q 250 565 287 562 q 192 568 212 568 q 156 484 156 539 q 161 445 156 467 q 202 304 170 406 q 245 153 234 203 q 252 105 252 124 l 252 101 q 210 -26 252 59 l 190 -12 q 169 88 180 29 q 151 170 157 146 q 96 348 125 283 l 85 393 q 71 498 71 460 q 75 551 71 525 z "},"":{"ha":734,"x_min":-72,"x_max":602,"o":"m 119 533 q 124 499 119 519 q 174 359 136 447 q 245 210 212 272 q 280 148 277 148 q 303 146 288 148 q 325 145 318 145 q 349 147 337 145 q 370 152 361 149 q 391 161 380 155 q 409 171 402 168 q 427 185 416 175 q 442 199 437 195 q 458 216 447 203 q 472 232 469 228 q 487 250 475 236 q 500 267 498 264 q 511 318 511 278 q 499 408 511 359 q 481 475 490 448 q 456 533 472 502 q 417 583 441 564 q 361 612 393 603 q 345 615 351 615 q 293 598 315 615 q 272 543 272 581 q 273 526 272 538 l 222 539 q 212 610 212 579 q 217 649 212 632 q 231 680 221 667 q 247 700 240 693 q 268 719 254 707 q 349 741 296 741 q 456 711 395 741 q 526 634 502 682 q 565 519 549 587 q 572 486 568 507 q 579 455 577 465 q 602 279 602 357 q 574 129 602 193 q 256 -12 473 12 q 143 188 198 58 q 59 446 89 317 q 60 459 59 452 q 60 471 60 467 q 46 555 60 492 l -50 609 l -56 682 l -72 705 q -55 737 -66 716 q -37 771 -45 758 q -20 796 -28 785 q 60 717 -5 761 q 116 688 97 705 q 142 639 134 671 q 144 619 144 629 q 119 533 144 585 z "},"":{"ha":333,"x_min":-106,"x_max":175,"o":"m -46 578 l -84 636 l -106 656 q -73 781 -104 740 q -52 762 -70 779 q -24 738 -34 745 q 5 720 -14 730 q 45 706 25 709 q 61 701 52 704 q 73 698 71 699 q 82 694 75 697 q 96 686 90 690 q 116 671 102 681 q 147 632 136 656 q 165 570 157 607 q 175 511 175 534 q 164 323 175 444 l 116 342 q 105 403 111 366 q 97 454 100 440 q 92 479 95 462 q 87 504 90 496 q 52 558 79 539 q -46 578 24 578 z "},"":{"ha":616,"x_min":-77,"x_max":546,"o":"m 12 715 q 180 699 91 699 q 380 715 267 699 q 446 577 427 656 q 396 494 396 538 q 399 473 396 483 q 418 340 402 411 q 469 175 433 279 q 518 18 506 70 q 530 -47 528 -25 q 540 -103 537 -77 q 546 -151 546 -127 l 546 -159 q 510 -283 546 -212 l 490 -269 q 474 -167 484 -214 q 454 -87 464 -122 q 428 -2 445 -52 q 402 77 412 48 q 361 192 392 106 q 311 332 330 279 l 300 378 q 294 431 294 403 q 311 573 294 481 q 157 561 233 561 q 107 566 139 563 q 58 572 75 570 q 16 578 42 574 q -35 590 -9 583 l -54 634 l -77 653 q -39 767 -75 720 q -30 753 -37 766 q -12 729 -22 740 q 12 715 -1 718 z "},"":{"ha":646,"x_min":-55,"x_max":542,"o":"m 394 619 q 432 534 404 597 q 474 439 461 471 q 505 360 488 408 q 531 275 522 312 q 542 191 542 228 q 521 98 542 136 q 337 16 433 42 q 87 -11 241 -11 q 83 72 83 50 q 90 138 83 109 q 190 140 149 138 q 288 150 231 142 q 386 177 346 157 q 446 227 427 196 q 453 252 453 236 q 450 271 453 258 q 441 300 448 283 q 428 329 434 317 q 411 362 422 341 q 395 393 400 383 q 373 436 387 408 q 351 480 360 463 q 327 517 341 498 q 293 547 312 536 q 250 561 274 558 l 5 561 l -32 629 l -55 648 q -16 762 -53 714 q -1 748 -12 758 q 15 733 9 739 q 32 721 21 728 q 58 707 43 713 q 90 695 72 701 q 173 688 134 688 q 224 690 191 688 q 273 692 258 692 q 344 677 315 692 q 394 619 373 662 z "},"":{"ha":612,"x_min":-179,"x_max":457,"o":"m 290 188 q 301 217 290 193 q 323 272 311 241 q 345 361 334 302 q 356 488 355 420 q 356 491 356 489 q 355 494 355 492 q 354 498 354 496 q 327 545 348 524 q 290 567 307 567 l 45 567 q -70 686 -42 567 q -95 833 -87 761 l -95 842 q -93 886 -95 854 q -91 934 -91 918 q -94 972 -91 959 q -121 1000 -101 1000 q -149 995 -132 1000 q -168 1000 -159 995 q -179 1015 -176 1006 q -178 1031 -180 1024 l -109 1134 q -99 1137 -106 1137 q -73 1123 -83 1137 q -57 1074 -64 1103 q -42 930 -46 1027 q -30 800 -38 833 q -6 740 -22 766 q 32 713 9 713 q 182 711 66 713 q 336 709 299 709 q 383 687 363 704 q 457 559 439 636 q 408 355 454 499 q 358 180 361 210 q 358 170 357 174 q 372 148 361 157 q 398 136 383 139 q 405 79 405 106 q 389 -11 405 40 q 351 16 370 -3 q 321 48 331 35 q 311 63 311 62 q 304 84 310 66 q 296 115 298 102 q 289 170 289 141 q 290 188 289 182 z "},"":{"ha":775,"x_min":-54,"x_max":679,"o":"m 568 210 q 544 313 568 210 q 475 518 520 416 q 290 574 455 574 q 121 560 206 574 q 121 547 121 560 q 134 452 121 512 q 176 320 149 389 q 222 214 203 252 l 243 176 q 267 141 251 155 q 302 127 283 127 q 323 132 313 127 q 429 170 368 150 q 529 199 490 189 l 568 210 m 7 578 l -31 662 l -54 681 q -16 795 -53 746 q 8 770 -13 793 q 48 736 30 748 q 93 720 67 725 q 233 705 155 705 q 330 708 266 705 q 426 712 394 712 q 452 710 440 712 q 472 703 463 708 q 486 693 480 697 q 496 679 491 688 q 504 664 502 669 q 511 647 507 659 q 518 629 516 634 q 630 267 590 441 q 659 235 643 245 q 675 195 669 216 q 679 157 679 175 q 678 131 679 149 q 677 106 677 114 l 276 -38 q 223 -15 243 -38 q 186 79 203 8 q 94 361 122 239 q 73 509 73 451 q 76 544 73 530 q 81 564 79 559 l 83 568 l 51 568 q 35 571 45 568 q 17 575 25 573 q 7 578 8 578 z "},"":{"ha":738,"x_min":-12,"x_max":644,"o":"m 33 766 q 42 749 35 762 q 52 733 50 736 q 61 720 54 730 q 75 705 68 710 q 94 690 82 700 q 123 670 106 680 q 161 648 139 661 q 186 606 179 637 q 188 585 188 597 q 369 738 259 683 q 413 727 391 738 q 451 701 434 717 q 486 656 469 684 q 515 603 503 629 q 542 539 528 578 q 565 473 555 501 q 585 401 574 444 q 602 333 596 358 q 617 267 608 307 l 618 261 l 640 171 q 644 134 644 149 q 637 97 644 114 q 621 66 631 79 q 592 42 610 53 q 556 23 573 31 q 511 9 538 16 q 462 -2 484 2 q 407 -10 440 -6 q 351 -17 374 -14 q 292 -23 328 -19 q 234 -28 256 -26 q 212 18 217 -7 q 209 46 209 31 q 221 116 209 75 q 481 140 380 116 q 539 224 539 161 q 533 271 539 244 q 530 285 533 272 q 525 306 526 298 q 471 469 499 416 q 396 559 439 528 q 318 525 351 545 q 262 479 284 506 q 227 428 241 453 q 204 366 213 403 q 191 301 195 330 q 179 229 186 273 q 168 156 173 185 q 103 101 144 125 q 95 184 95 136 q 97 236 95 209 q 104 298 99 264 q 113 356 109 333 q 124 423 117 378 q 136 488 132 468 q 134 498 136 492 q 96 554 129 525 q -3 597 63 583 l 0 644 l 0 645 q -6 654 -1 648 q -12 663 -12 660 l -12 664 q 5 723 -3 704 q 33 766 14 741 z "},"":{"ha":311,"x_min":-96,"x_max":277,"o":"m 127 102 q 93 178 115 130 q 57 263 71 227 q 34 341 43 298 q 22 430 22 395 q 43 522 22 478 l -92 621 l -81 686 l -96 708 q -44 800 -90 763 q 16 720 -22 745 q 101 677 47 702 q 137 631 130 663 q 138 607 138 623 q 102 488 138 536 q 110 439 103 467 q 119 395 113 427 q 130 346 125 363 q 146 284 140 303 q 210 151 161 241 q 273 -7 258 60 q 277 -61 277 -28 q 239 -229 277 -157 q 209 -267 214 -252 q 209 -264 209 -267 q 208 -261 208 -262 q 210 -239 208 -258 q 211 -205 211 -220 q 201 -121 211 -161 q 185 -62 196 -97 q 165 -1 174 -27 q 143 60 155 26 q 127 102 130 94 z "},"":{"ha":413,"x_min":-49,"x_max":337,"o":"m 60 724 q 130 681 100 704 q 168 644 159 657 l 177 631 l 177 620 q 174 589 177 604 q 170 566 170 573 q 172 549 170 559 q 181 494 174 520 q 220 380 193 443 q 285 246 248 317 q 336 142 322 175 q 337 119 337 132 q 330 56 337 71 q 284 27 308 39 q 230 6 260 15 q 181 -8 200 -3 q 124 -20 161 -13 q 72 -31 86 -28 q 39 35 46 3 q 36 58 36 45 q 54 118 36 89 q 207 166 140 118 l 176 252 q 140 381 165 282 q 81 551 114 480 q 36 582 58 569 q 4 599 15 594 q -39 618 -6 604 l -34 669 l -49 691 q 6 785 -42 746 q 24 754 14 765 q 60 724 35 743 z "},"":{"ha":730,"x_min":-27,"x_max":610,"o":"m 393 558 q 155 547 317 547 q 138 519 144 538 q 132 481 132 500 q 134 465 132 473 q 154 385 145 413 q 182 314 163 357 q 233 229 201 271 q 316 136 266 186 q 464 192 400 136 q 543 328 528 248 q 500 430 532 374 q 436 521 467 486 q 393 558 406 556 m 95 701 q 193 696 138 696 q 324 701 244 696 q 415 705 404 705 q 524 557 481 633 q 594 368 568 481 q 610 257 610 300 q 608 225 610 241 q 603 186 606 210 q 597 146 600 163 q 564 97 583 119 q 518 57 545 75 q 472 27 492 39 q 418 -2 452 16 q 368 -28 385 -19 l 338 -24 q 177 167 244 60 q 85 375 109 274 q 75 446 77 416 l 75 450 q 91 499 75 462 q 111 549 108 536 q 20 568 70 555 l -3 621 l -27 640 q 12 754 -26 705 q 95 701 39 709 z "},"":{"ha":667,"x_min":-59,"x_max":486,"o":"m 56 513 q 28 522 43 518 q 7 528 14 526 q -14 542 0 531 q -47 572 -28 552 q -59 661 -59 624 q -41 743 -59 709 q 142 654 35 691 q 118 515 118 560 q 153 424 128 471 q 203 345 178 377 q 250 274 227 312 q 280 207 273 236 q 283 172 283 189 q 361 272 336 196 q 386 450 386 349 q 382 534 386 494 q 350 547 370 540 q 319 559 330 554 q 292 575 307 564 q 262 605 276 587 q 248 643 254 619 q 245 675 245 656 q 283 765 245 732 q 336 719 307 739 q 384 691 364 700 q 437 671 404 683 q 486 651 469 659 l 467 540 l 443 529 q 467 338 467 425 q 461 258 467 296 q 445 190 455 220 q 418 130 435 159 q 384 79 401 101 q 341 35 366 57 q 293 -3 315 13 q 239 -38 271 -20 q 183 -68 208 -56 q 123 -98 158 -81 q 85 7 94 -26 q 80 52 80 33 q 84 84 80 69 q 186 107 146 93 q 254 151 227 121 q 189 240 237 178 q 105 358 140 302 q 59 456 69 414 q 54 493 54 473 q 56 513 54 499 z "},"":{"ha":615,"x_min":-19,"x_max":626,"o":"m 67 803 q 81 782 73 792 q 94 765 88 772 q 110 751 100 759 q 125 739 120 743 q 142 727 130 735 q 157 716 153 719 q 224 697 180 706 q 306 675 267 688 q 371 639 345 662 q 416 579 394 620 q 455 494 438 538 q 493 377 473 449 q 526 252 513 305 q 559 113 539 198 l 625 -168 q 626 -189 626 -184 q 615 -235 626 -219 q 577 -259 604 -251 q 570 -210 576 -236 q 564 -182 568 -199 q 513 -26 553 -139 q 456 156 472 86 q 449 196 453 169 q 441 239 444 224 q 379 440 412 365 q 303 539 346 515 q 207 594 252 578 q 110 611 161 611 q 70 600 85 608 q 48 579 55 592 q 40 556 42 566 q 39 528 39 546 q 74 450 50 480 q 133 419 98 419 q 178 431 153 419 q 201 372 195 398 q 205 332 205 353 q 199 286 205 307 q 126 271 160 271 q 59 284 92 271 q 9 372 20 326 q 7 395 7 387 q 16 429 7 414 q -15 509 -10 487 q -19 541 -19 525 q 24 634 -19 591 l -3 679 q 67 803 13 787 z "},"":{"ha":666,"x_min":-19,"x_max":565,"o":"m 5 705 q 39 777 20 762 q 59 784 48 784 q 68 783 64 784 q 115 726 76 746 q 198 701 153 706 q 296 686 242 696 q 377 659 349 676 q 446 572 413 633 q 497 460 479 511 q 525 363 515 408 q 564 96 559 213 q 565 90 564 94 q 565 85 565 87 q 563 64 565 73 q 553 43 560 56 q 545 26 547 31 q 79 -27 427 -27 q 71 43 71 11 q 87 117 71 89 q 485 191 337 117 q 340 532 419 474 q 248 577 293 566 q 120 589 203 589 q 69 573 87 589 q 51 527 51 557 q 54 501 51 517 q 73 449 60 477 q 100 412 87 420 q 152 395 129 395 q 192 412 176 395 q 206 369 203 387 q 209 347 209 359 q 207 322 209 334 q 199 291 204 310 q 192 267 193 272 l 76 267 q 49 278 57 274 q 30 289 41 281 q 15 307 20 296 q 5 334 9 317 q 3 355 3 344 q 16 408 3 380 q -14 481 -7 452 q -19 517 -19 500 q -11 557 -19 537 q 3 585 -3 576 q 26 614 10 594 l 0 652 l 0 662 q 5 705 0 679 z "},"":{"ha":606,"x_min":-79,"x_max":433,"o":"m 144 667 q 144 642 144 658 q 142 595 144 614 q 133 555 139 576 q 125 526 127 535 q 113 531 113 528 q 115 519 115 522 q 117 512 116 516 q 119 498 117 507 q 122 488 120 495 q 125 477 123 480 q 143 418 134 439 q 174 383 153 396 q 200 491 176 437 q 265 575 224 545 l 211 629 l 211 638 q 270 777 211 766 q 318 725 302 742 q 369 682 335 707 q 433 645 403 656 q 427 608 431 635 q 417 561 422 581 q 402 517 412 541 q 387 523 399 517 q 369 529 375 529 q 355 530 365 529 q 342 530 346 530 q 318 524 327 530 q 271 493 288 511 q 241 446 253 476 q 215 347 215 386 q 222 294 215 322 q 242 223 231 254 q 274 148 254 191 q 307 69 293 104 q 321 23 311 53 q 334 -21 331 -7 q 346 -124 346 -72 q 304 -264 346 -223 q 290 -186 298 -225 q 174 197 229 76 q 45 562 86 381 q 20 574 42 563 q -8 590 -2 586 q -31 603 -15 593 q -58 622 -47 613 q -79 642 -69 631 q -79 658 -79 645 q -78 675 -78 671 q -76 691 -77 680 q -73 709 -75 703 q -68 726 -71 715 q -62 745 -66 736 q -52 766 -58 754 q -39 789 -47 777 q 10 752 -24 768 q 82 716 44 736 q 144 667 121 696 z "},"":{"ha":650,"x_min":-49,"x_max":497,"o":"m 324 325 q 341 314 330 321 q 379 285 351 307 q 428 243 406 264 q 470 194 450 222 q 496 142 491 166 q 497 138 496 141 q 497 132 497 134 q 491 98 497 113 q 470 71 484 82 q 442 52 455 60 q 405 38 429 45 q 366 29 380 32 q 323 20 351 26 q 302 16 309 18 q 88 -12 271 11 q 87 23 87 2 q 99 122 87 46 q 139 125 111 122 q 178 127 168 127 q 374 171 283 127 l 292 244 q 258 272 279 255 q 223 301 237 288 q 194 332 209 315 q 79 523 96 448 q 74 543 77 534 q 11 573 37 555 q -49 625 -15 590 q -48 640 -49 631 q -46 674 -48 650 q -41 719 -45 699 q -31 756 -38 738 q -16 778 -24 774 q 151 665 33 700 q 152 633 152 656 q 151 591 152 619 q 150 552 150 562 q 151 532 150 536 l 127 537 q 130 523 128 528 q 172 443 140 480 q 250 382 205 406 q 267 487 252 431 q 305 574 282 543 q 281 595 297 586 q 246 626 266 604 q 257 659 251 635 q 275 710 263 683 q 309 762 287 736 q 359 718 333 739 q 420 673 385 698 q 477 631 454 648 q 466 592 475 620 q 450 543 458 565 q 442 520 443 520 q 413 528 429 520 q 389 538 397 536 q 352 510 367 523 q 328 487 336 496 q 315 466 320 478 q 310 447 311 454 q 307 425 309 439 q 303 399 305 410 q 304 358 301 373 q 324 325 310 338 z "},"":{"ha":686,"x_min":-41,"x_max":548,"o":"m -16 776 q 203 702 31 702 q 233 702 203 702 q 428 718 321 702 q 491 607 462 677 q 536 471 520 537 q 548 365 548 420 q 541 285 548 323 q 474 248 503 270 q 425 196 445 225 q 392 138 405 166 q 366 72 378 110 q 347 90 357 74 q 332 125 336 105 q 329 143 330 132 q 335 176 331 162 q 346 206 338 189 q 354 225 353 222 l 478 399 q 471 418 477 402 q 462 439 465 433 q 453 461 459 446 q 442 484 446 476 q 430 506 437 492 q 417 528 423 519 q 402 546 410 536 q 386 563 394 555 q 131 545 220 563 l 180 330 q 256 121 199 246 q 330 -77 313 -3 q 334 -118 334 -97 q 330 -155 334 -136 q 321 -185 326 -173 q 304 -215 316 -197 q 289 -238 293 -232 q 270 -261 284 -244 q 255 -279 256 -278 q 222 -72 252 -199 q 155 180 203 12 q 90 421 106 348 q 87 442 87 431 q 102 511 87 469 q 117 555 117 553 q 81 565 106 558 q 43 575 56 571 q 10 588 30 579 q -28 608 -10 597 q -41 698 -41 670 q -16 776 -41 735 z "},"":{"ha":631,"x_min":-83,"x_max":555,"o":"m 380 468 q 375 479 380 470 q 370 492 371 489 q 364 505 368 496 q 357 517 360 513 q 351 528 355 521 q 342 539 347 535 q 334 547 338 543 q 323 555 329 552 q 312 561 318 559 l -22 561 l -60 629 l -83 648 q -47 774 -81 731 q -40 767 -46 773 q -32 760 -33 761 q -23 753 -30 758 q -14 745 -17 747 q -5 739 -12 743 q 6 732 2 734 q 17 727 10 730 q 31 721 24 723 q 45 717 37 720 q 61 713 53 715 l 314 713 q 376 686 347 713 q 429 611 406 659 q 470 509 452 564 q 504 387 488 454 l 535 254 q 555 107 555 168 q 524 4 555 32 l 492 15 q 498 66 498 39 q 486 159 498 105 q 380 468 452 304 z "},"":{"ha":898,"x_min":-50,"x_max":734,"o":"m 45 734 l 161 655 l 164 650 q 164 648 164 650 q 165 646 165 647 q 148 589 165 627 q 119 542 132 551 q 111 501 111 523 q 114 475 111 488 q 124 439 119 456 q 134 414 130 422 q 147 388 138 406 q 160 363 157 370 q 183 316 161 363 q 224 236 205 269 q 258 183 242 203 q 285 163 272 163 q 297 184 299 163 q 291 266 297 187 q 285 387 285 345 l 285 420 q 291 467 287 444 q 299 504 296 490 q 309 539 302 517 q 319 574 316 562 l 245 616 q 254 684 249 668 q 312 763 266 716 q 339 716 318 738 q 409 662 361 694 q 465 624 456 630 q 457 568 464 601 q 442 521 450 535 q 425 525 433 525 q 414 523 419 525 q 405 516 409 520 q 401 512 401 512 q 355 406 355 468 l 355 404 l 357 141 q 404 138 385 138 q 455 151 431 138 q 495 185 479 164 q 523 228 511 206 q 539 270 534 250 l 613 544 l 514 627 q 519 663 516 638 q 525 701 522 688 q 538 732 528 713 q 567 766 549 751 q 578 750 568 766 q 604 713 589 733 q 628 686 618 693 l 734 612 q 727 551 733 571 q 699 492 721 532 q 660 472 677 492 q 656 467 659 471 q 651 462 652 464 q 647 455 650 460 q 644 445 645 451 q 642 432 642 439 l 619 178 l 592 161 q 559 132 585 155 q 524 101 533 109 q 492 74 514 93 q 456 46 469 55 q 424 23 443 37 q 388 2 405 10 q 354 -14 371 -7 q 323 -20 342 -22 q 260 21 278 -20 l 76 399 l 71 423 q 61 481 61 463 q 63 494 61 490 q 63 503 63 496 q 64 511 64 509 q 61 537 64 526 q 45 571 56 556 l -48 628 q -50 650 -50 636 q -41 711 -50 683 q 10 793 -26 762 q 22 762 14 777 q 38 741 31 747 l 45 734 z "},"":{"ha":757,"x_min":7,"x_max":692,"o":"m 138 713 l 403 713 q 437 705 421 713 q 464 686 453 697 q 486 655 475 675 q 504 622 498 635 q 520 584 510 608 q 534 550 530 560 l 683 162 q 692 85 692 126 q 682 -7 692 46 l 635 28 q 625 85 630 66 q 603 162 616 121 q 568 255 590 203 q 533 339 547 307 q 490 436 519 371 q 450 523 460 501 q 387 561 423 561 l 242 561 q 220 551 231 561 q 203 526 209 542 q 187 433 187 477 q 196 361 187 399 q 276 184 214 282 l 309 184 l 339 54 q 235 -5 281 18 q 134 -43 188 -28 q 118 -10 129 -31 q 100 28 108 11 q 90 63 93 46 q 85 101 85 81 q 123 116 94 105 q 171 138 152 127 q 208 163 189 148 q 126 343 144 267 q 118 410 118 378 q 168 561 118 486 l 28 585 q 14 628 19 608 q 7 683 7 656 q 29 764 7 735 q 79 722 56 731 q 138 713 102 713 z "},"":{"ha":718,"x_min":-93,"x_max":613,"o":"m 211 42 q 149 283 202 79 q 92 507 96 487 q 83 534 87 524 q 68 552 79 543 q 41 561 58 561 l -30 561 l -69 639 l -93 658 q -54 772 -92 723 q -34 750 -49 767 q -3 724 -18 732 q 37 710 12 715 l 48 708 q 92 689 71 708 q 127 643 113 670 q 157 569 142 616 q 182 486 172 523 q 204 393 191 450 q 220 325 216 340 l 262 138 l 262 100 q 243 -14 262 24 l 211 42 m 562 42 q 500 283 553 79 q 443 507 447 487 q 435 534 439 524 q 420 552 431 543 q 392 561 409 561 l 321 561 l 282 639 l 258 658 q 297 772 260 723 q 318 750 302 767 q 348 724 333 732 q 389 710 363 715 l 399 708 q 443 689 422 708 q 478 643 464 670 q 508 569 493 616 q 533 486 524 523 q 555 393 543 450 q 571 325 568 340 l 613 138 l 613 100 q 595 -14 613 24 l 562 42 z "},"":{"ha":713,"x_min":-106,"x_max":609,"o":"m 558 42 q 496 283 549 79 q 439 507 443 487 q 431 534 435 524 q 416 552 427 543 q 388 561 405 561 l 317 561 l 278 639 l 254 658 q 293 772 256 723 q 314 750 298 767 q 344 724 329 732 q 385 710 359 715 l 395 708 q 439 689 418 708 q 474 643 460 670 q 504 569 489 616 q 529 486 519 523 q 551 393 538 450 q 567 325 564 340 l 609 138 l 609 100 q 591 -14 609 24 l 558 42 m -46 578 l -84 636 l -106 656 q -73 781 -104 740 q -52 762 -70 779 q -24 738 -34 745 q 5 720 -14 730 q 45 706 25 709 q 61 701 52 704 q 73 698 71 699 q 82 694 75 697 q 96 686 90 690 q 116 671 102 681 q 147 632 136 656 q 165 570 157 607 q 175 511 175 534 q 164 323 175 444 l 116 342 q 105 403 111 366 q 97 454 100 440 q 92 479 95 462 q 87 504 90 496 q 52 558 79 539 q -46 578 24 578 z "},"":{"ha":694,"x_min":-106,"x_max":522,"o":"m -46 578 l -84 636 l -106 656 q -73 781 -104 740 q -52 762 -70 779 q -24 738 -34 745 q 5 720 -14 730 q 45 706 25 709 q 61 701 52 704 q 73 698 71 699 q 82 694 75 697 q 96 686 90 690 q 116 671 102 681 q 147 632 136 656 q 165 570 157 607 q 175 511 175 534 q 164 323 175 444 l 116 342 q 105 403 111 366 q 97 454 100 440 q 92 479 95 462 q 87 504 90 496 q 52 558 79 539 q -46 578 24 578 m 301 578 l 263 636 l 241 656 q 275 781 243 740 q 295 762 277 779 q 323 738 313 745 q 353 720 333 730 q 392 706 372 709 q 408 701 399 704 q 420 698 418 699 q 429 694 422 697 q 443 686 437 690 q 463 671 450 681 q 494 632 484 656 q 513 570 505 607 q 522 511 522 534 q 511 323 522 444 l 463 342 q 452 403 458 366 q 444 454 447 440 q 439 479 442 462 q 435 504 437 496 q 399 558 427 539 q 301 578 371 578 z "},"":{"ha":269,"x_min":-47,"x_max":77,"o":"m 69 746 q 77 719 74 732 l 30 593 l -12 465 q -43 473 -25 465 q -47 670 -47 574 q -46 754 -47 726 q -31 771 -46 771 q -18 769 -26 771 l 69 746 z "},"":{"ha":456,"x_min":-47,"x_max":250,"o":"m 69 746 q 77 719 74 732 l 30 593 l -12 465 q -43 473 -25 465 q -47 670 -47 574 q -46 754 -47 726 q -31 771 -46 771 q -18 769 -26 771 l 69 746 m 242 740 q 250 713 247 726 l 203 587 l 161 458 q 130 467 148 458 q 126 664 126 568 q 127 748 126 720 q 142 765 127 765 q 155 763 147 765 l 242 740 z "},"":{"ha":159,"x_min":0,"x_max":0,"o":""},"":{"ha":34,"x_min":0,"x_max":0,"o":""},"":{"ha":0,"x_min":-387,"x_max":-163,"o":"m -370 1284 l -279 1211 l -224 1284 l -196 1261 l -252 1189 l -163 1116 l -180 1094 l -269 1166 l -326 1094 l -353 1116 l -298 1189 l -387 1261 l -370 1284 z "},"":{"ha":0,"x_min":-416,"x_max":-118,"o":"m -150 1110 l -164 1173 l -376 1173 l -362 1110 l -394 1110 l -416 1205 l -140 1205 l -118 1110 l -150 1110 z "},"":{"ha":0,"x_min":-382,"x_max":-142,"o":"m -277 1261 l -260 1284 l -142 1189 l -216 1093 l -243 1116 l -199 1173 l -375 1173 l -382 1205 l -208 1205 l -277 1261 z "},"":{"ha":0,"x_min":-406,"x_max":-165,"o":"m -271 1117 l -288 1094 l -406 1190 l -332 1285 l -305 1262 l -349 1205 l -173 1205 l -165 1173 l -340 1173 l -271 1117 z "},"":{"ha":286,"x_min":-141,"x_max":20,"o":"m -11 947 l 20 650 q 15 638 20 645 q 0 632 10 632 q -19 635 -11 632 q -28 642 -26 639 l -47 700 l -134 926 q -137 937 -135 930 q -139 946 -138 944 q -141 965 -141 956 q -87 1004 -141 1004 q -11 947 -23 1004 z "},"":{"ha":286,"x_min":-141,"x_max":20,"o":"m -11 947 l 20 650 q 15 638 20 645 q 0 632 10 632 q -19 635 -11 632 q -28 642 -26 639 l -47 700 l -134 926 q -137 937 -135 930 q -139 946 -138 944 q -141 965 -141 956 q -87 1004 -141 1004 q -11 947 -23 1004 z "},"":{"ha":286,"x_min":52,"x_max":213,"o":"m 182 108 l 213 -199 q 191 -205 213 -205 q 165 -199 167 -205 q 146 -140 165 -197 l 58 87 q 54 106 55 99 q 52 125 52 117 q 105 165 52 165 q 182 108 168 165 z "},"":{"ha":577,"x_min":-141,"x_max":239,"o":"m -11 947 l 20 650 q 15 638 20 645 q 0 632 10 632 q -19 635 -11 632 q -28 642 -26 639 l -47 700 l -134 926 q -137 937 -135 930 q -139 946 -138 944 q -141 965 -141 956 q -87 1004 -141 1004 q -11 947 -23 1004 m 208 947 l 239 650 q 234 638 239 645 q 218 632 229 632 q 200 635 208 632 q 191 642 192 639 l 172 700 l 84 926 q 82 937 83 930 q 79 946 80 944 q 77 965 77 956 q 131 1004 77 1004 q 208 947 195 1004 z "},"":{"ha":578,"x_min":-141,"x_max":239,"o":"m -11 947 l 20 650 q 15 638 20 645 q 0 632 10 632 q -19 635 -11 632 q -28 642 -26 639 l -47 700 l -134 926 q -137 937 -135 930 q -139 946 -138 944 q -141 965 -141 956 q -87 1004 -141 1004 q -11 947 -23 1004 m 208 947 l 239 650 q 234 638 239 645 q 219 632 229 632 q 200 635 208 632 q 191 642 193 639 l 172 700 l 85 926 q 82 937 84 930 q 80 946 81 944 q 78 965 78 956 q 132 1004 78 1004 q 208 947 196 1004 z "},"":{"ha":505,"x_min":52,"x_max":432,"o":"m 182 108 l 213 -199 q 191 -205 213 -205 q 165 -199 167 -205 q 146 -140 165 -197 l 58 87 q 54 106 55 99 q 52 125 52 117 q 105 165 52 165 q 182 108 168 165 m 401 108 l 432 -199 q 410 -205 432 -205 q 385 -199 386 -205 q 365 -140 384 -197 l 277 87 q 273 106 274 99 q 271 125 271 117 q 324 165 271 165 q 401 108 387 165 z "},"":{"ha":942,"x_min":-77,"x_max":707,"o":"m -58 735 q 37 695 -9 695 q 134 694 69 695 q 230 693 198 693 q 421 707 353 693 l 463 585 q 431 522 431 567 q 437 476 431 500 q 463 404 447 435 q 497 346 479 373 q 524 295 515 318 l 471 156 q 410 331 455 227 q 353 486 364 434 q 341 570 342 532 q 218 561 299 561 l 111 561 q 98 509 98 542 q 107 445 98 484 q 167 271 121 380 q 216 150 213 161 q 155 15 197 92 q 87 227 139 83 q 22 429 35 370 q 11 511 11 478 q 19 561 11 543 l -56 561 q -70 598 -65 578 q -77 665 -77 628 q -58 735 -77 728 m 166 527 q 191 500 180 509 q 231 476 202 490 q 309 446 259 463 l 315 364 q 300 352 304 357 q 298 341 297 348 q 327 260 311 286 q 473 149 398 149 l 545 149 q 561 154 551 149 q 574 160 570 159 q 603 185 591 174 q 623 204 616 197 q 636 220 630 211 q 645 233 642 229 q 652 247 647 237 q 659 261 656 257 l 594 541 l 498 576 q 485 613 492 586 q 477 680 477 647 q 496 743 477 729 q 582 689 517 717 l 653 659 l 681 538 q 672 531 679 536 q 661 520 665 525 q 656 510 656 515 q 653 473 653 494 q 661 411 653 444 q 682 336 665 389 q 707 249 699 283 l 701 194 q 653 76 676 121 q 594 -11 631 31 q 544 -43 573 -43 q 509 -25 525 -43 q 432 54 473 16 q 361 123 390 92 q 306 199 332 154 q 283 255 294 222 q 261 313 273 288 q 230 363 250 338 q 200 371 216 368 q 166 382 184 374 q 155 414 159 394 q 149 470 149 441 q 166 527 149 524 z "},"":{"ha":764,"x_min":-13,"x_max":673,"o":"m 327 791 q 493 758 403 791 q 557 696 541 724 q 585 625 574 669 q 594 584 586 620 q 524 600 559 600 q 456 586 494 600 q 461 615 461 601 q 459 633 461 625 q 416 690 451 668 q 335 711 382 711 l 313 711 q 187 661 227 711 q 147 527 147 611 q 149 484 147 507 q 240 484 180 484 q 331 484 301 484 q 480 486 428 484 q 608 500 532 489 l 603 389 q 384 393 524 389 q 155 396 244 396 l 165 353 q 286 336 239 340 q 404 332 332 332 q 487 331 433 332 q 574 330 541 330 l 559 240 q 458 244 509 240 q 378 253 407 249 q 282 269 349 258 q 186 286 216 281 q 235 223 205 254 q 302 161 264 191 q 388 112 340 131 q 484 93 436 93 q 630 143 562 93 q 640 144 633 143 q 649 145 646 145 q 672 127 668 145 q 673 106 674 114 q 592 -2 647 36 q 467 -39 537 -39 q 249 45 359 -39 q 65 288 140 129 l 20 288 q 16 304 18 296 q 20 347 10 330 l 43 347 l 31 401 l 5 401 q -13 441 -9 429 q -13 462 -16 454 q 40 484 5 477 q 64 596 45 543 q 117 694 83 649 q 205 765 151 739 q 327 791 259 791 z "},"":{"ha":780,"x_min":24,"x_max":655,"o":"m 28 357 q 26 376 26 368 q 58 406 26 406 q 111 357 99 406 q 113 339 113 344 q 81 309 113 309 q 28 357 40 309 m 568 357 q 566 376 566 368 q 598 406 566 406 q 650 357 640 406 q 653 339 653 344 q 621 309 653 309 q 568 357 580 309 m 225 675 q 223 693 223 685 q 255 724 223 724 q 307 675 296 724 q 310 656 310 661 q 277 627 310 627 q 225 675 237 627 m 372 40 q 370 58 370 50 q 401 89 370 89 q 454 40 442 89 q 456 22 456 26 q 424 -8 456 -8 q 372 40 383 -8 m 497 516 q 495 534 495 526 q 527 565 495 565 q 579 516 568 565 q 582 498 582 503 q 549 468 582 468 q 497 516 509 468 m 570 199 q 568 217 568 209 q 600 248 568 248 q 652 199 642 248 q 655 180 655 185 q 623 151 655 151 q 570 199 582 151 m 26 516 q 24 534 24 526 q 56 565 24 565 q 109 516 98 565 q 111 498 111 503 q 79 468 111 468 q 26 516 38 468 m 100 199 q 98 217 98 209 q 130 248 98 248 q 182 199 171 248 q 184 180 184 185 q 152 151 184 151 q 100 199 111 151 m 100 634 q 98 652 98 644 q 130 683 98 683 q 182 634 171 683 q 184 616 184 621 q 152 586 184 586 q 100 634 111 586 m 370 634 q 368 652 368 644 q 399 683 368 683 q 452 634 441 683 q 454 616 454 621 q 422 586 454 586 q 370 634 381 586 m 228 81 q 225 100 225 91 q 257 130 225 130 q 310 81 298 130 q 312 63 312 71 q 279 33 312 33 q 228 81 238 33 m 498 81 q 495 100 495 91 q 527 130 495 130 q 580 81 568 130 q 582 63 582 71 q 549 33 582 33 q 498 81 508 33 z "},"":{"ha":333,"x_min":-106,"x_max":286,"o":"m -46 578 l -84 636 l -106 656 q -73 781 -104 740 q -52 762 -70 779 q -24 738 -34 745 q 5 720 -14 730 q 45 706 25 709 q 61 701 52 704 q 73 698 71 699 q 82 694 75 697 q 96 686 90 690 q 116 671 102 681 q 147 632 136 656 q 165 570 157 607 q 175 511 175 534 q 164 323 175 444 l 116 342 q 105 403 111 366 q 97 454 100 440 q 92 479 95 462 q 87 504 90 496 q 52 558 79 539 q -46 578 24 578 m 249 -234 q 211 -218 228 -234 q 189 -178 194 -202 q 186 -163 186 -170 q 197 -134 186 -144 q 223 -123 207 -123 q 261 -139 244 -123 q 283 -178 278 -155 q 286 -194 286 -186 q 275 -223 286 -212 q 249 -234 265 -234 z "},"":{"ha":0,"x_min":-342,"x_max":-85,"o":"m -186 806 q -251 857 -200 813 q -339 923 -302 901 l -342 934 q -339 943 -342 935 q -201 870 -335 941 q -92 932 -142 912 q -87 923 -87 927 l -85 912 q -143 854 -109 898 q -186 806 -178 810 z "},"":{"ha":694,"x_min":-106,"x_max":555,"o":"m 555 197 l 92 197 l 59 261 l 522 261 l 555 197 m 286 572 l 248 630 l 226 650 q 259 775 228 734 q 280 756 262 773 q 308 731 298 739 q 337 713 317 724 q 376 700 357 703 q 393 695 383 698 q 404 692 402 692 q 414 688 406 691 q 428 680 421 684 q 448 665 434 675 q 478 626 468 650 q 497 564 489 601 q 507 505 507 528 q 496 317 507 438 l 448 336 q 437 397 442 359 q 429 448 431 434 q 424 473 427 456 q 419 498 421 490 q 383 552 411 533 q 286 572 355 572 m -46 578 l -84 636 l -106 656 q -73 781 -104 740 q -52 762 -70 779 q -24 738 -34 745 q 5 720 -14 730 q 45 706 25 709 q 61 701 52 704 q 73 698 71 699 q 82 694 75 697 q 96 686 90 690 q 116 671 102 681 q 147 632 136 656 q 165 570 157 607 q 175 511 175 534 q 164 323 175 444 l 116 342 q 105 403 111 366 q 97 454 100 440 q 92 479 95 462 q 87 504 90 496 q 52 558 79 539 q -46 578 24 578 z "},"":{"ha":658,"x_min":-33,"x_max":511,"o":"m 81 530 q 54 539 68 536 q 33 546 40 543 q 12 559 26 549 q -22 590 -2 570 q -33 678 -33 642 q -15 761 -33 726 q 168 671 61 709 q 144 533 144 578 q 178 439 154 488 q 224 355 201 391 q 269 280 248 320 q 298 210 291 239 q 301 201 298 208 q 305 186 303 193 q 309 172 307 178 q 311 159 311 164 q 382 188 354 159 q 421 259 410 216 q 431 361 431 302 q 408 552 431 450 q 376 565 395 557 q 345 576 356 572 q 317 593 333 581 q 288 623 302 605 q 274 661 280 637 q 271 693 271 674 q 309 783 271 749 q 361 737 333 756 q 410 709 390 718 q 463 688 430 701 q 511 669 495 676 l 493 557 l 469 547 q 498 318 498 416 q 387 48 498 125 q 163 -9 308 -9 l 79 -9 q 68 13 73 5 q 60 26 63 20 q 54 47 58 33 q 42 132 42 102 q 44 152 42 144 q 114 137 58 150 q 197 125 170 125 q 276 144 239 125 q 213 238 264 163 q 128 372 161 313 q 85 474 95 431 q 80 511 80 491 q 81 530 80 517 z "},"":{"ha":1135,"x_min":48,"x_max":1044,"o":"m 724 362 q 771 422 753 388 q 789 490 789 456 q 709 610 789 564 q 745 760 728 716 q 920 636 815 689 q 877 518 910 553 l 843 524 q 854 429 854 475 q 819 309 854 348 q 850 293 836 300 q 875 280 864 286 q 899 268 886 275 q 919 256 911 260 q 939 244 926 252 q 957 233 952 236 q 977 220 962 230 q 997 207 992 210 q 1019 191 1001 203 q 1044 175 1038 179 q 1044 168 1044 173 q 1044 159 1044 162 q 1038 86 1044 127 q 1025 18 1031 44 q 1017 -8 1019 -8 q 831 163 951 94 q 585 275 759 205 q 534 295 540 293 q 376 369 528 301 q 203 441 224 437 q 163 416 180 441 q 146 350 146 391 q 152 304 146 326 q 191 235 161 265 q 252 191 220 204 q 310 177 284 177 q 362 195 337 177 l 372 35 q 304 24 338 35 q 251 1 270 12 q 195 -33 231 -9 l 174 -3 q 176 18 174 7 q 179 35 178 28 q 185 52 181 42 q 192 67 190 62 q 199 82 193 71 q 207 96 205 94 q 132 174 165 127 q 88 260 98 220 q 77 361 77 311 q 121 562 77 456 l 48 627 l 111 776 q 169 690 136 731 q 235 616 202 648 q 310 553 267 584 q 387 502 353 523 q 467 459 420 481 q 542 425 513 437 q 613 398 570 413 q 674 378 656 383 q 724 362 691 372 z "},"":{"ha":1051,"x_min":-58,"x_max":911,"o":"m 699 568 q 151 559 643 559 q 0 573 30 559 l -35 639 l -58 658 q -20 772 -57 723 q 2 749 -16 768 q 35 722 20 730 q 77 708 51 713 q 227 700 115 704 q 385 696 338 696 q 603 702 449 696 q 802 714 756 708 q 866 576 848 654 q 811 539 832 568 q 789 479 789 511 q 791 463 789 471 q 830 358 800 427 q 885 224 861 290 q 911 115 910 158 l 911 110 q 874 -17 911 58 l 854 -2 q 809 169 831 98 q 743 325 786 239 q 729 369 741 334 q 715 411 717 405 l 705 458 q 696 528 696 495 q 699 568 696 551 z "},"":{"ha":1122,"x_min":0,"x_max":1053,"o":"m 256 152 q 227 -24 243 17 l 191 -8 q 125 182 141 117 q 112 298 112 241 q 166 506 112 421 q 166 454 166 493 q 168 400 167 416 q 171 359 168 385 q 178 313 173 334 l 182 297 q 208 215 193 246 q 256 152 222 183 m 38 766 q 62 744 46 758 q 83 725 78 729 q 102 713 87 722 q 129 702 117 704 q 163 696 140 700 q 213 692 185 692 q 282 691 241 691 q 393 692 326 691 q 470 694 460 694 q 703 697 552 694 q 897 707 854 701 q 964 576 949 641 q 928 499 928 547 q 948 411 928 464 q 990 311 967 358 q 1033 208 1014 264 q 1053 109 1053 151 l 1053 103 q 1017 -24 1053 52 l 997 -9 q 961 104 985 26 q 914 248 937 182 q 867 368 891 314 l 857 414 q 842 519 842 481 q 846 572 842 545 q 482 564 793 564 l 60 564 l 22 633 l 0 652 q 38 766 1 718 z "},"":{"ha":1024,"x_min":-16,"x_max":937,"o":"m 789 623 q 827 538 799 601 q 869 444 856 476 q 902 361 883 411 q 929 270 921 311 q 937 195 937 230 q 916 102 937 141 q 578 20 841 54 q 127 -14 316 -14 q 123 68 123 47 q 130 134 123 106 l 155 134 q 845 218 791 134 q 850 241 850 226 q 846 273 850 254 q 832 311 841 291 q 817 345 824 330 q 801 377 810 359 q 791 397 792 394 q 769 439 782 412 q 746 484 755 467 q 722 520 736 501 q 688 551 707 540 q 645 564 669 562 l 45 564 l 7 633 l -16 652 q 22 766 -15 718 q 40 750 24 765 q 63 730 56 735 q 88 716 70 726 q 129 700 106 707 q 270 692 150 696 q 425 688 389 688 q 549 692 444 688 q 668 696 654 696 q 739 681 710 696 q 789 623 768 665 z "},"":{"ha":962,"x_min":-162,"x_max":789,"o":"m 621 185 q 634 223 623 197 q 656 277 646 249 q 677 361 667 305 q 688 485 687 416 q 665 535 687 505 q 621 564 643 564 l 63 551 q -52 670 -24 551 q -77 817 -71 752 l -77 827 q -75 871 -77 840 q -73 919 -73 903 q -104 984 -73 984 q -132 979 -114 984 q -153 986 -144 979 q -162 1005 -162 994 q -160 1015 -162 1009 l -92 1118 q -81 1120 -88 1120 q -56 1107 -66 1120 q -31 1006 -37 1067 q -23 880 -25 945 q -13 784 -20 815 q 11 724 -5 751 q 50 697 27 697 q 357 702 83 697 q 667 707 630 707 q 726 673 699 700 q 767 616 753 646 q 789 556 782 586 q 761 425 786 509 q 711 268 735 340 q 688 174 688 195 q 690 167 688 173 q 704 145 692 155 q 730 133 715 136 q 736 76 736 104 q 721 -14 736 37 q 707 -6 714 -11 q 694 3 700 -2 q 682 14 688 8 q 670 24 675 19 q 661 35 665 30 q 653 45 656 41 q 647 53 650 50 q 643 58 644 56 l 642 60 q 637 71 641 62 q 630 85 633 79 q 625 101 628 91 q 620 124 622 112 q 618 149 618 136 q 621 185 618 168 z "},"":{"ha":1118,"x_min":-64,"x_max":1042,"o":"m 932 183 l 909 286 q 839 491 884 390 q 709 545 829 519 q 511 570 589 570 q 297 565 451 570 q 112 555 142 560 l 112 544 q 124 448 112 502 q 155 347 137 394 q 190 260 172 300 q 221 195 208 219 l 233 172 q 257 136 241 150 q 292 122 273 122 q 314 127 304 122 q 513 159 359 145 q 800 178 668 173 l 932 183 m -25 790 q 2 763 -13 779 q 24 741 18 747 q 52 726 31 735 q 97 713 72 716 q 171 707 122 711 q 287 702 220 703 q 455 701 354 701 q 623 693 488 701 q 790 685 758 685 q 816 683 804 685 q 836 675 827 681 q 850 666 844 670 q 861 652 855 661 q 868 637 866 642 q 876 620 871 632 q 882 602 880 607 q 994 240 953 420 q 1023 208 1006 218 q 1042 132 1042 172 q 1042 107 1042 125 q 1041 79 1041 90 l 267 -43 q 231 -35 245 -43 q 202 -1 216 -27 q 177 74 188 25 q 64 502 64 354 q 67 537 64 522 q 71 558 69 553 l 73 564 l 41 564 q 25 566 35 564 q 7 571 15 568 q -2 573 -1 573 l -41 657 l -64 676 q -25 790 -62 741 z "},"":{"ha":1013,"x_min":-55,"x_max":927,"o":"m 865 16 q 869 64 869 35 q 753 469 869 203 q 747 483 752 471 q 741 497 742 494 q 734 510 739 500 q 726 524 729 521 q 718 536 724 528 q 708 548 713 544 q 698 555 704 551 q 685 562 692 559 l 5 566 l -32 633 l -55 652 q -20 779 -53 736 q -10 770 -18 777 q 1 761 -2 763 q 11 752 3 758 q 24 743 19 746 q 37 736 28 741 q 53 728 45 731 q 70 723 60 726 q 90 718 79 720 l 687 715 q 749 688 720 715 q 802 613 779 661 q 843 510 825 565 q 877 389 861 455 l 907 255 q 927 109 927 169 q 897 5 927 33 l 865 16 z "},"":{"ha":1196,"x_min":27,"x_max":1121,"o":"m 228 166 q 138 412 138 308 q 188 564 138 488 l 48 588 q 27 685 27 639 q 50 766 27 739 q 99 725 76 734 q 158 716 122 716 l 832 717 q 866 709 850 717 q 893 689 882 701 q 916 659 904 678 q 933 625 927 639 q 949 587 939 611 q 963 553 959 564 l 1112 165 q 1121 89 1121 130 q 1110 -4 1121 47 l 1064 31 q 1050 103 1060 64 q 1031 171 1040 142 q 1000 254 1023 199 q 967 332 977 309 q 923 429 957 355 q 880 526 890 503 q 817 564 853 564 l 262 564 q 240 554 252 564 q 223 528 229 545 q 208 435 208 483 q 297 186 208 326 l 330 186 l 359 56 q 255 -3 302 20 q 154 -40 208 -26 q 135 1 149 -28 q 113 53 120 31 q 106 100 106 76 l 106 104 q 143 119 114 108 q 191 140 172 130 q 228 166 210 151 z "},"":{"ha":689,"x_min":-90,"x_max":595,"o":"m -71 227 l -90 311 l 200 311 l 130 614 l 211 614 l 281 311 l 576 311 l 595 227 l -71 227 z "},"":{"ha":898,"x_min":-50,"x_max":734,"o":"m 45 734 l 161 655 l 164 650 q 164 648 164 650 q 165 646 165 647 q 148 589 165 627 q 119 542 132 551 q 111 501 111 523 q 114 475 111 488 q 124 439 119 456 q 134 414 130 422 q 147 388 138 406 q 160 363 157 370 q 183 316 161 363 q 224 236 205 269 q 258 183 242 203 q 285 163 272 163 q 297 184 299 163 q 291 266 297 187 q 285 387 285 345 l 285 420 q 291 467 287 444 q 299 504 296 490 q 309 539 302 517 q 319 574 316 562 l 245 616 q 254 684 249 668 q 312 763 266 716 q 339 716 318 738 q 409 662 361 694 q 465 624 456 630 q 457 568 464 601 q 442 521 450 535 q 425 525 433 525 q 414 523 419 525 q 405 516 409 520 q 401 512 401 512 q 355 406 355 468 l 355 404 l 357 141 q 404 138 385 138 q 455 151 431 138 q 495 185 479 164 q 523 228 511 206 q 539 270 534 250 l 613 544 l 514 627 q 519 663 516 638 q 525 701 522 688 q 538 732 528 713 q 567 766 549 751 q 578 750 568 766 q 604 713 589 733 q 628 686 618 693 l 734 612 q 727 551 733 571 q 699 492 721 532 q 660 472 677 492 q 656 467 659 471 q 651 462 652 464 q 647 455 650 460 q 644 445 645 451 q 642 432 642 439 l 619 178 l 592 161 q 559 132 585 155 q 524 101 533 109 q 492 74 514 93 q 456 46 469 55 q 424 23 443 37 q 388 2 405 10 q 354 -14 371 -7 q 323 -20 342 -22 q 260 21 278 -20 l 76 399 l 71 423 q 61 481 61 463 q 63 494 61 490 q 63 503 63 496 q 64 511 64 509 q 61 537 64 526 q 45 571 56 556 l -48 628 q -50 650 -50 636 q -41 711 -50 683 q 10 793 -26 762 q 22 762 14 777 q 38 741 31 747 l 45 734 m 622 827 q 584 843 601 827 q 562 882 567 859 q 559 898 559 890 q 570 927 559 916 q 596 938 580 938 q 634 922 617 938 q 656 882 651 906 q 659 867 659 874 q 648 838 659 848 q 622 827 638 827 z "},"":{"ha":898,"x_min":-50,"x_max":734,"o":"m 45 734 l 161 655 l 164 650 q 164 648 164 650 q 165 646 165 647 q 148 589 165 627 q 119 542 132 551 q 111 501 111 523 q 114 475 111 488 q 124 439 119 456 q 134 414 130 422 q 147 388 138 406 q 160 363 157 370 q 183 316 161 363 q 224 236 205 269 q 258 183 242 203 q 285 163 272 163 q 297 184 299 163 q 291 266 297 187 q 285 387 285 345 l 285 420 q 291 467 287 444 q 299 504 296 490 q 309 539 302 517 q 319 574 316 562 l 245 616 q 254 684 249 668 q 312 763 266 716 q 339 716 318 738 q 409 662 361 694 q 465 624 456 630 q 457 568 464 601 q 442 521 450 535 q 425 525 433 525 q 414 523 419 525 q 405 516 409 520 q 401 512 401 512 q 355 406 355 468 l 355 404 l 357 141 q 404 138 385 138 q 455 151 431 138 q 495 185 479 164 q 523 228 511 206 q 539 270 534 250 l 613 544 l 514 627 q 519 663 516 638 q 525 701 522 688 q 538 732 528 713 q 567 766 549 751 q 578 750 568 766 q 604 713 589 733 q 628 686 618 693 l 734 612 q 727 551 733 571 q 699 492 721 532 q 660 472 677 492 q 656 467 659 471 q 651 462 652 464 q 647 455 650 460 q 644 445 645 451 q 642 432 642 439 l 619 178 l 592 161 q 559 132 585 155 q 524 101 533 109 q 492 74 514 93 q 456 46 469 55 q 424 23 443 37 q 388 2 405 10 q 354 -14 371 -7 q 323 -20 342 -22 q 260 21 278 -20 l 76 399 l 71 423 q 61 481 61 463 q 63 494 61 490 q 63 503 63 496 q 64 511 64 509 q 61 537 64 526 q 45 571 56 556 l -48 628 q -50 650 -50 636 q -41 711 -50 683 q 10 793 -26 762 q 22 762 14 777 q 38 741 31 747 l 45 734 m 74 829 q 36 845 53 829 q 14 884 19 861 q 12 900 12 892 q 22 929 12 918 q 48 940 32 940 q 86 924 69 940 q 109 884 103 908 q 111 869 111 876 q 100 840 111 850 q 74 829 90 829 z "},"":{"ha":898,"x_min":-50,"x_max":734,"o":"m 622 827 q 584 843 601 827 q 562 882 567 859 q 559 898 559 890 q 570 927 559 916 q 596 938 580 938 q 634 922 617 938 q 656 882 651 906 q 659 867 659 874 q 648 838 659 848 q 622 827 638 827 m 467 294 q 429 310 446 294 q 406 349 412 326 q 404 365 404 357 q 414 394 404 383 q 441 405 425 405 q 479 389 462 405 q 501 349 496 373 q 503 334 503 341 q 493 304 503 315 q 467 294 483 294 m 45 734 l 161 655 l 164 650 q 164 648 164 650 q 165 646 165 647 q 148 589 165 627 q 119 542 132 551 q 111 501 111 523 q 114 475 111 488 q 124 439 119 456 q 134 414 130 422 q 147 388 138 406 q 160 363 157 370 q 183 316 161 363 q 224 236 205 269 q 258 183 242 203 q 285 163 272 163 q 297 184 299 163 q 291 266 297 187 q 285 387 285 345 l 285 420 q 291 467 287 444 q 299 504 296 490 q 309 539 302 517 q 319 574 316 562 l 245 616 q 254 684 249 668 q 312 763 266 716 q 339 716 318 738 q 409 662 361 694 q 465 624 456 630 q 457 568 464 601 q 442 521 450 535 q 425 525 433 525 q 414 523 419 525 q 405 516 409 520 q 401 512 401 512 q 355 406 355 468 l 355 404 l 357 141 q 404 138 385 138 q 455 151 431 138 q 495 185 479 164 q 523 228 511 206 q 539 270 534 250 l 613 544 l 514 627 q 519 663 516 638 q 525 701 522 688 q 538 732 528 713 q 567 766 549 751 q 578 750 568 766 q 604 713 589 733 q 628 686 618 693 l 734 612 q 727 551 733 571 q 699 492 721 532 q 660 472 677 492 q 656 467 659 471 q 651 462 652 464 q 647 455 650 460 q 644 445 645 451 q 642 432 642 439 l 619 178 l 592 161 q 559 132 585 155 q 524 101 533 109 q 492 74 514 93 q 456 46 469 55 q 424 23 443 37 q 388 2 405 10 q 354 -14 371 -7 q 323 -20 342 -22 q 260 21 278 -20 l 76 399 l 71 423 q 61 481 61 463 q 63 494 61 490 q 63 503 63 496 q 64 511 64 509 q 61 537 64 526 q 45 571 56 556 l -48 628 q -50 650 -50 636 q -41 711 -50 683 q 10 793 -26 762 q 22 762 14 777 q 38 741 31 747 l 45 734 z "},"":{"ha":898,"x_min":-50,"x_max":734,"o":"m 74 829 q 36 845 53 829 q 14 884 19 861 q 12 900 12 892 q 22 929 12 918 q 48 940 32 940 q 86 924 69 940 q 109 884 103 908 q 111 869 111 876 q 100 840 111 850 q 74 829 90 829 m 467 294 q 429 310 446 294 q 406 349 412 326 q 404 365 404 357 q 414 394 404 383 q 441 405 425 405 q 479 389 462 405 q 501 349 496 373 q 503 334 503 341 q 493 304 503 315 q 467 294 483 294 m 45 734 l 161 655 l 164 650 q 164 648 164 650 q 165 646 165 647 q 148 589 165 627 q 119 542 132 551 q 111 501 111 523 q 114 475 111 488 q 124 439 119 456 q 134 414 130 422 q 147 388 138 406 q 160 363 157 370 q 183 316 161 363 q 224 236 205 269 q 258 183 242 203 q 285 163 272 163 q 297 184 299 163 q 291 266 297 187 q 285 387 285 345 l 285 420 q 291 467 287 444 q 299 504 296 490 q 309 539 302 517 q 319 574 316 562 l 245 616 q 254 684 249 668 q 312 763 266 716 q 339 716 318 738 q 409 662 361 694 q 465 624 456 630 q 457 568 464 601 q 442 521 450 535 q 425 525 433 525 q 414 523 419 525 q 405 516 409 520 q 401 512 401 512 q 355 406 355 468 l 355 404 l 357 141 q 404 138 385 138 q 455 151 431 138 q 495 185 479 164 q 523 228 511 206 q 539 270 534 250 l 613 544 l 514 627 q 519 663 516 638 q 525 701 522 688 q 538 732 528 713 q 567 766 549 751 q 578 750 568 766 q 604 713 589 733 q 628 686 618 693 l 734 612 q 727 551 733 571 q 699 492 721 532 q 660 472 677 492 q 656 467 659 471 q 651 462 652 464 q 647 455 650 460 q 644 445 645 451 q 642 432 642 439 l 619 178 l 592 161 q 559 132 585 155 q 524 101 533 109 q 492 74 514 93 q 456 46 469 55 q 424 23 443 37 q 388 2 405 10 q 354 -14 371 -7 q 323 -20 342 -22 q 260 21 278 -20 l 76 399 l 71 423 q 61 481 61 463 q 63 494 61 490 q 63 503 63 496 q 64 511 64 509 q 61 537 64 526 q 45 571 56 556 l -48 628 q -50 650 -50 636 q -41 711 -50 683 q 10 793 -26 762 q 22 762 14 777 q 38 741 31 747 l 45 734 z "},"":{"ha":756,"x_min":15,"x_max":680,"o":"m 469 311 q 563 231 521 262 q 680 149 606 199 q 680 121 680 140 q 677 61 680 92 q 671 12 675 29 q 667 -6 668 -6 q 418 199 521 104 q 220 403 315 294 l 214 410 q 203 422 208 418 q 189 433 199 427 q 169 441 180 439 q 130 415 146 441 q 113 349 113 389 q 118 303 113 325 q 157 234 127 264 q 218 190 186 203 q 276 176 250 176 q 328 195 303 176 q 335 106 332 146 q 338 50 337 66 l 338 35 q 270 23 304 35 q 217 1 236 12 q 161 -33 197 -10 l 140 -3 q 142 17 140 7 q 145 34 144 28 q 152 52 146 41 q 158 66 157 63 q 166 82 159 68 q 173 96 173 95 q 98 174 132 127 q 55 260 64 220 q 43 361 43 313 q 87 561 43 452 l 15 627 l 83 741 q 215 565 138 651 q 399 374 292 479 q 442 471 442 413 q 437 515 442 488 q 359 612 422 575 q 395 762 375 712 q 569 640 462 694 q 526 520 559 554 l 492 526 q 504 431 504 477 q 469 311 504 350 m 572 -195 l 369 -195 l 355 -132 l 557 -132 l 572 -195 z "},"":{"ha":756,"x_min":15,"x_max":680,"o":"m 469 311 q 563 231 521 262 q 680 149 606 199 q 680 121 680 140 q 677 61 680 92 q 671 12 675 29 q 667 -6 668 -6 q 418 199 521 104 q 220 403 315 294 l 214 410 q 203 422 208 418 q 189 433 199 427 q 169 441 180 439 q 130 415 146 441 q 113 349 113 389 q 118 303 113 325 q 157 234 127 264 q 218 190 186 203 q 276 176 250 176 q 328 195 303 176 q 335 106 332 146 q 338 50 337 66 l 338 35 q 270 23 304 35 q 217 1 236 12 q 161 -33 197 -10 l 140 -3 q 142 17 140 7 q 145 34 144 28 q 152 52 146 41 q 158 66 157 63 q 166 82 159 68 q 173 96 173 95 q 98 174 132 127 q 55 260 64 220 q 43 361 43 313 q 87 561 43 452 l 15 627 l 83 741 q 215 565 138 651 q 399 374 292 479 q 442 471 442 413 q 437 515 442 488 q 359 612 422 575 q 395 762 375 712 q 569 640 462 694 q 526 520 559 554 l 492 526 q 504 431 504 477 q 469 311 504 350 m 457 -195 l 370 -195 l 356 -132 l 557 -132 l 572 -195 l 485 -195 l 490 -218 q 491 -220 491 -219 q 513 -278 498 -251 l 551 -339 q 531 -397 547 -377 q 503 -396 517 -400 q 457 -339 480 -380 l 467 -278 q 468 -268 468 -275 q 463 -221 468 -248 q 463 -219 463 -221 q 457 -195 463 -219 z "},"":{"ha":756,"x_min":15,"x_max":680,"o":"m 469 311 q 563 231 521 262 q 680 149 606 199 q 680 121 680 140 q 677 61 680 92 q 671 12 675 29 q 667 -6 668 -6 q 418 199 521 104 q 220 403 315 294 l 214 410 q 203 422 208 418 q 189 433 199 427 q 169 441 180 439 q 130 415 146 441 q 113 349 113 389 q 118 303 113 325 q 157 234 127 264 q 218 190 186 203 q 276 176 250 176 q 328 195 303 176 q 335 106 332 146 q 338 50 337 66 l 338 35 q 270 23 304 35 q 217 1 236 12 q 161 -33 197 -10 l 140 -3 q 142 17 140 7 q 145 34 144 28 q 152 52 146 41 q 158 66 157 63 q 166 82 159 68 q 173 96 173 95 q 98 174 132 127 q 55 260 64 220 q 43 361 43 313 q 87 561 43 452 l 15 627 l 83 741 q 215 565 138 651 q 399 374 292 479 q 442 471 442 413 q 437 515 442 488 q 359 612 422 575 q 395 762 375 712 q 569 640 462 694 q 526 520 559 554 l 492 526 q 504 431 504 477 q 469 311 504 350 m 454 -1 q 416 15 433 -1 q 393 55 399 31 q 391 71 391 63 q 401 100 391 89 q 428 111 412 111 q 466 95 449 111 q 488 55 483 79 q 490 39 490 47 q 480 10 490 21 q 454 -1 470 -1 z "},"":{"ha":675,"x_min":-20,"x_max":621,"o":"m 438 142 l 357 490 q 338 531 353 510 q 299 562 323 553 l 41 562 l 4 629 l -20 648 q 17 773 -18 729 q 149 707 93 707 l 196 707 q 302 713 261 707 q 341 704 323 713 q 373 674 359 694 q 398 631 387 653 q 420 573 410 609 q 438 510 431 538 q 455 439 446 482 q 459 420 456 433 q 465 400 463 407 q 486 309 478 342 q 510 235 494 277 q 543 164 525 194 l 617 178 q 621 92 621 98 q 611 8 621 43 q 467 -16 578 3 q 275 -43 355 -35 q 101 -51 194 -51 q 92 34 92 -9 q 96 104 92 64 q 139 102 116 102 q 438 142 233 102 m 218 296 q 180 312 197 296 q 158 352 163 328 q 156 368 156 360 q 166 397 156 386 q 193 408 176 408 q 231 392 214 408 q 253 352 248 376 q 255 336 255 344 q 245 307 255 318 q 218 296 235 296 z "},"":{"ha":456,"x_min":-24,"x_max":422,"o":"m 82 712 q 106 706 90 710 q 134 699 123 702 q 160 691 145 696 q 186 680 176 686 q 208 666 197 674 q 226 646 219 657 q 237 620 233 634 q 238 610 238 613 q 235 586 238 600 q 228 563 231 571 q 218 534 225 554 q 210 513 210 515 q 209 499 209 508 q 213 464 209 480 q 227 423 216 449 q 241 389 238 397 q 260 350 248 376 q 281 310 273 324 q 300 276 288 296 q 321 244 312 256 q 343 222 331 233 q 368 208 356 212 q 391 180 381 199 q 405 148 401 161 q 414 112 408 134 q 422 51 422 73 q 419 5 422 35 q 407 -16 411 -9 q 397 -28 402 -22 q 391 -35 392 -34 q 293 83 340 42 q 206 123 245 123 q 174 117 189 123 q 151 103 160 111 q 132 78 142 96 q 116 48 121 60 q 99 9 110 35 q 81 -33 87 -18 l 54 -7 q 41 86 41 50 q 82 197 41 157 q 217 265 123 237 q 176 346 197 296 q 147 428 155 395 q 126 559 130 503 q 92 565 117 561 q 46 573 66 568 q -3 589 25 578 l -18 652 l -24 679 q -8 728 -20 709 q 26 765 4 747 q 47 741 27 760 q 82 712 67 722 m 73 298 q 35 314 52 298 q 12 353 18 330 q 10 369 10 361 q 20 398 10 387 q 47 409 31 409 q 85 393 68 409 q 107 353 102 377 q 109 338 109 345 q 99 309 109 319 q 73 298 89 298 z "},"":{"ha":627,"x_min":-84,"x_max":501,"o":"m 290 570 q 124 561 229 561 q -25 574 7 561 l -61 640 l -84 659 q -45 773 -82 726 q -24 751 -41 770 q 9 723 -7 732 q 51 709 25 714 q 80 706 66 708 q 100 704 95 705 q 117 703 106 703 q 150 703 129 703 q 392 716 296 703 q 456 578 439 656 q 401 541 422 570 q 380 481 380 513 q 382 465 380 473 q 437 321 391 427 q 495 165 484 216 q 501 117 501 136 l 501 112 q 465 -15 501 60 l 445 0 q 399 170 422 100 q 334 327 376 241 q 320 371 332 335 q 306 413 307 406 q 295 460 300 442 q 286 530 286 497 q 290 570 286 553 m 165 294 q 127 310 144 294 q 105 350 111 326 q 103 366 103 358 q 113 395 103 384 q 140 406 123 406 q 178 390 161 406 q 200 350 195 374 q 202 334 202 342 q 192 305 202 316 q 165 294 182 294 z "},"":{"ha":802,"x_min":-20,"x_max":649,"o":"m 256 152 q 227 -24 243 17 l 191 -8 q 125 182 141 117 q 112 298 112 241 q 166 506 112 421 q 166 454 166 493 q 168 400 167 416 q 171 359 168 385 q 178 313 173 334 l 182 297 q 208 215 193 246 q 256 152 222 183 m 443 576 q 271 564 365 564 q 156 570 233 564 q 41 576 79 576 l 3 646 l -20 665 q 18 779 -18 731 q 37 761 22 775 q 62 739 53 746 q 89 723 71 732 q 126 711 106 714 q 294 694 205 694 q 494 712 369 694 q 559 581 545 645 q 523 506 523 551 q 528 470 523 491 q 584 322 536 432 q 643 161 631 212 q 649 113 649 137 l 649 106 q 612 -19 649 52 l 593 -5 q 544 150 591 1 q 463 373 496 300 q 453 418 457 399 q 438 522 438 479 q 443 576 438 549 m 330 296 q 292 312 309 296 q 270 352 275 328 q 268 368 268 360 q 278 397 268 386 q 304 408 288 408 q 342 392 326 408 q 365 352 359 376 q 367 336 367 344 q 357 307 367 318 q 330 296 347 296 z "},"":{"ha":380,"x_min":-79,"x_max":275,"o":"m 224 42 q 162 283 216 79 q 105 507 109 487 q 97 534 101 524 q 82 552 93 543 q 54 561 71 561 l -16 561 l -56 639 l -79 658 q -41 772 -78 723 q -20 750 -35 767 q 10 724 -5 732 q 51 710 25 715 l 62 708 q 105 689 85 708 q 141 643 126 670 q 171 569 155 616 q 195 486 186 523 q 218 393 205 450 q 233 325 230 340 l 275 138 l 275 100 q 257 -14 275 24 l 224 42 m 33 296 q -5 312 12 296 q -27 352 -22 328 q -29 368 -29 360 q -19 397 -29 386 q 7 408 -9 408 q 45 392 28 408 q 68 352 62 376 q 70 336 70 344 q 60 307 70 318 q 33 296 50 296 z "},"":{"ha":448,"x_min":-31,"x_max":321,"o":"m 14 791 q 68 751 41 769 q 112 721 94 732 q 156 697 130 709 q 193 679 181 684 q 232 662 204 674 q 271 646 260 650 q 288 595 283 622 q 296 525 296 563 q 294 486 296 511 l 186 532 q 175 534 180 534 q 162 521 165 534 q 181 466 168 497 q 198 423 195 435 q 258 302 217 376 q 314 164 300 228 q 321 122 321 136 q 319 104 321 119 q 318 72 318 89 l 294 -14 q 262 52 277 22 q 232 110 247 81 q 209 155 218 138 q 184 200 199 172 q 162 238 168 227 q 136 282 155 250 q 109 328 117 315 q 107 338 109 330 q 104 351 105 346 q 99 409 99 374 q 111 553 99 441 q 102 569 111 564 q 82 579 94 573 q 63 589 69 586 q 49 598 58 592 q 33 610 41 604 q 16 627 25 617 q 4 715 4 677 q 14 791 4 749 m 32 431 q -6 447 11 431 q -28 486 -23 463 q -31 502 -31 494 q -20 531 -31 520 q 6 542 -10 542 q 44 526 27 542 q 66 486 61 510 q 68 471 68 478 q 58 441 68 452 q 32 431 48 431 z "},"":{"ha":734,"x_min":-72,"x_max":602,"o":"m 119 533 q 124 499 119 519 q 174 359 136 447 q 245 210 212 272 q 280 148 277 148 q 303 146 288 148 q 325 145 318 145 q 349 147 337 145 q 370 152 361 149 q 391 161 380 155 q 409 171 402 168 q 427 185 416 175 q 442 199 437 195 q 458 216 447 203 q 472 232 469 228 q 487 250 475 236 q 500 267 498 264 q 511 318 511 278 q 499 408 511 359 q 481 475 490 448 q 456 533 472 502 q 417 583 441 564 q 361 612 393 603 q 345 615 351 615 q 293 598 315 615 q 272 543 272 581 q 273 526 272 538 l 222 539 q 212 610 212 579 q 217 649 212 632 q 231 680 221 667 q 247 700 240 693 q 268 719 254 707 q 349 741 296 741 q 456 711 395 741 q 526 634 502 682 q 565 519 549 587 q 572 486 568 507 q 579 455 577 465 q 602 279 602 357 q 574 129 602 193 q 256 -12 473 12 q 143 188 198 58 q 59 446 89 317 q 60 459 59 452 q 60 471 60 467 q 46 555 60 492 l -50 609 l -56 682 l -72 705 q -55 737 -66 716 q -37 771 -45 758 q -20 796 -28 785 q 60 717 -5 761 q 116 688 97 705 q 142 639 134 671 q 144 619 144 629 q 119 533 144 585 m 348 317 q 310 333 327 317 q 288 372 293 349 q 286 388 286 380 q 296 417 286 406 q 322 428 306 428 q 360 412 343 428 q 382 372 377 396 q 385 357 385 364 q 374 328 385 338 q 348 317 364 317 z "},"":{"ha":354,"x_min":-99,"x_max":182,"o":"m -39 578 l -77 636 l -99 656 q -66 781 -97 740 q -45 762 -63 779 q -17 738 -27 745 q 12 720 -7 730 q 52 706 32 709 q 68 701 58 704 q 79 698 77 699 q 89 694 81 697 q 103 686 96 690 q 123 671 109 681 q 154 632 143 656 q 172 570 164 607 q 182 511 182 534 q 171 323 182 444 l 123 342 q 112 403 117 366 q 104 454 106 440 q 99 479 102 462 q 94 504 96 496 q 58 558 86 539 q -39 578 31 578 m 17 389 q -21 405 -4 389 q -43 445 -38 421 q -45 460 -45 453 q -35 490 -45 479 q -9 500 -25 500 q 29 485 12 500 q 52 445 46 469 q 54 429 54 437 q 43 400 54 411 q 17 389 33 389 z "},"":{"ha":616,"x_min":-77,"x_max":546,"o":"m 12 715 q 180 699 91 699 q 380 715 267 699 q 446 577 427 656 q 396 494 396 538 q 399 473 396 483 q 418 340 402 411 q 469 175 433 279 q 518 18 506 70 q 530 -47 528 -25 q 540 -103 537 -77 q 546 -151 546 -127 l 546 -159 q 510 -283 546 -212 l 490 -269 q 474 -167 484 -214 q 454 -87 464 -122 q 428 -2 445 -52 q 402 77 412 48 q 361 192 392 106 q 311 332 330 279 l 300 378 q 294 431 294 403 q 311 573 294 481 q 157 561 233 561 q 107 566 139 563 q 58 572 75 570 q 16 578 42 574 q -35 590 -9 583 l -54 634 l -77 653 q -39 767 -75 720 q -30 753 -37 766 q -12 729 -22 740 q 12 715 -1 718 m 180 296 q 142 312 159 296 q 120 352 125 328 q 118 368 118 360 q 128 397 118 386 q 155 408 138 408 q 193 392 176 408 q 215 352 210 376 q 217 336 217 344 q 207 307 217 318 q 180 296 197 296 z "},"":{"ha":646,"x_min":-55,"x_max":542,"o":"m 394 619 q 432 534 404 597 q 474 439 461 471 q 505 360 488 408 q 531 275 522 312 q 542 191 542 228 q 521 98 542 136 q 337 16 433 42 q 87 -11 241 -11 q 83 72 83 50 q 90 138 83 109 q 190 140 149 138 q 288 150 231 142 q 386 177 346 157 q 446 227 427 196 q 453 252 453 236 q 450 271 453 258 q 441 300 448 283 q 428 329 434 317 q 411 362 422 341 q 395 393 400 383 q 373 436 387 408 q 351 480 360 463 q 327 517 341 498 q 293 547 312 536 q 250 561 274 558 l 5 561 l -32 629 l -55 648 q -16 762 -53 714 q -1 748 -12 758 q 15 733 9 739 q 32 721 21 728 q 58 707 43 713 q 90 695 72 701 q 173 688 134 688 q 224 690 191 688 q 273 692 258 692 q 344 677 315 692 q 394 619 373 662 m 224 294 q 186 310 203 294 q 164 350 170 326 q 162 366 162 358 q 172 395 162 384 q 199 406 182 406 q 237 390 220 406 q 259 350 254 374 q 261 334 261 342 q 251 305 261 316 q 224 294 241 294 z "},"":{"ha":612,"x_min":-179,"x_max":457,"o":"m 290 188 q 301 217 290 193 q 323 272 311 241 q 345 361 334 302 q 356 488 355 420 q 356 491 356 489 q 355 494 355 492 q 354 498 354 496 q 327 545 348 524 q 290 567 307 567 l 45 567 q -70 686 -42 567 q -95 833 -87 761 l -95 842 q -93 886 -95 854 q -91 934 -91 918 q -94 972 -91 959 q -121 1000 -101 1000 q -149 995 -132 1000 q -168 1000 -159 995 q -179 1015 -176 1006 q -178 1031 -180 1024 l -109 1134 q -99 1137 -106 1137 q -73 1123 -83 1137 q -57 1074 -64 1103 q -42 930 -46 1027 q -30 800 -38 833 q -6 740 -22 766 q 32 713 9 713 q 182 711 66 713 q 336 709 299 709 q 383 687 363 704 q 457 559 439 636 q 408 355 454 499 q 358 180 361 210 q 358 170 357 174 q 372 148 361 157 q 398 136 383 139 q 405 79 405 106 q 389 -11 405 40 q 351 16 370 -3 q 321 48 331 35 q 311 63 311 62 q 304 84 310 66 q 296 115 298 102 q 289 170 289 141 q 290 188 289 182 m 211 334 q 173 350 190 334 q 151 390 156 366 q 149 406 149 398 q 159 435 149 424 q 185 446 169 446 q 223 430 206 446 q 245 390 240 414 q 248 374 248 382 q 237 345 248 356 q 211 334 227 334 z "},"":{"ha":738,"x_min":-12,"x_max":644,"o":"m 33 766 q 42 749 35 762 q 52 733 50 736 q 61 720 54 730 q 75 705 68 710 q 94 690 82 700 q 123 670 106 680 q 161 648 139 661 q 186 606 179 637 q 188 585 188 597 q 369 738 259 683 q 413 727 391 738 q 451 701 434 717 q 486 656 469 684 q 515 603 503 629 q 542 539 528 578 q 565 473 555 501 q 585 401 574 444 q 602 333 596 358 q 617 267 608 307 l 618 261 l 640 171 q 644 134 644 149 q 637 97 644 114 q 621 66 631 79 q 592 42 610 53 q 556 23 573 31 q 511 9 538 16 q 462 -2 484 2 q 407 -10 440 -6 q 351 -17 374 -14 q 292 -23 328 -19 q 234 -28 256 -26 q 212 18 217 -7 q 209 46 209 31 q 221 116 209 75 q 481 140 380 116 q 539 224 539 161 q 533 271 539 244 q 530 285 533 272 q 525 306 526 298 q 471 469 499 416 q 396 559 439 528 q 318 525 351 545 q 262 479 284 506 q 227 428 241 453 q 204 366 213 403 q 191 301 195 330 q 179 229 186 273 q 168 156 173 185 q 103 101 144 125 q 95 184 95 136 q 97 236 95 209 q 104 298 99 264 q 113 356 109 333 q 124 423 117 378 q 136 488 132 468 q 134 498 136 492 q 96 554 129 525 q -3 597 63 583 l 0 644 l 0 645 q -6 654 -1 648 q -12 663 -12 660 l -12 664 q 5 723 -3 704 q 33 766 14 741 m 370 298 q 332 314 349 298 q 310 354 315 330 q 308 370 308 362 q 318 399 308 388 q 345 410 328 410 q 382 394 366 410 q 405 354 399 378 q 407 338 407 346 q 397 309 407 320 q 370 298 387 298 z "},"":{"ha":413,"x_min":-49,"x_max":337,"o":"m 60 724 q 130 681 100 704 q 168 644 159 657 l 177 631 l 177 620 q 174 589 177 604 q 170 566 170 573 q 172 549 170 559 q 181 494 174 520 q 220 380 193 443 q 285 246 248 317 q 336 142 322 175 q 337 119 337 132 q 330 56 337 71 q 284 27 308 39 q 230 6 260 15 q 181 -8 200 -3 q 124 -20 161 -13 q 72 -31 86 -28 q 39 35 46 3 q 36 58 36 45 q 54 118 36 89 q 207 166 140 118 l 176 252 q 140 381 165 282 q 81 551 114 480 q 36 582 58 569 q 4 599 15 594 q -39 618 -6 604 l -34 669 l -49 691 q 6 785 -42 746 q 24 754 14 765 q 60 724 35 743 m 41 296 q 3 312 20 296 q -19 351 -14 328 q -21 367 -21 359 q -11 396 -21 385 q 16 407 -1 407 q 54 391 37 407 q 76 351 71 375 q 78 336 78 343 q 68 307 78 317 q 41 296 58 296 z "},"":{"ha":730,"x_min":-27,"x_max":610,"o":"m 393 558 q 155 547 317 547 q 138 519 144 538 q 132 481 132 500 q 134 465 132 473 q 154 385 145 413 q 182 314 163 357 q 233 229 201 271 q 316 136 266 186 q 464 192 400 136 q 543 328 528 248 q 500 430 532 374 q 436 521 467 486 q 393 558 406 556 m 95 701 q 193 696 138 696 q 324 701 244 696 q 415 705 404 705 q 524 557 481 633 q 594 368 568 481 q 610 257 610 300 q 608 225 610 241 q 603 186 606 210 q 597 146 600 163 q 564 97 583 119 q 518 57 545 75 q 472 27 492 39 q 418 -2 452 16 q 368 -28 385 -19 l 338 -24 q 177 167 244 60 q 85 375 109 274 q 75 446 77 416 l 75 450 q 91 499 75 462 q 111 549 108 536 q 20 568 70 555 l -3 621 l -27 640 q 12 754 -26 705 q 95 701 39 709 m 340 315 q 302 331 319 315 q 279 370 285 347 q 277 386 277 378 q 288 415 277 404 q 314 426 298 426 q 352 410 335 426 q 374 370 369 394 q 376 355 376 362 q 366 326 376 336 q 340 315 356 315 z "},"":{"ha":615,"x_min":-19,"x_max":626,"o":"m 67 803 q 81 782 73 792 q 94 765 88 772 q 110 751 100 759 q 125 739 120 743 q 142 727 130 735 q 157 716 153 719 q 224 697 180 706 q 306 675 267 688 q 371 639 345 662 q 416 579 394 620 q 455 494 438 538 q 493 377 473 449 q 526 252 513 305 q 559 113 539 198 l 625 -168 q 626 -189 626 -184 q 615 -235 626 -219 q 577 -259 604 -251 q 570 -210 576 -236 q 564 -182 568 -199 q 513 -26 553 -139 q 456 156 472 86 q 449 196 453 169 q 441 239 444 224 q 379 440 412 365 q 303 539 346 515 q 207 594 252 578 q 110 611 161 611 q 70 600 85 608 q 48 579 55 592 q 40 556 42 566 q 39 528 39 546 q 74 450 50 480 q 133 419 98 419 q 178 431 153 419 q 201 372 195 398 q 205 332 205 353 q 199 286 205 307 q 126 271 160 271 q 59 284 92 271 q 9 372 20 326 q 7 395 7 387 q 16 429 7 414 q -15 509 -10 487 q -19 541 -19 525 q 24 634 -19 591 l -3 679 q 67 803 13 787 m 319 261 q 281 277 298 261 q 258 317 264 293 q 256 332 256 325 q 267 361 256 351 q 293 372 277 372 q 331 356 314 372 q 353 317 348 340 q 355 301 355 309 q 345 272 355 283 q 319 261 335 261 z "},"":{"ha":666,"x_min":-19,"x_max":565,"o":"m 5 705 q 39 777 20 762 q 59 784 48 784 q 68 783 64 784 q 115 726 76 746 q 198 701 153 706 q 296 686 242 696 q 377 659 349 676 q 446 572 413 633 q 497 460 479 511 q 525 363 515 408 q 564 96 559 213 q 565 90 564 94 q 565 85 565 87 q 563 64 565 73 q 553 43 560 56 q 545 26 547 31 q 79 -27 427 -27 q 71 43 71 11 q 87 117 71 89 q 485 191 337 117 q 340 532 419 474 q 248 577 293 566 q 120 589 203 589 q 69 573 87 589 q 51 527 51 557 q 54 501 51 517 q 73 449 60 477 q 100 412 87 420 q 152 395 129 395 q 192 412 176 395 q 206 369 203 387 q 209 347 209 359 q 207 322 209 334 q 199 291 204 310 q 192 267 193 272 l 76 267 q 49 278 57 274 q 30 289 41 281 q 15 307 20 296 q 5 334 9 317 q 3 355 3 344 q 16 408 3 380 q -14 481 -7 452 q -19 517 -19 500 q -11 557 -19 537 q 3 585 -3 576 q 26 614 10 594 l 0 652 l 0 662 q 5 705 0 679 m 331 272 q 293 288 310 272 q 271 328 276 304 q 269 343 269 336 q 279 372 269 361 q 305 383 289 383 q 343 367 326 383 q 366 328 360 351 q 368 312 368 319 q 357 283 368 294 q 331 272 347 272 z "},"":{"ha":679,"x_min":-35,"x_max":511,"o":"m 338 325 q 354 314 344 321 q 392 285 365 307 q 441 243 420 264 q 484 194 463 222 q 510 142 505 166 q 510 138 510 141 q 511 132 511 134 q 504 98 511 113 q 483 71 498 82 q 456 52 469 60 q 418 38 443 45 q 379 29 394 32 q 337 20 365 26 q 315 16 322 18 q 102 -12 284 11 q 101 23 101 2 q 113 122 101 46 q 153 125 124 122 q 192 127 181 127 q 388 171 297 127 l 305 244 q 272 272 293 255 q 237 301 251 288 q 208 332 222 315 q 92 523 110 448 q 87 543 90 534 q 24 573 50 555 q -35 625 -1 590 q -35 640 -35 631 q -33 674 -35 650 q -28 719 -31 699 q -18 756 -24 738 q -2 778 -11 774 q 164 665 47 700 q 165 633 165 656 q 164 591 165 619 q 163 552 163 562 q 165 532 163 536 l 140 537 q 143 523 142 528 q 186 443 153 480 q 264 382 218 406 q 280 487 265 431 q 319 574 296 543 q 295 595 311 586 q 260 626 279 604 q 271 659 264 635 q 289 710 277 683 q 323 762 300 736 q 373 718 347 739 q 433 673 399 698 q 491 631 468 648 q 480 592 488 620 q 464 543 471 565 q 456 520 456 520 q 427 528 443 520 q 403 538 411 536 q 365 510 380 523 q 342 487 350 496 q 329 466 334 478 q 323 447 324 454 q 320 425 322 439 q 317 399 319 410 q 318 358 315 373 q 338 325 323 338 m 146 207 q 108 223 125 207 q 85 262 91 239 q 83 278 83 271 q 94 307 83 296 q 120 318 104 318 q 158 302 141 318 q 180 262 175 286 q 182 247 182 254 q 172 218 182 229 q 146 207 162 207 z "},"":{"ha":686,"x_min":-41,"x_max":548,"o":"m -16 776 q 203 702 31 702 q 233 702 203 702 q 428 718 321 702 q 491 607 462 677 q 536 471 520 537 q 548 365 548 420 q 541 285 548 323 q 474 248 503 270 q 425 196 445 225 q 392 138 405 166 q 366 72 378 110 q 347 90 357 74 q 332 125 336 105 q 329 143 330 132 q 335 176 331 162 q 346 206 338 189 q 354 225 353 222 l 478 399 q 471 418 477 402 q 462 439 465 433 q 453 461 459 446 q 442 484 446 476 q 430 506 437 492 q 417 528 423 519 q 402 546 410 536 q 386 563 394 555 q 131 545 220 563 l 180 330 q 256 121 199 246 q 330 -77 313 -3 q 334 -118 334 -97 q 330 -155 334 -136 q 321 -185 326 -173 q 304 -215 316 -197 q 289 -238 293 -232 q 270 -261 284 -244 q 255 -279 256 -278 q 222 -72 252 -199 q 155 180 203 12 q 90 421 106 348 q 87 442 87 431 q 102 511 87 469 q 117 555 117 553 q 81 565 106 558 q 43 575 56 571 q 10 588 30 579 q -28 608 -10 597 q -41 698 -41 670 q -16 776 -41 735 m 307 327 q 269 343 286 327 q 246 382 252 359 q 244 398 244 391 q 254 427 244 416 q 281 438 264 438 q 319 422 302 438 q 341 382 336 406 q 343 367 343 374 q 333 338 343 349 q 307 327 323 327 z "},"":{"ha":631,"x_min":-83,"x_max":555,"o":"m 380 468 q 375 479 380 470 q 370 492 371 489 q 364 505 368 496 q 357 517 360 513 q 351 528 355 521 q 342 539 347 535 q 334 547 338 543 q 323 555 329 552 q 312 561 318 559 l -22 561 l -60 629 l -83 648 q -47 774 -81 731 q -40 767 -46 773 q -32 760 -33 761 q -23 753 -30 758 q -14 745 -17 747 q -5 739 -12 743 q 6 732 2 734 q 17 727 10 730 q 31 721 24 723 q 45 717 37 720 q 61 713 53 715 l 314 713 q 376 686 347 713 q 429 611 406 659 q 470 509 452 564 q 504 387 488 454 l 535 254 q 555 107 555 168 q 524 4 555 32 l 492 15 q 498 66 498 39 q 486 159 498 105 q 380 468 452 304 m 201 296 q 163 312 180 296 q 140 352 146 328 q 138 368 138 360 q 149 397 138 386 q 175 408 159 408 q 213 392 196 408 q 235 352 230 376 q 237 336 237 344 q 227 307 237 318 q 201 296 217 296 z "},"":{"ha":898,"x_min":-50,"x_max":734,"o":"m 45 734 l 161 655 l 164 650 q 164 648 164 650 q 165 646 165 647 q 148 589 165 627 q 119 542 132 551 q 111 501 111 523 q 114 475 111 488 q 124 439 119 456 q 134 414 130 422 q 147 388 138 406 q 160 363 157 370 q 183 316 161 363 q 224 236 205 269 q 258 183 242 203 q 285 163 272 163 q 297 184 299 163 q 291 266 297 187 q 285 387 285 345 l 285 420 q 291 467 287 444 q 299 504 296 490 q 309 539 302 517 q 319 574 316 562 l 245 616 q 254 684 249 668 q 312 763 266 716 q 339 716 318 738 q 409 662 361 694 q 465 624 456 630 q 457 568 464 601 q 442 521 450 535 q 425 525 433 525 q 414 523 419 525 q 405 516 409 520 q 401 512 401 512 q 355 406 355 468 l 355 404 l 357 141 q 404 138 385 138 q 455 151 431 138 q 495 185 479 164 q 523 228 511 206 q 539 270 534 250 l 613 544 l 514 627 q 519 663 516 638 q 525 701 522 688 q 538 732 528 713 q 567 766 549 751 q 578 750 568 766 q 604 713 589 733 q 628 686 618 693 l 734 612 q 727 551 733 571 q 699 492 721 532 q 660 472 677 492 q 656 467 659 471 q 651 462 652 464 q 647 455 650 460 q 644 445 645 451 q 642 432 642 439 l 619 178 l 592 161 q 559 132 585 155 q 524 101 533 109 q 492 74 514 93 q 456 46 469 55 q 424 23 443 37 q 388 2 405 10 q 354 -14 371 -7 q 323 -20 342 -22 q 260 21 278 -20 l 76 399 l 71 423 q 61 481 61 463 q 63 494 61 490 q 63 503 63 496 q 64 511 64 509 q 61 537 64 526 q 45 571 56 556 l -48 628 q -50 650 -50 636 q -41 711 -50 683 q 10 793 -26 762 q 22 762 14 777 q 38 741 31 747 l 45 734 m 467 294 q 429 310 446 294 q 406 349 412 326 q 404 365 404 357 q 414 394 404 383 q 441 405 425 405 q 479 389 462 405 q 501 349 496 373 q 503 334 503 341 q 493 304 503 315 q 467 294 483 294 z "},"":{"ha":757,"x_min":7,"x_max":692,"o":"m 138 713 l 403 713 q 437 705 421 713 q 464 686 453 697 q 486 655 475 675 q 504 622 498 635 q 520 584 510 608 q 534 550 530 560 l 683 162 q 692 85 692 126 q 682 -7 692 46 l 635 28 q 625 85 630 66 q 603 162 616 121 q 568 255 590 203 q 533 339 547 307 q 490 436 519 371 q 450 523 460 501 q 387 561 423 561 l 242 561 q 220 551 231 561 q 203 526 209 542 q 187 433 187 477 q 196 361 187 399 q 276 184 214 282 l 309 184 l 339 54 q 235 -5 281 18 q 134 -43 188 -28 q 118 -10 129 -31 q 100 28 108 11 q 90 63 93 46 q 85 101 85 81 q 123 116 94 105 q 171 138 152 127 q 208 163 189 148 q 126 343 144 267 q 118 410 118 378 q 168 561 118 486 l 28 585 q 14 628 19 608 q 7 683 7 656 q 29 764 7 735 q 79 722 56 731 q 138 713 102 713 m 371 296 q 333 312 350 296 q 311 352 316 328 q 309 368 309 360 q 319 397 309 386 q 345 408 329 408 q 383 392 366 408 q 406 352 400 376 q 408 336 408 344 q 397 307 408 318 q 371 296 387 296 z "},"":{"ha":339,"x_min":-93,"x_max":262,"o":"m 211 42 q 149 283 202 79 q 92 507 96 487 q 83 534 87 524 q 68 552 79 543 q 41 561 58 561 l -30 561 l -69 639 l -93 658 q -54 772 -92 723 q -34 750 -49 767 q -3 724 -18 732 q 37 710 12 715 l 48 708 q 92 689 71 708 q 127 643 113 670 q 157 569 142 616 q 182 486 172 523 q 204 393 191 450 q 220 325 216 340 l 262 138 l 262 100 q 243 -14 262 24 l 211 42 m 73 817 q 35 832 52 817 q 12 872 18 848 q 10 888 10 880 q 20 917 10 906 q 47 928 31 928 q 85 912 68 928 q 107 872 102 896 q 109 857 109 864 q 99 827 109 838 q 73 817 89 817 z "},"":{"ha":675,"x_min":-20,"x_max":621,"o":"m 438 142 l 357 490 q 338 531 353 510 q 299 562 323 553 l 41 562 l 4 629 l -20 648 q 17 773 -18 729 q 149 707 93 707 l 196 707 q 302 713 261 707 q 341 704 323 713 q 373 674 359 694 q 398 631 387 653 q 420 573 410 609 q 438 510 431 538 q 455 439 446 482 q 459 420 456 433 q 465 400 463 407 q 486 309 478 342 q 510 235 494 277 q 543 164 525 194 l 617 178 q 621 92 621 98 q 611 8 621 43 q 467 -16 578 3 q 275 -43 355 -35 q 101 -51 194 -51 q 92 34 92 -9 q 96 104 92 64 q 139 102 116 102 q 438 142 233 102 m 297 830 l 34 830 l 20 894 l 283 894 l 297 830 z "},"":{"ha":646,"x_min":-55,"x_max":542,"o":"m 394 619 q 432 534 404 597 q 474 439 461 471 q 505 360 488 408 q 531 275 522 312 q 542 191 542 228 q 521 98 542 136 q 337 16 433 42 q 87 -11 241 -11 q 83 72 83 50 q 90 138 83 109 q 190 140 149 138 q 288 150 231 142 q 386 177 346 157 q 446 227 427 196 q 453 252 453 236 q 450 271 453 258 q 441 300 448 283 q 428 329 434 317 q 411 362 422 341 q 395 393 400 383 q 373 436 387 408 q 351 480 360 463 q 327 517 341 498 q 293 547 312 536 q 250 561 274 558 l 5 561 l -32 629 l -55 648 q -16 762 -53 714 q -1 748 -12 758 q 15 733 9 739 q 32 721 21 728 q 58 707 43 713 q 90 695 72 701 q 173 688 134 688 q 224 690 191 688 q 273 692 258 692 q 344 677 315 692 q 394 619 373 662 m 271 830 l 7 830 l -7 894 l 256 894 l 271 830 z "},"":{"ha":666,"x_min":-19,"x_max":565,"o":"m 5 705 q 39 777 20 762 q 59 784 48 784 q 68 783 64 784 q 115 726 76 746 q 198 701 153 706 q 296 686 242 696 q 377 659 349 676 q 446 572 413 633 q 497 460 479 511 q 525 363 515 408 q 564 96 559 213 q 565 90 564 94 q 565 85 565 87 q 563 64 565 73 q 553 43 560 56 q 545 26 547 31 q 79 -27 427 -27 q 71 43 71 11 q 87 117 71 89 q 485 191 337 117 q 340 532 419 474 q 248 577 293 566 q 120 589 203 589 q 69 573 87 589 q 51 527 51 557 q 54 501 51 517 q 73 449 60 477 q 100 412 87 420 q 152 395 129 395 q 192 412 176 395 q 206 369 203 387 q 209 347 209 359 q 207 322 209 334 q 199 291 204 310 q 192 267 193 272 l 76 267 q 49 278 57 274 q 30 289 41 281 q 15 307 20 296 q 5 334 9 317 q 3 355 3 344 q 16 408 3 380 q -14 481 -7 452 q -19 517 -19 500 q -11 557 -19 537 q 3 585 -3 576 q 26 614 10 594 l 0 652 l 0 662 q 5 705 0 679 m 323 830 l 60 830 l 45 894 l 309 894 l 323 830 z "},"":{"ha":734,"x_min":-225,"x_max":650,"o":"m -139 1129 q -61 1054 -87 1088 q -15 965 -34 1019 q 9 825 -5 922 q 31 699 24 728 q 87 587 42 650 q 184 474 132 524 q 285 391 237 425 q 354 357 334 357 q 380 513 380 463 q 377 541 380 530 q 331 610 366 587 q 309 641 315 616 q 307 646 308 642 q 305 660 305 654 q 316 724 305 689 q 343 766 328 760 q 448 680 402 712 q 535 641 493 648 l 515 522 l 456 538 l 398 321 l 610 165 q 646 79 637 118 q 650 50 650 62 q 618 -12 650 9 q 492 118 558 60 q 368 215 425 176 q 256 291 311 253 q 143 382 200 330 q 39 500 87 434 q 9 548 26 517 q -18 600 -7 578 l -27 622 q -41 671 -37 649 q -53 744 -47 698 q -63 825 -59 789 q -68 865 -66 861 q -91 939 -81 922 q -134 983 -100 956 q -149 989 -142 989 l -157 989 q -196 968 -172 989 q -210 985 -203 974 q -218 1005 -216 996 q -225 1055 -225 1033 q -203 1113 -225 1097 q -139 1129 -180 1129 z "}}}
